<mxfile host="65bd71144e">
    <diagram id="OeVfTE4KgZHrqjLSo8Zd" name="Page-1">
        <mxGraphModel dx="822" dy="614" grid="1" gridSize="10" guides="1" tooltips="1" connect="1" arrows="1" fold="1" page="1" pageScale="1" pageWidth="827" pageHeight="1169" background="#ffffff" math="0" shadow="1">
            <root>
                <mxCell id="0"/>
                <mxCell id="1" parent="0"/>
                <mxCell id="4" value="" style="rounded=0;whiteSpace=wrap;html=1;" parent="1" vertex="1">
                    <mxGeometry x="160" y="220" width="210" height="100" as="geometry"/>
                </mxCell>
                <mxCell id="35" value="" style="edgeStyle=none;html=1;strokeWidth=2;" parent="1" source="6" target="5" edge="1">
                    <mxGeometry relative="1" as="geometry"/>
                </mxCell>
                <mxCell id="6" value="&lt;br&gt;&lt;br&gt;svc-x" style="rounded=1;whiteSpace=wrap;html=1;fillColor=#f5f5f5;fontColor=#333333;strokeColor=#666666;" parent="1" vertex="1">
                    <mxGeometry x="280" y="240" width="80" height="60" as="geometry"/>
                </mxCell>
                <mxCell id="5" value="Service X" style="rounded=1;whiteSpace=wrap;html=1;fillColor=#f5f5f5;fontColor=#333333;strokeColor=#666666;" parent="1" vertex="1">
                    <mxGeometry x="170" y="240" width="80" height="60" as="geometry"/>
                </mxCell>
                <mxCell id="3" value="" style="shape=image;imageAspect=0;aspect=fixed;verticalLabelPosition=bottom;verticalAlign=top;image=data:image/png,iVBORw0KGgoAAAANSUhEUgAAAt4AAAIcCAYAAADBtKngAAAABGdBTUEAALGPC/xhBQAAACBjSFJNAAB6JgAAgIQAAPoAAACA6AAAdTAAAOpgAAA6mAAAF3CculE8AAAABmJLR0QA/wD/AP+gvaeTAABFSklEQVR42u3deXxdVbn/8e+zz0nSJjlJB0oZSpuTlMmKChVEkUlAEAdAhOt1/CECSpt0cMDxEueLYtuctGBFQQWHWxBHRAVkUAFBcKxDaZMUSikUOuQkbZOcs5/fH61AoemQJmfY+/N+vbivey+ac/az1tr7u9dZe20JAAAAAAAAAAAAAAAAAAAAAFAqjBIAKCZ3T0iqfOIJ2Wn/df3xmzdtmZbPqZrK7Fh/Phf29OTyVCJm40TaoGTwu57lM5dSDYDgDQBDDd5VX776jw3f/M7fru7vz59MRXaurz+vnt5+ChHb/O3XZjvXXyy1hpQDKD8BJQBQbNdd/7crCd3ALplkF6bSY+dSCoDgDQB77IiTrz1iS1/+TVQC2O38/XGples3QPAGgD3T0+NTqQKwR8bVpMdMoAwAwRsA9kgYepIqAHs4bgZCxg1A8AYAAABA8AYAAAAI3gAAAADBGwAAAADBGwAAACB4AwAAAARvSgAAAAAQvAEAAACCNwAAAACCNwAAAEDwBgAAAAjeAAAAAAjeAAAAAMEbAAAAAMEbAAAAIHgDAAAABG8AAAAABG8AAACA4A0AAAAQvAEAAAAQvAEAAACCNwAAAACCNwAAAEDwBgAAAAjeAAAAAAjeAAAAAMEbAAAAAMEbAAAAIHgDAAAABG8AAAAABG8AAACA4A0AAAAQvAEAAAAQvAEAAACCNwAAAACCNwAAAEDwBgAAAAjeAAAAAAjeAAAAAMEbAAAAAMEbAAAAIHgDAAAABG8AAAAABG8AAACA4A0AAAAQvAEAAAAQvAEAAACCNwAAAACCNwAAAEDwBgAAAAjeAAAAAAjeAAAAAMEbAAAAAMEbAAAAIHgDAAAABG8AAAAABG8AAACA4A0AAAAQvAEAAAAQvAEAAACCNwAAAACCNwAAAEDwBgAAAAjeAAAAAAjeAAAAAMEbAAAAAMEbAAAAIHgDAAAABG8AAAAABG8AAACA4A0AAAAQvAEAAAAQvAEAAACCNwAAAACCNwAAAEDwBgAAAAjeAAAAAAjeAAAAAMEbAAAAAMEbAAAAIHgDAAAABG8AAAAABG8AAACA4A0AAAAQvAEAAAAQvAEAAACCNwAAAACCNwAAAEDwBgAAAAjeAAAAAAjeAAAAAMEbAAAAIHhTAgAAAIDgDQAAABC8AQAAABC8AQAAAII3AAAAQPAGAAAAQPAGAAAACN4AAAAACN4AAAAAwRsAAAAgeAMAAAAgeAMAAAAEbwAAAIDgDQAAAIDgDQAAABC8AQAAABC8AQAAAII3AAAAQPAGAAAAQPAGAAAACN4AAAAACN4AAAAAwRsAAAAgeAMAAAAgeAMAAAAEbwAAAIDgDQAAAIDgDQAAABC8AQAAABC8AQAAAII3AAAAQPAGAAAAQPAGAAAACN4AAAAACN4AAAAAwRsAAAAgeAMAAADYc0lKABSPu5ukxAv//3Pn31dx60//PbF/gyZ4Mm+RrkHoTaV4gKG7wtBL73uV4HdC4VUk7GWVTW37RfHY+pV8avOotU9qaWs/LY2oMUoQP+OmZur6Qh0TteMKQluV7Wr+V5kF76SkMf/5v987+5eHPfDgmtl9/bnXe6gUvbV4+vrz6unlug8USY9Jt+ZCfWnTypY/UQ5EBTPeMZR3Pzhwuy1yd5HmiyTNLNfvf/RpN8x8ev2WT8lfPAMOADFT69J5iUDn1jW2fa67o+UzkvFzD8oea7yBEvDKU29oeXrdlssJ3QCwfU5xt8vr0u2fpRQgeAPYa++49NZpz6zf8kkqAQA75tInU1MWvppKgOANYK/86S9PzGUsAsBOmYLwfygDCN4Ahuw9H/l11Za+8FQqAQC7dMq4qZk6ygCCN4Ah+cPvVx8kVzWVAIBdqsi7H0wZQPAGMCR9mwfGUQUA2E2hjacIIHgDGBJXnr30AWB3z5lunDNB8AYAAABA8AYAAAAI3gAAAADBGwAAAADBGwAAACB4AwAAACB4AwAAAARvAAAAgOANAAAAgOANAAAAELwBAAAAgjcAAAAAgjcAAABA8AYAAABA8AYAAAAI3gAAAADBGwAAAADBGwAAACB4A9jFAKwY1UsVAGD3eBByzgTBG8DQHLRPzeOSQioBALuWC6yLKoDgDWBI7vnFeeuTFYk/UQkA2AXX0s3LW1ZRCBC8AQzZAftWX0MVAGAXzDMUAQRvAHtlyTVv/FFlZXAnlQCAQf02O2X9tZQBBG8Ae2XixNrwQx94+UUVFcEfqAYAvMgfPaFzdVdrjlKA4A1gr1383ukbr7v6tLeOGzvqixZ4NxUBAPWY9PnsQO6EnuUtaykHoiBJCYDScNyRB/U/dPu75v/mvmeuumLencdv2NDXtCWXnyAzozqFt6m3P9+zqb+fSgCF5k/Jg+WpvsrbV6++ZBP1AMEbwIh53avH973uxrfdLul2qlFUfWaWpQxAcTD4EEUsNQEAAAAI3gAAAADBGwAAAADBGwAAACB4AwAAAARvAAAAAMOL7QSB4golbaYMJYm35AEACN5AVJhZKKmXSgAAEH0sNQEAAAAI3gAAAADBGwAAAADBGwAAACB4AwAAAARvAAAAAARvAAAAgOANAAAAgOANAAAAELwBAAAAgjcAAAAAgjcAAABA8AYAAAAI3gAAAAAI3gAAAADBGwAAAADBGwAAACB4AwAAAARvAAAAAARvAAAAgOANAAAAgOANAAAAELwBAAAAgjcAAAAAgjcAAABA8AYAAAAI3gAAAAAI3gAAAADBGwAAAADBGwAAACB4AwAAAARvAAAAAARvAAAAgOANAAAAgOANAAAAELwBAAAAgjcAAAAAgjcAAABA8AYAAAAI3gAAAAAI3gAAAADBGwAAAADBGwAAACB4AwAAAARvAAAAAMMiSQmGoOG6UfXh5tGJylx+3fKWbgoCvNg+h16RGticSm4Mt2zRqrmbqQhQKpYk6ic/XSdJFvT5hq45G6gJQPAunGmtlbV9+xysMDzUXE0uTTL5gZIdIKlGslrJayVVSaqXsgoTUpiXUunMf/5Kr0vPmPSUTGvlWuuy5YFphcL8Cgsrl2189NL1FBvlamzj4vq89x0q+aGhW9oCHSD3AyXbT7KarePDx0qqlFTT1y8pkVMqkZSeGycbJD0l19MyPW3mq921QqFWhIlgeW/gy7S8pY9qA0MJ049P8SB5sMwPDqWDA2k/lybKNEGuCVuvX6qU1ih89r+XeP51bKOk9SbbECpca2aPm/Souz/m8mVKBP/sWd6ylloDQ2exO+KpmapUXsfI/GgPNd3MjpJ0sKREAT69U/KHJXvYA7u/p2/gvmLMBNY3tU0PQ/tjBDvzou7OlpkM671XN2neOK9IHmfm0901XbKjJB1QgI8ekPQPuT9sZg/nPf+73q6Nf5VaQ1oFeP6NcNvkgVCvMekYmR0j6ShJowvw0c/I9RcF/kd3ezCf0P2bl7esokUAgvc2bvWNC6fnQz/TAp0k17EFOjntjj5J97vbnYlAt2zsmPmQZE7wJngX3KR5o+sqEyeHbqebdJKkl6p0ngF5Rq673fw3Faafre+Y9SgNhliO0WTixDDQGeZ2hqRDS+jbLZd0p7vdkVTuVyxdQXlrDWrSYyZY6OMSyaBaknKuMZKZJFmogUTCeyQpzAe9+by6x+QrN6xefcmmGAfvJYn69JpTQuk8SW+UtH9Z3CJIj0r6sVw393St++1IzfIRvCFJ46Zm6gZyfo7M3urSqSZVl8cw0UOSfiQLbsp2zFxGSyK6liTqGp481c3fKelsSaky+NIDJt0j109zebtp02PNq2lHlJrqKfP3rwgqXpo3P1gKDzHZIQo1WaYJkvbR0Cae+rR1OeX6QJq1sbPl15EP3jUN819hlrjApP+SNLHMD6fTXd+qCPxbwz3DR/CO94U8lV5zpqT3SHqTpFFlfkC/l+naqorNNz7978uyw/mHxzTMH+OhxkWtB9Tkqtfs7szMsJ53Jl81VuobSz13bXTTooOS+dylMrugzK9leZf/JpDdMHpT3w+ffPIjvZyDd9H2k+YdWBlYVdSOa+OjczqK9+mtQV3jmOnuwQkmvSqUXmXS5JH8RHf/756uWT/Y0b8r/4crJ80bnaqoeIfkF0s6JkL9NG2mz+TcLk81tP8yDHx+b0fL7ZyWMNSTeUVl4iL3NRdKmhShQztOruP6+ke31TVkrvcgWDBcs+A5S8y0hD4Xtb6QTfS9RdLPCv25nhyY5Z64PGr17LH+MyXdOhx/K9XU9hoLbbaH+XNkFoXNDxImO82l0zZVV2Vq0+3fUZi7umflnH9yVt6xZEXyplA6NoKHVtCJ3rGNi+vz6jvTXW+QdIZvfbhYruLPOJftwE4dcuU+3l81w8xnSD4hwuMwkPmZgevMVDrzF5PmdU9Z9z3d1ZrjFIVdqWlsPyJwfUjy/3ZXZYQPtdZNH5SHl6TSmZ/J/Mpsx6zf0QNQDurSmWNC+ecV2mke3cOsN3mzgsTM2nTm13L7356u5rtofQybk1qTdY+Ofb0UvDvnfWepdJ7nK+/gXdt09b4WDlzmA/qAmVfHrFu93KVvp1aO/5jSmcuynS0/Y6RhR6qnZI5MBPqM3N+keO1eFEg6S25npdJtP/cw/CizayjZ69mU+YdbkPhfl95i8RmmZtLpMj89lc7cb6bPd3e03EJvwFClDrlyHx+o+qCt9Etd2m/rvHbpKpvgPaZh/pi8kh9VONAsqdZi3c38cEk/TaUzdwWBf3jjilkPMfQgSamG9sNk4eclvVVx3C50++v7myxInFHX2PaNvHtrb+fsJ+khKAlTM1V1oX/c3T4uRfqXqF051l0/T6Uzv3eFn+jpnH0PnQO7q37y/EZPBh8JB+w9pvKZiC2DV8YvSdQ2ZC7JW2KZzD8uqZbu9qyTwtAeqE1n2jVp3mjKEecT0FVja9OZNpn/VbJzCd3PTS642wcCBctSje0XUA4UW216wQmpvP7sbpfHPHQ/33Gm4O5UOvPTuqZFUykHdjqGpmYm1KbbM2Ei8U93+0CZ7MhVHsG7rnHB0an0mofM9DVJE+huO25Dk2amKpIP1ze2v5JyxE+qsf2CMJF7xKQWSRVUZMenE7lfm2psv7l2aoZzCQrvpNZkqqFtnim4S9JhFGSH3uxh/u+pdOYLEyd+pYZyYDvTWitTjW0ft7yWm7y5XG9cSzN4T19ckWrIXOYe/F7Sy+ltu+Ww0P2+VGPmfzV9MeErBqqnzN8/lc78RO7XShpPRXaD+zmW199T6fa3UAwU7K5v0rxxdSvH3SqzOeLXqF2pkvSJTdVVf69PZ15POSBt3S66dvO4++T2RUl15XwsJRe86xoWvCq1vu/PMv2vmL3bU0m5Lqtb13fr1j1zEdH0aKl0+4WJIPFPSQTIPbev5D+uS7d/XnJCEEY2MDS2H+EVFQ+6dCrV2CMNofTLVEPbtWMa5o+hHHG1JFHXmPlMYIk/muuoKBxR6QTvhutGpRrbrnALfi/XS+hsexHLpFPCRO7+VOPCQ6hGtIxtbJtcm26/VfJvSKqnIkNmLv9kKp258YADFldTDoyEusa2MwP3eyVvpBpDG6cyuyBnib/UNmROpBzxUtt09b516TW/dNf/SEpE5bhKInjXNS2amrLsA3L7aJSKW2SHyMP7axrbTqEU0ZBKt78l5/ZXk06nGsN2XT83W9V3z+hJ8w6kFhju0O1uN4sNAYYhfWuyme5INbR/kaWUcQndbS9VOBDJX4qKHrzrGtvO9DD/gKQj6GrDbmzgdmsq3fZ+SlHOWoO6xrZWyX8sZrlHwvRkRfKBmob5r6AUGJbr2pT2N2wL3VVUY9gkZP7x1Lq+21KHXLkP5YiumsbMqRba70b6te4xDN5utenMp9ztZ5JYjzxyKiT7el1DpoVSlOGdU+Pi+lR67E+2bT3GeuSRc0Bgid/UpTPHUArsdegO/EeE7hFzogYqH6xJZ9h4IYJSU9rOCVy3KMKTTEUJ3uOmZupSje03m/Q5lcVe4mXP3NSWamj/KKUoH7VTF07Led8Dkr2JahTmPsel21JN7cdRCgwpNKQzx3vgzHSPvIZA+n1tuv08ShGha15j+7kK7P8U8f3tCx566yfPbxzI2/1ynU03K3j8vqI23f5pClEWF/A3Wz68TxIPyBZWnUL/ZW1D+0mUAntiTMP8Bkk/lDSKahREjcn/b+vuRK1M4JX7Na+h/Wxz/4FisJtdQTtrTcP8V4SJxO+3vfIcxcje8s+Gof0PlSjl0N32fkk3S0pRjaKolfktkp9AKbA7JkxbVJu3xE/Ei94KfknbujvRuJt5e3MZn3DTC06Q+fclJeNwvAUL3rVN7a8LLHG3pP3oZkXH3s8lewLKfEqyr8flBFS6N6iqNtlpVAK7lAhty+b89ZJeRjGK5qxURfJXYxsX8/B5malJL3iZKfiJYvRLUUGCd2pK2zkW+i9U5m8bAkaOW20607btuQceogTKZeS6fYqlkyXh+AHvu7O26ep9KUV5qG26el9T8DNJY+J03CMevFMNbWdtWyzPwybAoKG7fYFJ7DwDlJ9XU4LSYNKRFg78tvqg9gOoRombvrjCwv4bo7plYNGCdyqdebPMlohXvwOD3/U3ts8jdAPAsDgkkfQ7atILJlKK0lW3rm++ZLF8jmbEgnddQ9sZkm5SxLeFAfby5vTL5ppNJQBg2BwWKLgtdeDC8ZSi9NSm289zaUZcj39Egnd9Y/sr3exGQjews5vTzGxJH6ESADDsjvCq8Nf7HHoFu0OVkPop7WmTXxPnGgx78K6fmmkK3W+RVEsXAwa74287301fpRIAMDLMddSW/tE36qRWdokqBSe1JsPAf6AIv5Wy4ME7dciV+4R53SqJp4qBQUP3ghNM9h3x1lYAGNnwLZ2eWjnuaipRAte+lWMvk3RM3OswjBf+JQkbqPyBpIPpXsCOjW5adJApuEns8gMAhfL+VGPbxylD8dQ0th9hMt6cPZzBO9X4xBddOoWSAoOYmqlKhvmbxNvtAKCw3D6/bdMHFCNsul8nJpyGL3inGtrPlhsPiQE7Gyd5LRQ/swFAcbKf2ffqp7SnKUVRTKcEwxS866e0p2X+bfG2PWBQden2d0l6P5UAgKIZGwa+RFMzzLyiXIN3axAGfp14FTwwqNFTM5NcnqESAFB0r0zl/EuUAWUZvGvT4z8p6UTKCAx+c5rM63pJY6kFAJQAs1m1Te2voxAoq+Bd39Q23eQ8oQrsRKph/IclnUQlAKB0so+Ffu3YxsX1lAJlEryXJMLQFkuqoITAIDenk+c3yryVSgBAyZmSC/vmUQaURfCua3hypnhCFdipMBG0SRpNJQCgBJkuqG1oP4lCoKSDd03Dov3c/DOUDhhcbbr9PMneRCUAoHSjt8kXavpifr1H6QbvwHJfkcS6KGAwk+aNDuRfpRAAUOrRW9NS6/paKARKMnjXpBe8TLJ3UDZgcKlkssWlg6gEAJSFy2ubrt6XMqDkgrcp+IqG8TXzQNTUT75qrEwfpRIAUDZSFg5cRhlQUsG7tqn9dSa9npIBgwsT+U9IGkclAKCsXDq2sW0yZUDJBG8L/X8oFzC41CFX7uPyS6kEAJSdUbnQLqcMKIngXZfOHCPeUAns/OZ0oKLFpGoqAQDleBLXu5n1RkkEb5c+QamAwU2c+JUal32QSgBA2arIhZpNGVDU4F07Zf7hkt5MqYDBbR5ddZGkfagEAJQxs4vqJ181lkJgpCR3Hc2TH5ScnUz2TF6uLgVa5vJlcq0NLNjkHva6tMFco102yqQxko8xs6bQ1GSuqZLqKF+5cXNrZ7Z7CPcrkpaZtMylLrmeMVOvmza5W9YU1ptslLtq3HSASU2SpkpKS6qkfIiZbjctD1wr3NShUOtdttEC9bmrx+RjzK3ag7BaoSbIrFHSYYyXPVYbJgc+IOlLlAIFD94HHLC4Oqu+d1OmXeqXdJ9Ltweu27tr1j2spa39QwlwtU2ZafLghEA63t3PkDSG8pb4Wbpp4ckKdQiV2KV1kt/pZneYgjuyHTMekcz3+K80XDcqZdmjXX6CpBNNdvJuTSIA5eUZyW91t98pGfyuZ/mMfwxpvJzUmqxZOeYlCUuc4u6naOvzWrWUd6eX4ouk1iuk1pBioKDBO1vZdz7Bb6cekPybVZVbvv/0vy/L7v2fM+9Zob9L+rukqzQ1U5XK2RvM/B0uvUVSFSUvPUHolzhlGMyAXD8zt290r5z4a+n8/HP/aubQ/mLXBVuy0m+19Z8vpA65ch/PVZ1v7u+QdBwlRxnrlXSzmf+ge+yo2/TQJQN7PV7uas31Sn/V1n/ma1prZe2mcW8x6UJt3SKYX7RfLF2f3ueUjZ26jVKgoMFbposp0YuE7v4DN7+it3P2XyUpO1KftLylLyv9WNKPqw9qPyCR1BzJL5GUohlKQ23T1ft6OHA2lXjxfbuZz8u7X93bNfvJEf2gZR9+WtJVkq6qa1xwtIfBx2Q6m0CBMvK0uy20yr5F2/rzyFna2t8j3STpptFNiw5KhmGL5DMkjaYZnuMKL5II3mWqT9K/JD0i9+VuWiVprTx4KpEIs3mpLzEQbnr2P10RjA1ziUoFPkEK9zXTpDDUwWZ2sKTDNcy/EA0avOuntKdD+bG03/NHov0iNP9Eb9esvxT6ozc91rxa0kfqJ1/1xa0vafFZkipolGL3iYFzxfrJ7U54brpagb6YXT5rbaE/vLtj9oOSzk01tB+mwOfJ9QaaBKUb7rRJ0pdqNvXNf/LJj/QW+vM3r5jxmKSPjJ40b0GyouJ/JH+fWLb1n7Y5K3XgwvHZx2c+QzVKXlamO8x1h6QHuqvX/Xloy313ZEmitumJw82DoxWGx5vZqS4dNCLBOzSdJ8loT0nSE2a6qLuz+ZZif5GNj166XtJHaidnrrOkFsp1Ms1TPOY6nyo8e6W61xKJ92ZXzFhe9LNwV/O/JJ2Zamg/W+YLJE2hgVBaJw/9OOnB7A2dM1f2FPmrbF4193FJl9Q0ti8092+bdCQNpEpV+tmSvkkpSlKvpJsDBddvrH767uEL2i90fv55S4Cvk6RU48JD5OFZkp0r+TF7mpWDnSQKAsXWat6o/uCI7o6WW0rpe/U82vKPbEfzKeY2W1sf7kSB1TQs2k/S8VRC/TL/RLZrvxO6SyB0vyCA/7iqcvMRLn2XZkKpnL5N/p5sR8s5GzpnriypJNPR/Lee6nXHmuwLknI0lb+NGpScLpO3jKpO7JftbHnPxs6Zt41c6B7kutIxc1m2s+Ur2c7mY3NBYopLn5asY6+Cd/3k+Y2Spse8cXNuurS7s+X80v2pyby7q7ktMDtuTxodw1T9IHyrpETMy7DGpOOzHbO+tP2Dk6Xj6X9flu3pbHmX5Bdp6xaGQLH8VW5Hd3fOur5kv+HS1v7uzuZPucJTJMV9mcUpdZPmjaPbloQnZLowO2Xdwd2ds9rXLp3RUwpfavOKGY/1dLZ8Pts5c2poOk1uv5Dkexy8PZE4M+YNnLXQ3tLT0XJ1OXzZjR3Nf7SBgaPlupexWcDgHeqNsS6Aa2nC86/u7mx5oCwGdeesb5iFJ0paS+9F4ceL/aJ6U99rti2DKnk9nbPvkQWvkbQ8xq1W4cnkW+i8RZWX+ZdHVScOyXa0XKu7Wkv0lxjz3o6W27NdzW/0MD/NFPx5z4L31i2G4urJ0PMndK9svrWcvnT3qrnrUv1Vp0n+c8ZpAUzNVMn8xBhX4O6E8q/d0DWnq6zGScfsB2XBayV10YlRQN/Jjq88uxgPUO7VzWrHzGWq6H+1pAfi2nAW2Ol036J5RGFwfLZj1mWlMsO9WzetK+f8c2c32C8O3tNaK6XYPrC3IZRO7+2a8+dy/PKrV1+yKTtl/Tnu+j7jdWTVuh0nqSamh/9AVeXmN2/omrOhHL98tmPmsnzOjpO0jJ6MEQ9u0qJsZ/P/235P7jIaL8s+/HSQT54h6S9xbD93P1VqZWvSwlf+5xUJvTK7cuZ9UTuyF3Wm2t7xr1E832rVq8Df2NvZUt4nl7tacz3jq967bZ0RRupi6mFcZ0H+rv7gzOF5YVTxbHqseXVCwetl9ji9GSMWHaTvdneuaxnSGydLyMZHL10fKjw9pjer+9Q3jj+K3lzAcWNakO3c/+x1y1u6o3h8O7iL8xNi2M55c39bdsWsaKyRfuiSgVR/5Xms+R7RM0PsxolJj+VzdnpU9rXd0DlzpW/9GZl9ejES54hf9IyruiAqrx3v7Zz9ZNL8NElr4taUoXQqHbpgF5orejpa5pTqw/ojErwtUPxemuP6ZHfXrF9G6ZBWr75kkyd1tqRVjORhNjVTpfjtc9sn6W3bXuQUGT3LZy4Nzf9LUp6OjWH0SFXVpreX6/KSwazvmPWozM+TNBCr1nR/DV26EPeq3pbtaPlY1I8zeOFhy/WqmDX1D7NdzV+O4pH1LG9Zq8DeHruT5Airy4WvkFQVs8NuLpfdS/ZUb8esO9ztc/RsDJMtoXReuS/HGky2Y9bvTJobszZ9Fd16xN3S07H/h+JwoNsF71S67RBJcdqzcnXCw/eX+/q7nZ4kVzT/Xm6fYkwPp0S8fhVy3ZztbLkmyofY0/XM50y6nb6NvR4uprll/6zQLnR3tiyM2XNE+257vwlGxiNVlZv/O8rLSwYN3mbBK+PV1vbBct2ZYY/Cd9fEr0p6iLE9XBfWME7jZF2oxIzoH2ZraKFdLF6wg727Sb23p6P5a3E41Fwi+ICk7tg0bTJ5LB18RAyY9K6o/kK0y+DtrpfEJnJLS7KdzT+Nx9GenzcLPygpZIwPx7XVpsXn3tQ+3Ns1IxYPU21c2dzp8i/QwzHULBqaLo3yL6jPt3nFjMdM+mR8zvvhy+niI3GJ8S9GdRnjbgVvSXEJFP0W2sfi1NDdHbMflOwbDPO91RqYdFhMDvYv2Y5nvh2n1u1J2JWK95v6MNQAIf961JeYvOi6Mq5qcWzGS4wmJguos7s/f0XcDvqFwfsl8Rg/+trGlc2dcWvspIVfEA9a7pW6pgmNkkbHIkiE9vGobIW225a39Mn0JXo69tBAwhS7AKGHLhlw90/HI3jb4XTzYRb6h7RqbuyW9z0XvLdukRaHhwf6XOEX49jH13fMelTuNzDa9+LcG+bjcvK9v3tl861xbOPs6HU3uPQovR17cJv6vfUds2LZZ3q61i+R9Ej0m1hpTZo3mr4+XPcxeji7suXHcTz2Z4N3XeiTJSVi0Nw39nbOfjK+3T34siRn2A/x3OtKx+I4zdpj28hLW/sD13x6O3b7qhKEV8b36FtDM7s6DhfPmsqKqfT2YbrG5P3zcXkeYtDgnZcmxyM4+cI4d/ZsV/O/JN3PsB/qXbodFIPDXNM9+pmb4tzOYVLfFcuysDvnBOlPPStm/T3WISqX+JZLm6J+nAn5ZHr8sHgkrrPd2wXvQEEcOtS/u7tm/yH2d5rS9xj3Q61dLE6839PS1v44t3PP8pa1cruNHo/dOCfE/ny68dFL15s88kvTwjAWEy+FcE1cZ7u3C94eehw61A/p71IYVCwRr8geEpeiP07Mf0RLSxYQqLDrU0IuYT+gDJJJP4n8MZoTvPdevyf0rTgX4LkZ78D3j/zBBn4zfV7qWfHBpyT9mUoMyQERP74nsx3r76WZpbyHt4vnIbBzj2xe3rKKMkgayN+i6E/oELz39k5VfnfP8pa1BG9Jchsf8WPdsHHF+j/R7f/T3PotVRiSSI8TM7szdlsIDmLbQ9jLqAR24h5KsFX3qrnrJC2N+GFOoKX3NnTaT6nBNqF8TMSP9X4CxfMCVt65YOypk1qTkmoifYyh/4GG3m6k3E0NMGjvEBMYL6hIxB/ct7G08V6GTs//nOD97Akk2h3K3djJ43kSFjL7v4dqV40bu/VaG/UbVDx73jD/M1XAYPKe/ytV2E7EX/3tBO+989cNXXO6CN7P9idFvUP9iz7/nA1dBz4mqZ9K7D4Lg7HRPyHkGSfPv0H1gNfHY1BVyUQHVXheLFU+6i/SIXjvVf/QXVTh+cHbov0TemDeSXM/3/l5SdRkD+TzYU3ED3Hdhq45G2jp5zf6wAqKgEE8tW55SzdleE6FWVfED7GeVh46M/2FKjw/eEuVUT7QMKjoorlfdPe5kirsvmSgikj3BxNj5AU2Nm58VOxsgh17lBJsb33H/o9LykX4ECslN1p6iIHTnOAdp+Ddc9CT62juF9x9SszW7NmNSlWkTwYuxsgL3dWaUwzeyIchnUCzFOGFzs9LEa/LtM9U0M5DktuYr1tKGeITvPu2XUCx/ZWjlxrsQfAOLNoz3hL9YceoC3Y0YLghi+F4mfh0DcF7aP6prgu2UIbtg3cywsfJCXJHsVveQxX2YLDkI77UhCAxWMBiZhM7OH9yQxbH6+2WqppKmnhIA4bnZXYQvMNINzl2lCioy550IrNI7wMfBEZ/2PHZI6AIePH9GP1iN3JF5IT5kHYfymk01BNU4cUDJMpLMapp6h1dOKyWKuy+vPtApPuDO+Nkxxgn2NENWQ1FiN94GTXG+mjiIdywmFZThRcH7yjv6Vyp6YtZl/XiqMWFY0+uswlFOnibCBI7vkGlLtjhnSr9YsciXZe1Wsv7L4ZyfSF4xy54q/qp/gk094sCRR1V2IMTh+f7I94fGCMvNH1xhUmjKQR2cEZgT+cXarhulKI94+1aevkADT2E0SJfQxViFrwTlUrT3C8cCNZAFXZf3hX1nxgZIy9QtyE3RTwjAsbLbkmppyHi42VAMvb1H0reyCcI3i8K3qYNkW50d0LmdpYkJE2hDruv0mxDxA8xlTpw4Xha+vl3W2ETRcBg92W1UzP8SrTddTbyNyPscDREYZBjF6AXBW/X+igfqIf+Upr7OfWTH5+iiL80abglKrasj/oxekXIONnuYiGCN3YSNP1gqvC880cQTov2AUZ7gnJEr5/uPJT6ouCtiL+1zuzVNPdz8onEUVRhzzz978uyUsQfsAwYJ9sHq5BxgsH7R6jpVGG7E8hron18vN13qAZUyctzdhC8oz3jLR2tk1qTNPmzjqcEQ7Ih0kfnTvDe/kp7AjXATvoH59Htzx/HRjxHELyHKBmyDeMOgrc9Fe0bVVXXrhzzGpr8Pw1PoBjimfepiB/hCZrWyhIkSdVT5u8viaUE2FkQO4EXkW1V29T2Ukn7R/q6abaelh6amlyC4P3C4G2uVZE/WrO30uRSTcOi/Vx+BJUY0h3cYxE/wjF1vWNfR0NLySBxGlXALkysn7LoSMogKQzOifyNlvvjNPTQrF49luD9wuAdBv5Y5I/W7RxmJ6SE8udLStD9h2RV9IcJN6hb66C3UwXsOm+G76AKUiBF/rxhbo/R0kN1fp4avCB4Bwoj36FMmlyfbo/9LJabcaEYau1ccTjxvn3c1EysX65UOzUzQa5T6fHYDf+9bXvW2KqfsvAol78i8ud/aSXdHcMWvPOuR+NwwKG8Oc4NnmpoP0zyY+j6Q755i8M4SfWH9q5Ynxhz9g5JFfR47IYD6hqfOD3OBQgDb4nFeSGIwZJcFC5493bOflKKwx6VdmZd06KpMT5FflS8iW/oPPh3LG4wXDOl1iCWbTx9cUVoPpfOjt0+Lbh9LK7HXpNeMFHy/4pFO/cPdNDbMWzBe2uv0j/icMxhPveZODb26KmZSTJ7J91+6CoqwqWSYvDKYD+8Lj02ln0l9UzfO02aTG/HHjg+lc7EcmvBhIJPSxoVg0N9onvVXLYTxDAHb9PSOBy0mb29pmH+K2IXGkP/pHhb5V5Zt7ylW1Isnmx32Wc1NVMVqwae1lop08fp6RiCz8bt4f36yfMbXbooFrlBsZiYRKGDt3lsOlYQBIl5cTpJ1je1TXe3i+jywxFIYzNOGlI5zY5T26Y2j58r6RB6OYbgpLrG9lg9uB4mgi8rJpM5oYzgjeEP3qH0pxilp5NT6UxMgmhrEIbBIrGF4LAwi9E4MbWm0gsOjcOhjm1smyz3T9HDMeTLiuurYxrmj4nDsdY2tp8r2bkxatyl9HAMe/AeXZN4SFKM9lq0r4xuWnRQ1I+yrmFci+SvorsPk7z/IUZHO0oKvhn9By1bg5zsa5Jq6ODYCxPzFrRH/SBTBy4cb+6L4tSwoesBujeGPXivXTqjR9LfY3T8dckwvyTKr8iua1xwtJuuoKsPY+5WeH/MDvm4uvTY1kgHicaxl8n1Bno39p69K9q/prYGqvDvSJoYo0bt3ZRe9zf6NoY9eG89ZyhuoeLY2k3jr4zigdVPvmqse7BEPFA5rDatnPOEx2M/72e57JOpxoVviuKx1aYXnCC3z9KzMYzaovoAf23DuE/J/MyYteeDuqs1R7fGiARvc/993Ipg8uZUY+Z9kTqohutGhYncjyQ10M1HJInGbZwE8vD62smZl0TpoFLpBYeagpskJenUGEajgyD58zHphVMiNV4a2s4y0+XxO9/bfXRpjFjwznvyNsVin+IXBamv16bbz4vGwSxJpKz7Bkkn0sVH6GYtsNtieNhjLKHb6qe0pyORjCbNO1AKfilpAj0aw39N8QPzCm/f+oKZ8lc7pe1kmf1gR7kh8kHJ/C46NEYsePd2zVgjKY5rmRIm/05tU/vryj50N675RqyeNi+CXP/Ar2N66AeEgf+q3MNETXrBxGQy+SvxixBG1lSz4BepQ67cp5wPoq5xwdEW2E8UjxflvNDmjQO539KVMWLBeyuLa6gYZaH/uD698LSy/PaT5o1ONa65Sa7/R9ce4TPxqrmPyxXX7aUODhTcPnpqZlJZhoimRVMDJe6VaRo9GSPNXEdpoPJ35brsJDVl4avdg1slpeLYfi7do1VzN9OTMaLBO7TwlzGuSSpUeEuqIVNW4bVu0rxxqYrkbXKdTbcu1BVVcR4nL02Gdn9NOvPyshonjQuO9jD/e8kb6cAooEPzCu+tSS94WTl96drGzFsVhHdIGh/b07z5r+m+GPHg3Tt5/d2Sno5xXSpkurYu3fbZcti/uK4hc6xXJB+WdBxduoAnZNdNsS6A+4GBdE/dlPay2IavtjHzQffgHkn70ntRBAeYgvtSje0XlMHgtlQ68yFz3ShpdLybLfFzui5GPHhv2zbnR+Qq+3QqPfbO0n2YbOvJ0U33SJpCdy6s7q7mP5j0WMzLUOeB31Kbbs9o0rySvECPbVxcX5fOLDHXVYrnGlWUykVFqpb7tal05jsTpi2qLcXvWH1Q+wGpdPsvJF2pGD5I+QJ/yXbMXEbPxcgH763/4ibKI0l2Qhj4X1Lp9gslt1L5VvVTFh6VSrffu+3kWEE7FefezN0ZJ5KZvDlVkXy4rmFBCb0h1a2uMfPOnPf906XzaCaUkHdv2ZT/Z6ntpFXXmPnvRNL/JukMmkiStIQSoGDBe+OUdb+R9BQlkiSlJP9Gbbr9obqGtqKekKoPaj+grrHt6jAIH5B0LE1T5MQp/z+q8KzD3IL76tKZ/0s1LjykqAEinTkmlc7c5a4bJO1P06AETTL5krp05rbqKZkji/lFatMLTkilM/e663uSxtE0287vQYLgjcIF723LTb5NiZ4fsnSkm92aSmfurGvMvFFakihY8m9ceEgqnbkmkfQOd/uApAQtUnzdXbP/IOnvVOK5YeLS+fJwaSqd+XqhHyarT2den2rI3OHSHyQ7geZAqXPp1ESgh1PpzK21DZkCvnvBraax7ZRUOvNzU3C3pFfTGtudyv7QvWLGcuqA4Zbcxe3eN+Thh7dmTjzPSe46KZVes8rUdp1b4oaRWAeWOuTKfby/6m1m/nZ5eLxYb1eiN2T+dZdlqMSLzi0XBQouSqUzD0r+DfUnfph9fOYzw/1BtVPmHx4kEm9319tD6RDOVihTZ5jpjFRDZqmbfz+RD7+/8dE5HcP9IWMa5jfkLHinaeH75MbuPoO7hhKg4ME72zFzWSqduVvSSZRqhya57NPy8NOpdKZL8jvcdXsQ6KHuyes7t/1qsPtB+8CF460qPNZDf63MjteAXmXmvMq61IN3vuIGT+SuUOyf/h/U0ZIdrcrw6lQ68yeZ32Fh8JuB3MDfN6+a+/ie/Sm3+ikLGzzQcW7+WrlOlHSYO0VGZO7kp5ns82Ei8blUOvM3l90t6bf5gYF793y8LEnUT358Sj6ZPDJQeKq7nZKXDt56b8qg2Ynu6k1bfpClDih08N46NP1qkxG8d61BsgvNdKG7lFo5bkDpTIfkj8jsaXP1uqlHsg3mYbXLRklWb/IxLjVJapLCMe6SjCm7crLx0UvXpxoz/8eLi3YpkDRdbtPd/KPJiqRS6UyPm5ZZqC6ZnnFTb+DW6+5Zyeo98NHmVi2FB0hBk9SeDv+zMwm5AVGP4NLLTP4ySc3bxkuvpOVyrZDZ05JnTdrsrh7Jx7gFNeZeI9M+Mk2Vr2kKlagydzk/Be1+4V3fffLJj/RSCRQlePd07v/DVPrJDl44sccqJB0q2aHybRlh2/947gToZIeI8CC40vLhe8WyrD1Va66jZDpq2wVv66iwrePDnh04RtIGpBpJL5fp5f8ZD/6fiC6TPTt2GC57czoPE34VZcBI2Y01w+fnXeE8SgXs5AZ1+cylkt9CJQCgrP2sZ8UsHphHMYO3VNc36jpJaykXMDiXf4UqAEA5pyK/giKg6MF79epLNsmMWW9gJ3o6Z98j+T1UAgDK0t3ZFbPupQwoevCWpGz/QJukVZQMGJzJPiJWVwJA2fHQP0MVUDLBW6vmbnbX5ykZMLjuzpYHZPoJlQCAsordP+9ZOetO6oDSCd6SehrWfVPSMsoG7OT0ndMnJeWpBACUhXxowScoA0oueOuu1pyFNpuyATu5QX205R8uYzsqACgHput7O5r/RiFQesFbUvfK5ltl9iNKBwyuMuGfkrSaSgBASduYz+eZ7UbpBm9JylkwS1IP5QN2bN3ylm6TXUYlAKB0ueuyTSvnPEElUNLBe/OKGY9JaqV8wOC6O2d+16TbqQQAlKT7errWXUMZUPLBW5Kynevms2cxsDPmA0HifZI2UAsAKCl9HvjFUmtIKVAWwVtqDRMevldSN2UEdmzzihmPmayZSgBACTH/BK+GR5kFb2lD15wuyeZSRmBw3Z3NN5h0I5UAgBLg+k22Y/0CCoGyC96SlO1s/qbkN1BKYCcDzfMXS1pOJQCgqNbnEon/xxITlG3wlqTsQP5il/5EOYEd29A1Z0No9laXNlENACiK0Ezv3rZBBFC+wVur5m4OgsT5kjZSUmDHejua/xaYXUQlAKDwXLq8u6PlFiqB8g/ekrpXzFhupneKV2UDg4+TjubvuWkBlQCAgvpJT2fzFygDIhO8t4aKllvcxA4OwE70dKz7EG9/BYCC+UtFQu+RzCkFIhW8t4aKlqslu5LSAoNpDbP9A++UdB+1AIARZPZ4Lki8ed3yFrY+RjSDtyRlO5+5zN2/R3mBQayau9mDirMl/ZtiAMCIWO+Bnc7DlIh88JZaw56G9e+V62ZKDOxYz4oPPpVL6FTJOqgGAAyrXkln9SyfuZRSIAbBW9Jdrbns+Kq3S/oZZQZ2bPPyllW5IDhJUhfVAIC959ImD+wt2c6W31INxCd4S9JDlwxkPXW+3H5BqYFBwveKGY9ZkDjNpUepBgDsXehWYG/uWdH8G6qB+AVvSeq6YEt2fOXZZvYDyl0yp6YfUoPS0r1ixvJ8kHitpH9RjZKwRRL7/QLlpYfQDYK3JD10yUB3x8x3sH9xCTB9Kwj0JQpRejavmPGYDeSOk3Q/1SjunamZ3u+0A1BO1ikMXk/oBsH7ucTnPR0tc8z0WUnspVmc0H1ndvS6SyhE6epeNXddRUKnu/RrqlE0n+ruaPkuZcBuukZSP2Uoqi5Z8Orsypls0QqC94uCRUfL5SZ7j6Q+yl/Q1P3PIJc8V0tbuUCUuHXLW7p7Ovc7U9JXqUaBuV+X7Wz5IoXAbp9ZQ/uRLDiXa1rRPJjP2XHZjpnLKAUI3oOF787mGxTYKZKeogkKYk2Qz71p46OXrqcU5eL8fLaz5cMme7e2rjfGSAco6fbs+FH8IoQ9lu2Y+XNzO0vSZqpRyBtlXZv11AmbHmteTTFA8N7ViWpF8+9zA7mjxNv7RtqTnghO3fjoHPaKLkPdnc035EO9RtJKqjGiV/B7qqoT5+ihSwaoBYY0Vruaf+UKz5CUpRojLifXx7JdLReq6wImJkDw3l2bV819PFu97iSTX0VTjIjVUngiLxAob5tWtvwp9MSxct1LNUYgcstvyw7kz1i7dEYP1cDe6OmcfY/C4HTxa+7IXtcCPzHb1XIFpQDBeyiWtvZ3d86a4bLzJbEUYjhPThacnO2czSvJI6C3a8aabM26k2X+ZUkhFRmu0K1f9wzkz9KquSwRwLDIrpx5X8Lzr5L0N6ox7CP2nnyYf2V2xSwmIUDw3vuZguYbc0Hi5TLdSbPsLesw85N42CRilrb2ZztmXeahnyppFQXZaz/t8RShG8NuQ9ecrqrKzcdJ/nOqMSw2m9ncbOf6kzetnPME5QDBe7hG1ooZj2U71p1qrlmS+Nl3SBMC+o367ZjujlmPUIxo6lk5684gn3yZXNeKrTmHNkrcvpTtXHcO60MxUp7+92XZbOf+Z2vr7kSM06H7nZm/vLujeb7Uyq99IHgPv9awu6slk/D8EexlvKdpQguzDetOzz4+8xmqEW0bH710fbar5cLQ9HpJnVRk9+/vzfTObFfzJ7iIY+Rt253I9GZJT1KPPbqebTK32dnOdScykQSCdwFs6JrT1dPZcrrLznfpUZpq52FC0sU9nS3Nuqs1Rznio7ej5fbsQG6amX9GbGW2K11B4Md3d7R8n1KgkLo7Wm7xhI6Q6cdUY3dCt98WBImXd3c1t3GDDIJ3gfV0Nt9Y11d1uJk+69ImmuxF7rIg8bJsZ8s1lCKmVs3d3N0xqzXh+ZdIukn8rP1CoUuZUdWJIzaumPUQ5UBRrmXLW9ZmO1rOkelCSRuoyA79W9Jbejpnvb57xYzllAME7yJZvfqSTd0dLZeHYX7qtq0HefuitNFdH8h2Nr+OExSkrb8SZTtbzjMLX2XS7VREkuyfCvz4ns6WWWwXiFKQ7Wi5Vv3BVJcyktg3XpLMHnfTpdlxVUdkO1t+RkFA8C4Rm1bOeaK7c9aMIJ8/XNI1iucregck+3puIDetp6tlsWTMbmI73R2zH+zubDnNQ3+dSXfEtAxrJf9INuFHsvUYSi58Pz7zmZ7OlllmPk2um2NciifMbG62f+Dgno6Wq3mBFeIgWY5fettbGC+uPqi9NZH02ZIullQf8bbKS3ZDkM99lrdQYnf0rJx1p6Q76xoXHO1ul0l2tqRExA97vcu/Oro62cYMN0r/JnnWI5LOrZ+y8Ki85T9kZudJqoj8gZv+Iemr2UDf1fLmPnoCCN5lYtNjzaslfXTixK98ZlN11TtMdqnLXxGxNtoo6ZtBPr+IwI2hXdxnPyjpbaObFh1UEeYvdun9kvaL2GE+Yq6FyaS+tW75rG4SN8rqJL9y5sOS3jl6auayZOjNcrtA0oSIHeaApJ+EpsW9Hc138Gst4sqidkD1TW3T827vMtfbyzlcuPQnyb85ujr5bWbuMKymL65Ires7w6R3ufRmSaPL90LuvzKzr3V3rLuV3Q9KW11jW6u7XR65i2hoZ3avbL51WP/otNbK2s3j3mSu90k6Q+X9S9VDkv8g9OQNvV0z1jASQPCOrCWJmsY1J5vrLNsaLqaUQdpeYabvh2H+ez0r5/yT7omRNm5qpi4X2pvkfpZvvcDXlfhXDiXd52bfs2TfkuyyDz9NK5aHVLr9Ccmj9kuLzDWnu6tlwUj9/Zr0gomB7CyXvdWkkyVVlsEY/YPMfyYlfsgblIHYBO8XnrwyL0+Yvc7dT5Z0gkpjTfgWl+4JzH4Z5nO/JGyjqKa1VtZuGf/aIPSTfesF/hiVxnrTp93914EFt4ZB8tc9Kz74FI1VhsG7oT0n88g9Y2ChPt29suXzhfisMQ3zx+QseVpg4evc7WRJh5ZEEVwrJN1t5neFQeWvGKMAwfsFliRqm5443Dw42jx8pbu9QqbDJI0bwQ8dkGy5FD5k0gNye7BbqT/zymqUqgMOWFydHd1/pOX1ytD8aJNeuu1CP2oEP7ZH0j9MelDSA2GYf7Bn5cZ/s4yk/M+5qfSaSL7cy0L7XPfK5v8pxmePnjTvwERF8tUmHSnpqG3/7DuSEdulx0z6h8kectcfc7mBBzevmvs4fRwgeO+x2qar97Vw4FCTTXH3A93swEC+XygfY7Kxco2VmUleq+dmArsly8t8i9yyUrhWrrWSnjQFaxSEj8iSy7oPWtvFWyVR/lqD+sn1DUokpoamSR7aQWbhQbJgnNzHShorWWrbNXrsfy7Wkm3Y9r9mJWVlttZCX6NAa921yt0eCfNatu2BaUTMhGmLardsymejeGyB2Zc3djRfVirfp37yVWOVzDflQzWZeZNLE+W+j0wTZDbe3MZsG4s12rpsZYtkm12+0aQtJvW6WdbdN5m02lyrwkCrPMx31PdXL1u9+hJeZAcQvAEAJTupMTUzwfKK5PIDN2vr6WieTSsD2K2bdUoAABhJyXxQHdmLaBhW0cIACN4AgJKQdx8d1WNzJSppYQAEbwAAwXukg7cx4w2A4A0AKBGJpEV3qYmMGW8ABG8AQGkII73URMx4AyB4AwBK5ELj0Z3xNjnBGwDBGwBQGtwV2Rnv0JnxBkDwBgCUCFN0l5pYINZ4AyB4AwBKgwfRXWoi1ngDIHgDAEqFRfjhSjlrvAEQvAEApZJNFeUZ74ClJgAI3gCA0mARfriSXU0AELwBACXDgyjv420EbwAEbwBAaTBFd8ZbcpaaACB4AwBKJZsqwmu8WWoCgOANACgdEZ7xZqkJAII3AKBUeKT38U7qpNYkjQyA4A0AKIErTYT38ZY0Ye2EUTQyAII3AKD4XJEO3pu3BNU0MgCCNwCgFEQ6mCbD/GiaGADBGwBQCiIdTPPuBG8ABG8AAMF7xC+k0X54FADBGwBQRiIdTMMkM94ACN4AgNIQ7RnvkBlvAARvAEDRuUmK9HZ7oZjxBkDwBgAU26T5oyRZpG8tIr5dIgCCNwCgDKS8MvLLMCwQS00AELwBAMWVGx1GfjbYxYw3AII3AKDIkmH03+poHjLjDYDgDQAortDjMOMdMOMNgOANACiuRAwePDQergRA8AYAFFuYiP4e1x6wnSAAgjcAoNgXGfcYzHjzAh0ABG8AQJGFsQilzHgDIHgDAIp+kYlDKHVmvAEQvAEAxRXG4cFDZ1cTAARvAECxLzJBDJaa8HAlAII3AKDYPAYPV4qHKwEQvAEAxWaxeJ06M94ACN4AgGJHUikOs8HMeAMgeAMAiisWb3U0Y8YbAMEbAFBcHsRhVxOWmgAgeAMAisycpSYAQPAGAIw4j8XDlaqSWrmeAiB4AwCKJx67msgOOGD/UbQ2AII3AKBoPB5LTZS1AdZ5AyB4AwCKGLwtFjPeyo3iJToACN4AgCKymDx4mGRnEwAEbwBAMcXk4UqFHhK8ARC8AQDFE5OHKxWEAUtNABC8AQBFFYtA6kmWmgAgeAMAiisW2+yZ83AlAII3AKBYpmaqJCXicKjOw5UACN4AgGIZk8vHJowGIngDIHgDAIqkP5+MzfKLkKUmAAjeAIBiqaiKzyxwEIgZbwAEbwBAceRCi9GMd8iMNwCCNwCgOBIxeuAwUMCMNwCCNwCgOEKPz/IL5+FKAARvAEDRLjAxeuDQnDXeAAjeAIAiCRPxmQV2Y1cTAARvAECxLjBxmvFmqQkAgjcAoFjitO7Z5cx4AyB4AwCKI07rnk3GjDcAgjcAoDg8iM9SE+fhSgAEbwBAscRp3bPxcCUAgjcAoFicfbwBgOANAChEGI1T8GapCQCCNwCgSMwVo+0ExVITAARvAEBxxGwWmBlvAARvAEBxmMVqFni05EarAyB4AwAKLmYz3oGmtlfS6gAI3gCAgrOYLb+o70+yzhsAwRsAUBSxCqIDnmedNwCCNwCgCCxeM97JyoAZbwAEbwBAEXi8ZrzzHjLjDYDgDQAoilgF0YTz9koABG8AAMF7xIVuLDUBQPAGABRFrIJo4LxEBwDBGwBQaNMXV0hKxumQwwSvjQdA8AYAFNi4jX2xm/1lxhsAwRsAUHB9+fjt8OHi4UoABG8AQIElw0Tsll0YD1cCIHgDAAotH8Ot9TxgqQkAgjcAoMASyfjN/hpLTQAQvAEAhRbGccabpSYACN4AgCJcXGIXvJnxBkDwBgAUXBzf4uhsJwiA4A0AKDQL4jf7awFLTQAQvAEABeYxXGrizlITAARvAECBmcfv9elxvNkAQPAGABBCC3+zIbHUBADBGwBQ4OAdz631mPEGQPAGABRWHB+ulHi4EgDBGwBQYPHcWo+HKwEQvAEABWbxXHZB8AZA8AYAFJbH80FDlpoAIHgDAArLnBlvACB4AwAKkLxjOfub1PTFFTQ+AII3AKCQYjn7O25jH7PeAAjeAACC90jryyVY5w2A4A0AKKhYBtCkh8x4AyB4AwAKKJ4PVypfwUt0ABC8AQCFFM+HK5UIeYkOAII3AKCwYhlAQyd4AyB4AwAI3iPOnKUmAAjeAICCaQ0kVcXxyJ2X6AAgeAMACmXixJrYhk8LWGoCgOANACiQ3lRVbJdbOEtNABC8AQCFUhHjnT1MzHgDIHgDAAokFwbMeAMAwRsAMNLyMd5Sj4crARC8AQAFk0g6D1cCAMEbADDSwhgvt3BnxhsAwRsAUKgLS4zDp0ms8QZA8AYAFEacHzBkjTcAgjcAoGDivKWeGbuaACB4AwAKxIMYz/o6D1cCIHgDAArEPNbrnAneAAjeAIDCiPk6Z5aaACB4AwAKw+IdvJnxBkDwBgAUhlucZ315uBIAwRsAUKgLS2i/lPRMDA89NOn79AAAg96aUwIAwHCrSS+YGCj4pqQ3xuRi+lgY+nt7Vs66k9YHQPAGABSYWyqduchl86P8RkeTbtRA7gPdq+auo80BELwBAEVTO2X+4UokbjDXURE7tI0mb+7unHU9rQxgdyQoAQBgJPVv/NXT/Y1nXzdqSy6U7HhF4fki129yicTpvR3Nv6WFAewuZrwBAAWTmrLw1bLwepmayvQQBsz8i90d6z8rtYa0KACCNwCgZI2bmqkbyNtXJL+4rL64a2ne9e5NK1v+RCsCIHgDAMpGbWP7uea+WNL4ko/csmtSfZVzVq++ZBMtB4DgDQAoOzUNi/YLFH5T5meW6FdcY6G9r3tl8620FgCCNwCgzJXmtoNsEwiA4A0AiKTayZmXKKEbTDqyyF+lW/KPZDtnfZ1WATCc2E4QAFAS+jfeura/6exri7rtoOveIMyf3r1y9u20CIDhxow3AKDkpJraXqO8faeA2w5u2yZw/89J5+dpAQAEbwBAbBRs20HTP/J5vYttAgEQvAEAsVabzrzNpMWSxg3zn2abQAAEbwAAnq+mYdF+QZC/Vq43DNOfXGPmF3Z3zPoF1QVA8AYAYDvDtu3gTeoPPpB9fOYz1BQAwRsAgEHsxbaDbBMIoKjYThAAUFZesO3gCdq9SaT7goTO6O6YxTaBAIqGGW8AQNlKNbW9RmFwveSNg/xH2CYQAMEbAIDhMLZxcX3O+7/8om0HTf8I8sG7N66c+TBVAkDwBgBgmNSm288z+dckjWWbQAAAAGAEjW5adFBtQ/tJVAIAAAAAAAAAAAAYKf8fjunINrCyFTEAAAAldEVYdGRhdGU6Y3JlYXRlADIwMjEtMTItMjZUMDE6MTM6MDErMDA6MDDcknBUAAAAJXRFWHRkYXRlOm1vZGlmeQAyMDIxLTEyLTI2VDAxOjEzOjAxKzAwOjAwrc/I6AAAAABJRU5ErkJggg==;" parent="1" vertex="1">
                    <mxGeometry x="286.85" y="246" width="40.74" height="30" as="geometry"/>
                </mxCell>
                <mxCell id="10" style="edgeStyle=none;html=1;exitX=1;exitY=0.5;exitDx=0;exitDy=0;entryX=0;entryY=0.5;entryDx=0;entryDy=0;fillColor=#a20025;strokeColor=#6F0000;strokeWidth=2;" parent="1" source="8" target="4" edge="1">
                    <mxGeometry relative="1" as="geometry"/>
                </mxCell>
                <mxCell id="8" value="Client&lt;br&gt;/&lt;br&gt;User" style="ellipse;whiteSpace=wrap;html=1;aspect=fixed;" parent="1" vertex="1">
                    <mxGeometry x="10" y="230" width="80" height="80" as="geometry"/>
                </mxCell>
                <mxCell id="15" value="" style="endArrow=classic;startArrow=classic;html=1;exitX=1;exitY=0.5;exitDx=0;exitDy=0;" parent="1" source="5" edge="1">
                    <mxGeometry width="50" height="50" relative="1" as="geometry">
                        <mxPoint x="390" y="330" as="sourcePoint"/>
                        <mxPoint x="280" y="270" as="targetPoint"/>
                    </mxGeometry>
                </mxCell>
                <mxCell id="16" value="" style="rounded=0;whiteSpace=wrap;html=1;" parent="1" vertex="1">
                    <mxGeometry x="590" y="220" width="210" height="100" as="geometry"/>
                </mxCell>
                <mxCell id="17" value="&lt;br&gt;&lt;br&gt;svc-y" style="rounded=1;whiteSpace=wrap;html=1;fillColor=#f5f5f5;fontColor=#333333;strokeColor=#666666;" parent="1" vertex="1">
                    <mxGeometry x="604" y="240" width="80" height="60" as="geometry"/>
                </mxCell>
                <mxCell id="18" value="Service Y" style="rounded=1;whiteSpace=wrap;html=1;fillColor=#f5f5f5;fontColor=#333333;strokeColor=#666666;" parent="1" vertex="1">
                    <mxGeometry x="710" y="240" width="80" height="60" as="geometry"/>
                </mxCell>
                <mxCell id="19" value="" style="shape=image;imageAspect=0;aspect=fixed;verticalLabelPosition=bottom;verticalAlign=top;image=data:image/png,iVBORw0KGgoAAAANSUhEUgAAAt4AAAIcCAYAAADBtKngAAAABGdBTUEAALGPC/xhBQAAACBjSFJNAAB6JgAAgIQAAPoAAACA6AAAdTAAAOpgAAA6mAAAF3CculE8AAAABmJLR0QA/wD/AP+gvaeTAABFSklEQVR42u3deXxdVbn/8e+zz0nSJjlJB0oZSpuTlMmKChVEkUlAEAdAhOt1/CECSpt0cMDxEueLYtuctGBFQQWHWxBHRAVkUAFBcKxDaZMUSikUOuQkbZOcs5/fH61AoemQJmfY+/N+vbivey+ac/az1tr7u9dZe20JAAAAAAAAAAAAAAAAAAAAAFAqjBIAKCZ3T0iqfOIJ2Wn/df3xmzdtmZbPqZrK7Fh/Phf29OTyVCJm40TaoGTwu57lM5dSDYDgDQBDDd5VX776jw3f/M7fru7vz59MRXaurz+vnt5+ChHb/O3XZjvXXyy1hpQDKD8BJQBQbNdd/7crCd3ALplkF6bSY+dSCoDgDQB77IiTrz1iS1/+TVQC2O38/XGples3QPAGgD3T0+NTqQKwR8bVpMdMoAwAwRsA9kgYepIqAHs4bgZCxg1A8AYAAABA8AYAAAAI3gAAAADBGwAAAADBGwAAACB4AwAAAARvSgAAAAAQvAEAAACCNwAAAACCNwAAAEDwBgAAAAjeAAAAAAjeAAAAAMEbAAAAAMEbAAAAIHgDAAAABG8AAAAABG8AAACA4A0AAAAQvAEAAAAQvAEAAACCNwAAAACCNwAAAEDwBgAAAAjeAAAAAAjeAAAAAMEbAAAAAMEbAAAAIHgDAAAABG8AAAAABG8AAACA4A0AAAAQvAEAAAAQvAEAAACCNwAAAACCNwAAAEDwBgAAAAjeAAAAAAjeAAAAAMEbAAAAAMEbAAAAIHgDAAAABG8AAAAABG8AAACA4A0AAAAQvAEAAAAQvAEAAACCNwAAAACCNwAAAEDwBgAAAAjeAAAAAAjeAAAAAMEbAAAAAMEbAAAAIHgDAAAABG8AAAAABG8AAACA4A0AAAAQvAEAAAAQvAEAAACCNwAAAACCNwAAAEDwBgAAAAjeAAAAAAjeAAAAAMEbAAAAAMEbAAAAIHgDAAAABG8AAAAABG8AAACA4A0AAAAQvAEAAAAQvAEAAACCNwAAAACCNwAAAEDwBgAAAAjeAAAAAAjeAAAAAMEbAAAAAMEbAAAAIHgDAAAABG8AAAAABG8AAACA4A0AAAAQvAEAAAAQvAEAAACCNwAAAACCNwAAAEDwBgAAAAjeAAAAAAjeAAAAAMEbAAAAIHhTAgAAAIDgDQAAABC8AQAAABC8AQAAAII3AAAAQPAGAAAAQPAGAAAACN4AAAAACN4AAAAAwRsAAAAgeAMAAAAgeAMAAAAEbwAAAIDgDQAAAIDgDQAAABC8AQAAABC8AQAAAII3AAAAQPAGAAAAQPAGAAAACN4AAAAACN4AAAAAwRsAAAAgeAMAAAAgeAMAAAAEbwAAAIDgDQAAAIDgDQAAABC8AQAAABC8AQAAAII3AAAAQPAGAAAAQPAGAAAACN4AAAAACN4AAAAAwRsAAAAgeAMAAADYc0lKABSPu5ukxAv//3Pn31dx60//PbF/gyZ4Mm+RrkHoTaV4gKG7wtBL73uV4HdC4VUk7GWVTW37RfHY+pV8avOotU9qaWs/LY2oMUoQP+OmZur6Qh0TteMKQluV7Wr+V5kF76SkMf/5v987+5eHPfDgmtl9/bnXe6gUvbV4+vrz6unlug8USY9Jt+ZCfWnTypY/UQ5EBTPeMZR3Pzhwuy1yd5HmiyTNLNfvf/RpN8x8ev2WT8lfPAMOADFT69J5iUDn1jW2fa67o+UzkvFzD8oea7yBEvDKU29oeXrdlssJ3QCwfU5xt8vr0u2fpRQgeAPYa++49NZpz6zf8kkqAQA75tInU1MWvppKgOANYK/86S9PzGUsAsBOmYLwfygDCN4Ahuw9H/l11Za+8FQqAQC7dMq4qZk6ygCCN4Ah+cPvVx8kVzWVAIBdqsi7H0wZQPAGMCR9mwfGUQUA2E2hjacIIHgDGBJXnr30AWB3z5lunDNB8AYAAABA8AYAAAAI3gAAAADBGwAAAADBGwAAACB4AwAAACB4AwAAAARvAAAAgOANAAAAgOANAAAAELwBAAAAgjcAAAAAgjcAAABA8AYAAABA8AYAAAAI3gAAAADBGwAAAADBGwAAACB4A9jFAKwY1UsVAGD3eBByzgTBG8DQHLRPzeOSQioBALuWC6yLKoDgDWBI7vnFeeuTFYk/UQkA2AXX0s3LW1ZRCBC8AQzZAftWX0MVAGAXzDMUAQRvAHtlyTVv/FFlZXAnlQCAQf02O2X9tZQBBG8Ae2XixNrwQx94+UUVFcEfqAYAvMgfPaFzdVdrjlKA4A1gr1383ukbr7v6tLeOGzvqixZ4NxUBAPWY9PnsQO6EnuUtaykHoiBJCYDScNyRB/U/dPu75v/mvmeuumLencdv2NDXtCWXnyAzozqFt6m3P9+zqb+fSgCF5k/Jg+WpvsrbV6++ZBP1AMEbwIh53avH973uxrfdLul2qlFUfWaWpQxAcTD4EEUsNQEAAAAI3gAAAADBGwAAAADBGwAAACB4AwAAAARvAAAAAMOL7QSB4golbaYMJYm35AEACN5AVJhZKKmXSgAAEH0sNQEAAAAI3gAAAADBGwAAAADBGwAAACB4AwAAAARvAAAAAARvAAAAgOANAAAAgOANAAAAELwBAAAAgjcAAAAAgjcAAABA8AYAAAAI3gAAAAAI3gAAAADBGwAAAADBGwAAACB4AwAAAARvAAAAAARvAAAAgOANAAAAgOANAAAAELwBAAAAgjcAAAAAgjcAAABA8AYAAAAI3gAAAAAI3gAAAADBGwAAAADBGwAAACB4AwAAAARvAAAAAARvAAAAgOANAAAAgOANAAAAELwBAAAAgjcAAAAAgjcAAABA8AYAAAAI3gAAAAAI3gAAAADBGwAAAADBGwAAACB4AwAAAARvAAAAAMMiSQmGoOG6UfXh5tGJylx+3fKWbgoCvNg+h16RGticSm4Mt2zRqrmbqQhQKpYk6ic/XSdJFvT5hq45G6gJQPAunGmtlbV9+xysMDzUXE0uTTL5gZIdIKlGslrJayVVSaqXsgoTUpiXUunMf/5Kr0vPmPSUTGvlWuuy5YFphcL8Cgsrl2189NL1FBvlamzj4vq89x0q+aGhW9oCHSD3AyXbT7KarePDx0qqlFTT1y8pkVMqkZSeGycbJD0l19MyPW3mq921QqFWhIlgeW/gy7S8pY9qA0MJ049P8SB5sMwPDqWDA2k/lybKNEGuCVuvX6qU1ih89r+XeP51bKOk9SbbECpca2aPm/Souz/m8mVKBP/sWd6ylloDQ2exO+KpmapUXsfI/GgPNd3MjpJ0sKREAT69U/KHJXvYA7u/p2/gvmLMBNY3tU0PQ/tjBDvzou7OlpkM671XN2neOK9IHmfm0901XbKjJB1QgI8ekPQPuT9sZg/nPf+73q6Nf5VaQ1oFeP6NcNvkgVCvMekYmR0j6ShJowvw0c/I9RcF/kd3ezCf0P2bl7esokUAgvc2bvWNC6fnQz/TAp0k17EFOjntjj5J97vbnYlAt2zsmPmQZE7wJngX3KR5o+sqEyeHbqebdJKkl6p0ngF5Rq673fw3Faafre+Y9SgNhliO0WTixDDQGeZ2hqRDS+jbLZd0p7vdkVTuVyxdQXlrDWrSYyZY6OMSyaBaknKuMZKZJFmogUTCeyQpzAe9+by6x+QrN6xefcmmGAfvJYn69JpTQuk8SW+UtH9Z3CJIj0r6sVw393St++1IzfIRvCFJ46Zm6gZyfo7M3urSqSZVl8cw0UOSfiQLbsp2zFxGSyK6liTqGp481c3fKelsSaky+NIDJt0j109zebtp02PNq2lHlJrqKfP3rwgqXpo3P1gKDzHZIQo1WaYJkvbR0Cae+rR1OeX6QJq1sbPl15EP3jUN819hlrjApP+SNLHMD6fTXd+qCPxbwz3DR/CO94U8lV5zpqT3SHqTpFFlfkC/l+naqorNNz7978uyw/mHxzTMH+OhxkWtB9Tkqtfs7szMsJ53Jl81VuobSz13bXTTooOS+dylMrugzK9leZf/JpDdMHpT3w+ffPIjvZyDd9H2k+YdWBlYVdSOa+OjczqK9+mtQV3jmOnuwQkmvSqUXmXS5JH8RHf/756uWT/Y0b8r/4crJ80bnaqoeIfkF0s6JkL9NG2mz+TcLk81tP8yDHx+b0fL7ZyWMNSTeUVl4iL3NRdKmhShQztOruP6+ke31TVkrvcgWDBcs+A5S8y0hD4Xtb6QTfS9RdLPCv25nhyY5Z64PGr17LH+MyXdOhx/K9XU9hoLbbaH+XNkFoXNDxImO82l0zZVV2Vq0+3fUZi7umflnH9yVt6xZEXyplA6NoKHVtCJ3rGNi+vz6jvTXW+QdIZvfbhYruLPOJftwE4dcuU+3l81w8xnSD4hwuMwkPmZgevMVDrzF5PmdU9Z9z3d1ZrjFIVdqWlsPyJwfUjy/3ZXZYQPtdZNH5SHl6TSmZ/J/Mpsx6zf0QNQDurSmWNC+ecV2mke3cOsN3mzgsTM2nTm13L7356u5rtofQybk1qTdY+Ofb0UvDvnfWepdJ7nK+/gXdt09b4WDlzmA/qAmVfHrFu93KVvp1aO/5jSmcuynS0/Y6RhR6qnZI5MBPqM3N+keO1eFEg6S25npdJtP/cw/CizayjZ69mU+YdbkPhfl95i8RmmZtLpMj89lc7cb6bPd3e03EJvwFClDrlyHx+o+qCt9Etd2m/rvHbpKpvgPaZh/pi8kh9VONAsqdZi3c38cEk/TaUzdwWBf3jjilkPMfQgSamG9sNk4eclvVVx3C50++v7myxInFHX2PaNvHtrb+fsJ+khKAlTM1V1oX/c3T4uRfqXqF051l0/T6Uzv3eFn+jpnH0PnQO7q37y/EZPBh8JB+w9pvKZiC2DV8YvSdQ2ZC7JW2KZzD8uqZbu9qyTwtAeqE1n2jVp3mjKEecT0FVja9OZNpn/VbJzCd3PTS642wcCBctSje0XUA4UW216wQmpvP7sbpfHPHQ/33Gm4O5UOvPTuqZFUykHdjqGpmYm1KbbM2Ei8U93+0CZ7MhVHsG7rnHB0an0mofM9DVJE+huO25Dk2amKpIP1ze2v5JyxE+qsf2CMJF7xKQWSRVUZMenE7lfm2psv7l2aoZzCQrvpNZkqqFtnim4S9JhFGSH3uxh/u+pdOYLEyd+pYZyYDvTWitTjW0ft7yWm7y5XG9cSzN4T19ckWrIXOYe/F7Sy+ltu+Ww0P2+VGPmfzV9MeErBqqnzN8/lc78RO7XShpPRXaD+zmW199T6fa3UAwU7K5v0rxxdSvH3SqzOeLXqF2pkvSJTdVVf69PZ15POSBt3S66dvO4++T2RUl15XwsJRe86xoWvCq1vu/PMv2vmL3bU0m5Lqtb13fr1j1zEdH0aKl0+4WJIPFPSQTIPbev5D+uS7d/XnJCEEY2MDS2H+EVFQ+6dCrV2CMNofTLVEPbtWMa5o+hHHG1JFHXmPlMYIk/muuoKBxR6QTvhutGpRrbrnALfi/XS+hsexHLpFPCRO7+VOPCQ6hGtIxtbJtcm26/VfJvSKqnIkNmLv9kKp258YADFldTDoyEusa2MwP3eyVvpBpDG6cyuyBnib/UNmROpBzxUtt09b516TW/dNf/SEpE5bhKInjXNS2amrLsA3L7aJSKW2SHyMP7axrbTqEU0ZBKt78l5/ZXk06nGsN2XT83W9V3z+hJ8w6kFhju0O1uN4sNAYYhfWuyme5INbR/kaWUcQndbS9VOBDJX4qKHrzrGtvO9DD/gKQj6GrDbmzgdmsq3fZ+SlHOWoO6xrZWyX8sZrlHwvRkRfKBmob5r6AUGJbr2pT2N2wL3VVUY9gkZP7x1Lq+21KHXLkP5YiumsbMqRba70b6te4xDN5utenMp9ztZ5JYjzxyKiT7el1DpoVSlOGdU+Pi+lR67E+2bT3GeuSRc0Bgid/UpTPHUArsdegO/EeE7hFzogYqH6xJZ9h4IYJSU9rOCVy3KMKTTEUJ3uOmZupSje03m/Q5lcVe4mXP3NSWamj/KKUoH7VTF07Led8Dkr2JahTmPsel21JN7cdRCgwpNKQzx3vgzHSPvIZA+n1tuv08ShGha15j+7kK7P8U8f3tCx566yfPbxzI2/1ynU03K3j8vqI23f5pClEWF/A3Wz68TxIPyBZWnUL/ZW1D+0mUAntiTMP8Bkk/lDSKahREjcn/b+vuRK1M4JX7Na+h/Wxz/4FisJtdQTtrTcP8V4SJxO+3vfIcxcje8s+Gof0PlSjl0N32fkk3S0pRjaKolfktkp9AKbA7JkxbVJu3xE/Ei94KfknbujvRuJt5e3MZn3DTC06Q+fclJeNwvAUL3rVN7a8LLHG3pP3oZkXH3s8lewLKfEqyr8flBFS6N6iqNtlpVAK7lAhty+b89ZJeRjGK5qxURfJXYxsX8/B5malJL3iZKfiJYvRLUUGCd2pK2zkW+i9U5m8bAkaOW20607btuQceogTKZeS6fYqlkyXh+AHvu7O26ep9KUV5qG26el9T8DNJY+J03CMevFMNbWdtWyzPwybAoKG7fYFJ7DwDlJ9XU4LSYNKRFg78tvqg9gOoRombvrjCwv4bo7plYNGCdyqdebPMlohXvwOD3/U3ts8jdAPAsDgkkfQ7atILJlKK0lW3rm++ZLF8jmbEgnddQ9sZkm5SxLeFAfby5vTL5ppNJQBg2BwWKLgtdeDC8ZSi9NSm289zaUZcj39Egnd9Y/sr3exGQjews5vTzGxJH6ESADDsjvCq8Nf7HHoFu0OVkPop7WmTXxPnGgx78K6fmmkK3W+RVEsXAwa74287301fpRIAMDLMddSW/tE36qRWdokqBSe1JsPAf6AIv5Wy4ME7dciV+4R53SqJp4qBQUP3ghNM9h3x1lYAGNnwLZ2eWjnuaipRAte+lWMvk3RM3OswjBf+JQkbqPyBpIPpXsCOjW5adJApuEns8gMAhfL+VGPbxylD8dQ0th9hMt6cPZzBO9X4xBddOoWSAoOYmqlKhvmbxNvtAKCw3D6/bdMHFCNsul8nJpyGL3inGtrPlhsPiQE7Gyd5LRQ/swFAcbKf2ffqp7SnKUVRTKcEwxS866e0p2X+bfG2PWBQden2d0l6P5UAgKIZGwa+RFMzzLyiXIN3axAGfp14FTwwqNFTM5NcnqESAFB0r0zl/EuUAWUZvGvT4z8p6UTKCAx+c5rM63pJY6kFAJQAs1m1Te2voxAoq+Bd39Q23eQ8oQrsRKph/IclnUQlAKB0so+Ffu3YxsX1lAJlEryXJMLQFkuqoITAIDenk+c3yryVSgBAyZmSC/vmUQaURfCua3hypnhCFdipMBG0SRpNJQCgBJkuqG1oP4lCoKSDd03Dov3c/DOUDhhcbbr9PMneRCUAoHSjt8kXavpifr1H6QbvwHJfkcS6KGAwk+aNDuRfpRAAUOrRW9NS6/paKARKMnjXpBe8TLJ3UDZgcKlkssWlg6gEAJSFy2ubrt6XMqDkgrcp+IqG8TXzQNTUT75qrEwfpRIAUDZSFg5cRhlQUsG7tqn9dSa9npIBgwsT+U9IGkclAKCsXDq2sW0yZUDJBG8L/X8oFzC41CFX7uPyS6kEAJSdUbnQLqcMKIngXZfOHCPeUAns/OZ0oKLFpGoqAQDleBLXu5n1RkkEb5c+QamAwU2c+JUal32QSgBA2arIhZpNGVDU4F07Zf7hkt5MqYDBbR5ddZGkfagEAJQxs4vqJ181lkJgpCR3Hc2TH5ScnUz2TF6uLgVa5vJlcq0NLNjkHva6tMFco102yqQxko8xs6bQ1GSuqZLqKF+5cXNrZ7Z7CPcrkpaZtMylLrmeMVOvmza5W9YU1ptslLtq3HSASU2SpkpKS6qkfIiZbjctD1wr3NShUOtdttEC9bmrx+RjzK3ag7BaoSbIrFHSYYyXPVYbJgc+IOlLlAIFD94HHLC4Oqu+d1OmXeqXdJ9Ltweu27tr1j2spa39QwlwtU2ZafLghEA63t3PkDSG8pb4Wbpp4ckKdQiV2KV1kt/pZneYgjuyHTMekcz3+K80XDcqZdmjXX6CpBNNdvJuTSIA5eUZyW91t98pGfyuZ/mMfwxpvJzUmqxZOeYlCUuc4u6naOvzWrWUd6eX4ouk1iuk1pBioKDBO1vZdz7Bb6cekPybVZVbvv/0vy/L7v2fM+9Zob9L+rukqzQ1U5XK2RvM/B0uvUVSFSUvPUHolzhlGMyAXD8zt290r5z4a+n8/HP/aubQ/mLXBVuy0m+19Z8vpA65ch/PVZ1v7u+QdBwlRxnrlXSzmf+ge+yo2/TQJQN7PV7uas31Sn/V1n/ma1prZe2mcW8x6UJt3SKYX7RfLF2f3ueUjZ26jVKgoMFbposp0YuE7v4DN7+it3P2XyUpO1KftLylLyv9WNKPqw9qPyCR1BzJL5GUohlKQ23T1ft6OHA2lXjxfbuZz8u7X93bNfvJEf2gZR9+WtJVkq6qa1xwtIfBx2Q6m0CBMvK0uy20yr5F2/rzyFna2t8j3STpptFNiw5KhmGL5DMkjaYZnuMKL5II3mWqT9K/JD0i9+VuWiVprTx4KpEIs3mpLzEQbnr2P10RjA1ziUoFPkEK9zXTpDDUwWZ2sKTDNcy/EA0avOuntKdD+bG03/NHov0iNP9Eb9esvxT6ozc91rxa0kfqJ1/1xa0vafFZkipolGL3iYFzxfrJ7U54brpagb6YXT5rbaE/vLtj9oOSzk01tB+mwOfJ9QaaBKUb7rRJ0pdqNvXNf/LJj/QW+vM3r5jxmKSPjJ40b0GyouJ/JH+fWLb1n7Y5K3XgwvHZx2c+QzVKXlamO8x1h6QHuqvX/Xloy313ZEmitumJw82DoxWGx5vZqS4dNCLBOzSdJ8loT0nSE2a6qLuz+ZZif5GNj166XtJHaidnrrOkFsp1Ms1TPOY6nyo8e6W61xKJ92ZXzFhe9LNwV/O/JJ2Zamg/W+YLJE2hgVBaJw/9OOnB7A2dM1f2FPmrbF4193FJl9Q0ti8092+bdCQNpEpV+tmSvkkpSlKvpJsDBddvrH767uEL2i90fv55S4Cvk6RU48JD5OFZkp0r+TF7mpWDnSQKAsXWat6o/uCI7o6WW0rpe/U82vKPbEfzKeY2W1sf7kSB1TQs2k/S8VRC/TL/RLZrvxO6SyB0vyCA/7iqcvMRLn2XZkKpnL5N/p5sR8s5GzpnriypJNPR/Lee6nXHmuwLknI0lb+NGpScLpO3jKpO7JftbHnPxs6Zt41c6B7kutIxc1m2s+Ur2c7mY3NBYopLn5asY6+Cd/3k+Y2Spse8cXNuurS7s+X80v2pyby7q7ktMDtuTxodw1T9IHyrpETMy7DGpOOzHbO+tP2Dk6Xj6X9flu3pbHmX5Bdp6xaGQLH8VW5Hd3fOur5kv+HS1v7uzuZPucJTJMV9mcUpdZPmjaPbloQnZLowO2Xdwd2ds9rXLp3RUwpfavOKGY/1dLZ8Pts5c2poOk1uv5Dkexy8PZE4M+YNnLXQ3tLT0XJ1OXzZjR3Nf7SBgaPlupexWcDgHeqNsS6Aa2nC86/u7mx5oCwGdeesb5iFJ0paS+9F4ceL/aJ6U99rti2DKnk9nbPvkQWvkbQ8xq1W4cnkW+i8RZWX+ZdHVScOyXa0XKu7Wkv0lxjz3o6W27NdzW/0MD/NFPx5z4L31i2G4urJ0PMndK9svrWcvnT3qrnrUv1Vp0n+c8ZpAUzNVMn8xBhX4O6E8q/d0DWnq6zGScfsB2XBayV10YlRQN/Jjq88uxgPUO7VzWrHzGWq6H+1pAfi2nAW2Ol036J5RGFwfLZj1mWlMsO9WzetK+f8c2c32C8O3tNaK6XYPrC3IZRO7+2a8+dy/PKrV1+yKTtl/Tnu+j7jdWTVuh0nqSamh/9AVeXmN2/omrOhHL98tmPmsnzOjpO0jJ6MEQ9u0qJsZ/P/235P7jIaL8s+/HSQT54h6S9xbD93P1VqZWvSwlf+5xUJvTK7cuZ9UTuyF3Wm2t7xr1E832rVq8Df2NvZUt4nl7tacz3jq967bZ0RRupi6mFcZ0H+rv7gzOF5YVTxbHqseXVCwetl9ji9GSMWHaTvdneuaxnSGydLyMZHL10fKjw9pjer+9Q3jj+K3lzAcWNakO3c/+x1y1u6o3h8O7iL8xNi2M55c39bdsWsaKyRfuiSgVR/5Xms+R7RM0PsxolJj+VzdnpU9rXd0DlzpW/9GZl9ejES54hf9IyruiAqrx3v7Zz9ZNL8NElr4taUoXQqHbpgF5orejpa5pTqw/ojErwtUPxemuP6ZHfXrF9G6ZBWr75kkyd1tqRVjORhNjVTpfjtc9sn6W3bXuQUGT3LZy4Nzf9LUp6OjWH0SFXVpreX6/KSwazvmPWozM+TNBCr1nR/DV26EPeq3pbtaPlY1I8zeOFhy/WqmDX1D7NdzV+O4pH1LG9Zq8DeHruT5Airy4WvkFQVs8NuLpfdS/ZUb8esO9ztc/RsDJMtoXReuS/HGky2Y9bvTJobszZ9Fd16xN3S07H/h+JwoNsF71S67RBJcdqzcnXCw/eX+/q7nZ4kVzT/Xm6fYkwPp0S8fhVy3ZztbLkmyofY0/XM50y6nb6NvR4uprll/6zQLnR3tiyM2XNE+257vwlGxiNVlZv/O8rLSwYN3mbBK+PV1vbBct2ZYY/Cd9fEr0p6iLE9XBfWME7jZF2oxIzoH2ZraKFdLF6wg727Sb23p6P5a3E41Fwi+ICk7tg0bTJ5LB18RAyY9K6o/kK0y+DtrpfEJnJLS7KdzT+Nx9GenzcLPygpZIwPx7XVpsXn3tQ+3Ns1IxYPU21c2dzp8i/QwzHULBqaLo3yL6jPt3nFjMdM+mR8zvvhy+niI3GJ8S9GdRnjbgVvSXEJFP0W2sfi1NDdHbMflOwbDPO91RqYdFhMDvYv2Y5nvh2n1u1J2JWK95v6MNQAIf961JeYvOi6Mq5qcWzGS4wmJguos7s/f0XcDvqFwfsl8Rg/+trGlc2dcWvspIVfEA9a7pW6pgmNkkbHIkiE9vGobIW225a39Mn0JXo69tBAwhS7AKGHLhlw90/HI3jb4XTzYRb6h7RqbuyW9z0XvLdukRaHhwf6XOEX49jH13fMelTuNzDa9+LcG+bjcvK9v3tl861xbOPs6HU3uPQovR17cJv6vfUds2LZZ3q61i+R9Ej0m1hpTZo3mr4+XPcxeji7suXHcTz2Z4N3XeiTJSVi0Nw39nbOfjK+3T34siRn2A/x3OtKx+I4zdpj28hLW/sD13x6O3b7qhKEV8b36FtDM7s6DhfPmsqKqfT2YbrG5P3zcXkeYtDgnZcmxyM4+cI4d/ZsV/O/JN3PsB/qXbodFIPDXNM9+pmb4tzOYVLfFcuysDvnBOlPPStm/T3WISqX+JZLm6J+nAn5ZHr8sHgkrrPd2wXvQEEcOtS/u7tm/yH2d5rS9xj3Q61dLE6839PS1v44t3PP8pa1cruNHo/dOCfE/ny68dFL15s88kvTwjAWEy+FcE1cZ7u3C94eehw61A/p71IYVCwRr8geEpeiP07Mf0RLSxYQqLDrU0IuYT+gDJJJP4n8MZoTvPdevyf0rTgX4LkZ78D3j/zBBn4zfV7qWfHBpyT9mUoMyQERP74nsx3r76WZpbyHt4vnIbBzj2xe3rKKMkgayN+i6E/oELz39k5VfnfP8pa1BG9Jchsf8WPdsHHF+j/R7f/T3PotVRiSSI8TM7szdlsIDmLbQ9jLqAR24h5KsFX3qrnrJC2N+GFOoKX3NnTaT6nBNqF8TMSP9X4CxfMCVt65YOypk1qTkmoifYyh/4GG3m6k3E0NMGjvEBMYL6hIxB/ct7G08V6GTs//nOD97Akk2h3K3djJ43kSFjL7v4dqV40bu/VaG/UbVDx73jD/M1XAYPKe/ytV2E7EX/3tBO+989cNXXO6CN7P9idFvUP9iz7/nA1dBz4mqZ9K7D4Lg7HRPyHkGSfPv0H1gNfHY1BVyUQHVXheLFU+6i/SIXjvVf/QXVTh+cHbov0TemDeSXM/3/l5SdRkD+TzYU3ED3Hdhq45G2jp5zf6wAqKgEE8tW55SzdleE6FWVfED7GeVh46M/2FKjw/eEuVUT7QMKjoorlfdPe5kirsvmSgikj3BxNj5AU2Nm58VOxsgh17lBJsb33H/o9LykX4ECslN1p6iIHTnOAdp+Ddc9CT62juF9x9SszW7NmNSlWkTwYuxsgL3dWaUwzeyIchnUCzFOGFzs9LEa/LtM9U0M5DktuYr1tKGeITvPu2XUCx/ZWjlxrsQfAOLNoz3hL9YceoC3Y0YLghi+F4mfh0DcF7aP6prgu2UIbtg3cywsfJCXJHsVveQxX2YLDkI77UhCAxWMBiZhM7OH9yQxbH6+2WqppKmnhIA4bnZXYQvMNINzl2lCioy550IrNI7wMfBEZ/2PHZI6AIePH9GP1iN3JF5IT5kHYfymk01BNU4cUDJMpLMapp6h1dOKyWKuy+vPtApPuDO+Nkxxgn2NENWQ1FiN94GTXG+mjiIdywmFZThRcH7yjv6Vyp6YtZl/XiqMWFY0+uswlFOnibCBI7vkGlLtjhnSr9YsciXZe1Wsv7L4ZyfSF4xy54q/qp/gk094sCRR1V2IMTh+f7I94fGCMvNH1xhUmjKQR2cEZgT+cXarhulKI94+1aevkADT2E0SJfQxViFrwTlUrT3C8cCNZAFXZf3hX1nxgZIy9QtyE3RTwjAsbLbkmppyHi42VAMvb1H0reyCcI3i8K3qYNkW50d0LmdpYkJE2hDruv0mxDxA8xlTpw4Xha+vl3W2ETRcBg92W1UzP8SrTddTbyNyPscDREYZBjF6AXBW/X+igfqIf+Upr7OfWTH5+iiL80abglKrasj/oxekXIONnuYiGCN3YSNP1gqvC880cQTov2AUZ7gnJEr5/uPJT6ouCtiL+1zuzVNPdz8onEUVRhzzz978uyUsQfsAwYJ9sHq5BxgsH7R6jpVGG7E8hron18vN13qAZUyctzdhC8oz3jLR2tk1qTNPmzjqcEQ7Ih0kfnTvDe/kp7AjXATvoH59Htzx/HRjxHELyHKBmyDeMOgrc9Fe0bVVXXrhzzGpr8Pw1PoBjimfepiB/hCZrWyhIkSdVT5u8viaUE2FkQO4EXkW1V29T2Ukn7R/q6abaelh6amlyC4P3C4G2uVZE/WrO30uRSTcOi/Vx+BJUY0h3cYxE/wjF1vWNfR0NLySBxGlXALkysn7LoSMogKQzOifyNlvvjNPTQrF49luD9wuAdBv5Y5I/W7RxmJ6SE8udLStD9h2RV9IcJN6hb66C3UwXsOm+G76AKUiBF/rxhbo/R0kN1fp4avCB4Bwoj36FMmlyfbo/9LJabcaEYau1ccTjxvn3c1EysX65UOzUzQa5T6fHYDf+9bXvW2KqfsvAol78i8ud/aSXdHcMWvPOuR+NwwKG8Oc4NnmpoP0zyY+j6Q755i8M4SfWH9q5Ynxhz9g5JFfR47IYD6hqfOD3OBQgDb4nFeSGIwZJcFC5493bOflKKwx6VdmZd06KpMT5FflS8iW/oPPh3LG4wXDOl1iCWbTx9cUVoPpfOjt0+Lbh9LK7HXpNeMFHy/4pFO/cPdNDbMWzBe2uv0j/icMxhPveZODb26KmZSTJ7J91+6CoqwqWSYvDKYD+8Lj02ln0l9UzfO02aTG/HHjg+lc7EcmvBhIJPSxoVg0N9onvVXLYTxDAHb9PSOBy0mb29pmH+K2IXGkP/pHhb5V5Zt7ylW1Isnmx32Wc1NVMVqwae1lop08fp6RiCz8bt4f36yfMbXbooFrlBsZiYRKGDt3lsOlYQBIl5cTpJ1je1TXe3i+jywxFIYzNOGlI5zY5T26Y2j58r6RB6OYbgpLrG9lg9uB4mgi8rJpM5oYzgjeEP3qH0pxilp5NT6UxMgmhrEIbBIrGF4LAwi9E4MbWm0gsOjcOhjm1smyz3T9HDMeTLiuurYxrmj4nDsdY2tp8r2bkxatyl9HAMe/AeXZN4SFKM9lq0r4xuWnRQ1I+yrmFci+SvorsPk7z/IUZHO0oKvhn9By1bg5zsa5Jq6ODYCxPzFrRH/SBTBy4cb+6L4tSwoesBujeGPXivXTqjR9LfY3T8dckwvyTKr8iua1xwtJuuoKsPY+5WeH/MDvm4uvTY1kgHicaxl8n1Bno39p69K9q/prYGqvDvSJoYo0bt3ZRe9zf6NoY9eG89ZyhuoeLY2k3jr4zigdVPvmqse7BEPFA5rDatnPOEx2M/72e57JOpxoVviuKx1aYXnCC3z9KzMYzaovoAf23DuE/J/MyYteeDuqs1R7fGiARvc/993Ipg8uZUY+Z9kTqohutGhYncjyQ10M1HJInGbZwE8vD62smZl0TpoFLpBYeagpskJenUGEajgyD58zHphVMiNV4a2s4y0+XxO9/bfXRpjFjwznvyNsVin+IXBamv16bbz4vGwSxJpKz7Bkkn0sVH6GYtsNtieNhjLKHb6qe0pyORjCbNO1AKfilpAj0aw39N8QPzCm/f+oKZ8lc7pe1kmf1gR7kh8kHJ/C46NEYsePd2zVgjKY5rmRIm/05tU/vryj50N675RqyeNi+CXP/Ar2N66AeEgf+q3MNETXrBxGQy+SvxixBG1lSz4BepQ67cp5wPoq5xwdEW2E8UjxflvNDmjQO539KVMWLBeyuLa6gYZaH/uD698LSy/PaT5o1ONa65Sa7/R9ce4TPxqrmPyxXX7aUODhTcPnpqZlJZhoimRVMDJe6VaRo9GSPNXEdpoPJ35brsJDVl4avdg1slpeLYfi7do1VzN9OTMaLBO7TwlzGuSSpUeEuqIVNW4bVu0rxxqYrkbXKdTbcu1BVVcR4nL02Gdn9NOvPyshonjQuO9jD/e8kb6cAooEPzCu+tSS94WTl96drGzFsVhHdIGh/b07z5r+m+GPHg3Tt5/d2Sno5xXSpkurYu3fbZcti/uK4hc6xXJB+WdBxduoAnZNdNsS6A+4GBdE/dlPay2IavtjHzQffgHkn70ntRBAeYgvtSje0XlMHgtlQ68yFz3ShpdLybLfFzui5GPHhv2zbnR+Qq+3QqPfbO0n2YbOvJ0U33SJpCdy6s7q7mP5j0WMzLUOeB31Kbbs9o0rySvECPbVxcX5fOLDHXVYrnGlWUykVFqpb7tal05jsTpi2qLcXvWH1Q+wGpdPsvJF2pGD5I+QJ/yXbMXEbPxcgH763/4ibKI0l2Qhj4X1Lp9gslt1L5VvVTFh6VSrffu+3kWEE7FefezN0ZJ5KZvDlVkXy4rmFBCb0h1a2uMfPOnPf906XzaCaUkHdv2ZT/Z6ntpFXXmPnvRNL/JukMmkiStIQSoGDBe+OUdb+R9BQlkiSlJP9Gbbr9obqGtqKekKoPaj+grrHt6jAIH5B0LE1T5MQp/z+q8KzD3IL76tKZ/0s1LjykqAEinTkmlc7c5a4bJO1P06AETTL5krp05rbqKZkji/lFatMLTkilM/e663uSxtE0287vQYLgjcIF723LTb5NiZ4fsnSkm92aSmfurGvMvFFakihY8m9ceEgqnbkmkfQOd/uApAQtUnzdXbP/IOnvVOK5YeLS+fJwaSqd+XqhHyarT2den2rI3OHSHyQ7geZAqXPp1ESgh1PpzK21DZkCvnvBraax7ZRUOvNzU3C3pFfTGtudyv7QvWLGcuqA4Zbcxe3eN+Thh7dmTjzPSe46KZVes8rUdp1b4oaRWAeWOuTKfby/6m1m/nZ5eLxYb1eiN2T+dZdlqMSLzi0XBQouSqUzD0r+DfUnfph9fOYzw/1BtVPmHx4kEm9319tD6RDOVihTZ5jpjFRDZqmbfz+RD7+/8dE5HcP9IWMa5jfkLHinaeH75MbuPoO7hhKg4ME72zFzWSqduVvSSZRqhya57NPy8NOpdKZL8jvcdXsQ6KHuyes7t/1qsPtB+8CF460qPNZDf63MjteAXmXmvMq61IN3vuIGT+SuUOyf/h/U0ZIdrcrw6lQ68yeZ32Fh8JuB3MDfN6+a+/ie/Sm3+ikLGzzQcW7+WrlOlHSYO0VGZO7kp5ns82Ei8blUOvM3l90t6bf5gYF793y8LEnUT358Sj6ZPDJQeKq7nZKXDt56b8qg2Ynu6k1bfpClDih08N46NP1qkxG8d61BsgvNdKG7lFo5bkDpTIfkj8jsaXP1uqlHsg3mYbXLRklWb/IxLjVJapLCMe6SjCm7crLx0UvXpxoz/8eLi3YpkDRdbtPd/KPJiqRS6UyPm5ZZqC6ZnnFTb+DW6+5Zyeo98NHmVi2FB0hBk9SeDv+zMwm5AVGP4NLLTP4ySc3bxkuvpOVyrZDZ05JnTdrsrh7Jx7gFNeZeI9M+Mk2Vr2kKlagydzk/Be1+4V3fffLJj/RSCRQlePd07v/DVPrJDl44sccqJB0q2aHybRlh2/947gToZIeI8CC40vLhe8WyrD1Va66jZDpq2wVv66iwrePDnh04RtIGpBpJL5fp5f8ZD/6fiC6TPTt2GC57czoPE34VZcBI2Y01w+fnXeE8SgXs5AZ1+cylkt9CJQCgrP2sZ8UsHphHMYO3VNc36jpJaykXMDiXf4UqAEA5pyK/giKg6MF79epLNsmMWW9gJ3o6Z98j+T1UAgDK0t3ZFbPupQwoevCWpGz/QJukVZQMGJzJPiJWVwJA2fHQP0MVUDLBW6vmbnbX5ykZMLjuzpYHZPoJlQCAsordP+9ZOetO6oDSCd6SehrWfVPSMsoG7OT0ndMnJeWpBACUhXxowScoA0oueOuu1pyFNpuyATu5QX205R8uYzsqACgHput7O5r/RiFQesFbUvfK5ltl9iNKBwyuMuGfkrSaSgBASduYz+eZ7UbpBm9JylkwS1IP5QN2bN3ylm6TXUYlAKB0ueuyTSvnPEElUNLBe/OKGY9JaqV8wOC6O2d+16TbqQQAlKT7errWXUMZUPLBW5Kynevms2cxsDPmA0HifZI2UAsAKCl9HvjFUmtIKVAWwVtqDRMevldSN2UEdmzzihmPmayZSgBACTH/BK+GR5kFb2lD15wuyeZSRmBw3Z3NN5h0I5UAgBLg+k22Y/0CCoGyC96SlO1s/qbkN1BKYCcDzfMXS1pOJQCgqNbnEon/xxITlG3wlqTsQP5il/5EOYEd29A1Z0No9laXNlENACiK0Ezv3rZBBFC+wVur5m4OgsT5kjZSUmDHejua/xaYXUQlAKDwXLq8u6PlFiqB8g/ekrpXzFhupneKV2UDg4+TjubvuWkBlQCAgvpJT2fzFygDIhO8t4aKllvcxA4OwE70dKz7EG9/BYCC+UtFQu+RzCkFIhW8t4aKlqslu5LSAoNpDbP9A++UdB+1AIARZPZ4Lki8ed3yFrY+RjSDtyRlO5+5zN2/R3mBQayau9mDirMl/ZtiAMCIWO+Bnc7DlIh88JZaw56G9e+V62ZKDOxYz4oPPpVL6FTJOqgGAAyrXkln9SyfuZRSIAbBW9Jdrbns+Kq3S/oZZQZ2bPPyllW5IDhJUhfVAIC959ImD+wt2c6W31INxCd4S9JDlwxkPXW+3H5BqYFBwveKGY9ZkDjNpUepBgDsXehWYG/uWdH8G6qB+AVvSeq6YEt2fOXZZvYDyl0yp6YfUoPS0r1ixvJ8kHitpH9RjZKwRRL7/QLlpYfQDYK3JD10yUB3x8x3sH9xCTB9Kwj0JQpRejavmPGYDeSOk3Q/1SjunamZ3u+0A1BO1ikMXk/oBsH7ucTnPR0tc8z0WUnspVmc0H1ndvS6SyhE6epeNXddRUKnu/RrqlE0n+ruaPkuZcBuukZSP2Uoqi5Z8Orsypls0QqC94uCRUfL5SZ7j6Q+yl/Q1P3PIJc8V0tbuUCUuHXLW7p7Ovc7U9JXqUaBuV+X7Wz5IoXAbp9ZQ/uRLDiXa1rRPJjP2XHZjpnLKAUI3oOF787mGxTYKZKeogkKYk2Qz71p46OXrqcU5eL8fLaz5cMme7e2rjfGSAco6fbs+FH8IoQ9lu2Y+XNzO0vSZqpRyBtlXZv11AmbHmteTTFA8N7ViWpF8+9zA7mjxNv7RtqTnghO3fjoHPaKLkPdnc035EO9RtJKqjGiV/B7qqoT5+ihSwaoBYY0Vruaf+UKz5CUpRojLifXx7JdLReq6wImJkDw3l2bV819PFu97iSTX0VTjIjVUngiLxAob5tWtvwp9MSxct1LNUYgcstvyw7kz1i7dEYP1cDe6OmcfY/C4HTxa+7IXtcCPzHb1XIFpQDBeyiWtvZ3d86a4bLzJbEUYjhPThacnO2czSvJI6C3a8aabM26k2X+ZUkhFRmu0K1f9wzkz9KquSwRwLDIrpx5X8Lzr5L0N6ox7CP2nnyYf2V2xSwmIUDw3vuZguYbc0Hi5TLdSbPsLesw85N42CRilrb2ZztmXeahnyppFQXZaz/t8RShG8NuQ9ecrqrKzcdJ/nOqMSw2m9ncbOf6kzetnPME5QDBe7hG1ooZj2U71p1qrlmS+Nl3SBMC+o367ZjujlmPUIxo6lk5684gn3yZXNeKrTmHNkrcvpTtXHcO60MxUp7+92XZbOf+Z2vr7kSM06H7nZm/vLujeb7Uyq99IHgPv9awu6slk/D8EexlvKdpQguzDetOzz4+8xmqEW0bH710fbar5cLQ9HpJnVRk9+/vzfTObFfzJ7iIY+Rt253I9GZJT1KPPbqebTK32dnOdScykQSCdwFs6JrT1dPZcrrLznfpUZpq52FC0sU9nS3Nuqs1Rznio7ej5fbsQG6amX9GbGW2K11B4Md3d7R8n1KgkLo7Wm7xhI6Q6cdUY3dCt98WBImXd3c1t3GDDIJ3gfV0Nt9Y11d1uJk+69ImmuxF7rIg8bJsZ8s1lCKmVs3d3N0xqzXh+ZdIukn8rP1CoUuZUdWJIzaumPUQ5UBRrmXLW9ZmO1rOkelCSRuoyA79W9Jbejpnvb57xYzllAME7yJZvfqSTd0dLZeHYX7qtq0HefuitNFdH8h2Nr+OExSkrb8SZTtbzjMLX2XS7VREkuyfCvz4ns6WWWwXiFKQ7Wi5Vv3BVJcyktg3XpLMHnfTpdlxVUdkO1t+RkFA8C4Rm1bOeaK7c9aMIJ8/XNI1iucregck+3puIDetp6tlsWTMbmI73R2zH+zubDnNQ3+dSXfEtAxrJf9INuFHsvUYSi58Pz7zmZ7OlllmPk2um2NciifMbG62f+Dgno6Wq3mBFeIgWY5fettbGC+uPqi9NZH02ZIullQf8bbKS3ZDkM99lrdQYnf0rJx1p6Q76xoXHO1ul0l2tqRExA97vcu/Oro62cYMN0r/JnnWI5LOrZ+y8Ki85T9kZudJqoj8gZv+Iemr2UDf1fLmPnoCCN5lYtNjzaslfXTixK98ZlN11TtMdqnLXxGxNtoo6ZtBPr+IwI2hXdxnPyjpbaObFh1UEeYvdun9kvaL2GE+Yq6FyaS+tW75rG4SN8rqJL9y5sOS3jl6auayZOjNcrtA0oSIHeaApJ+EpsW9Hc138Gst4sqidkD1TW3T827vMtfbyzlcuPQnyb85ujr5bWbuMKymL65Ires7w6R3ufRmSaPL90LuvzKzr3V3rLuV3Q9KW11jW6u7XR65i2hoZ3avbL51WP/otNbK2s3j3mSu90k6Q+X9S9VDkv8g9OQNvV0z1jASQPCOrCWJmsY1J5vrLNsaLqaUQdpeYabvh2H+ez0r5/yT7omRNm5qpi4X2pvkfpZvvcDXlfhXDiXd52bfs2TfkuyyDz9NK5aHVLr9Ccmj9kuLzDWnu6tlwUj9/Zr0gomB7CyXvdWkkyVVlsEY/YPMfyYlfsgblIHYBO8XnrwyL0+Yvc7dT5Z0gkpjTfgWl+4JzH4Z5nO/JGyjqKa1VtZuGf/aIPSTfesF/hiVxnrTp93914EFt4ZB8tc9Kz74FI1VhsG7oT0n88g9Y2ChPt29suXzhfisMQ3zx+QseVpg4evc7WRJh5ZEEVwrJN1t5neFQeWvGKMAwfsFliRqm5443Dw42jx8pbu9QqbDJI0bwQ8dkGy5FD5k0gNye7BbqT/zymqUqgMOWFydHd1/pOX1ytD8aJNeuu1CP2oEP7ZH0j9MelDSA2GYf7Bn5cZ/s4yk/M+5qfSaSL7cy0L7XPfK5v8pxmePnjTvwERF8tUmHSnpqG3/7DuSEdulx0z6h8kectcfc7mBBzevmvs4fRwgeO+x2qar97Vw4FCTTXH3A93swEC+XygfY7Kxco2VmUleq+dmArsly8t8i9yyUrhWrrWSnjQFaxSEj8iSy7oPWtvFWyVR/lqD+sn1DUokpoamSR7aQWbhQbJgnNzHShorWWrbNXrsfy7Wkm3Y9r9mJWVlttZCX6NAa921yt0eCfNatu2BaUTMhGmLardsymejeGyB2Zc3djRfVirfp37yVWOVzDflQzWZeZNLE+W+j0wTZDbe3MZsG4s12rpsZYtkm12+0aQtJvW6WdbdN5m02lyrwkCrPMx31PdXL1u9+hJeZAcQvAEAJTupMTUzwfKK5PIDN2vr6WieTSsD2K2bdUoAABhJyXxQHdmLaBhW0cIACN4AgJKQdx8d1WNzJSppYQAEbwAAwXukg7cx4w2A4A0AKBGJpEV3qYmMGW8ABG8AQGkII73URMx4AyB4AwBK5ELj0Z3xNjnBGwDBGwBQGtwV2Rnv0JnxBkDwBgCUCFN0l5pYINZ4AyB4AwBKgwfRXWoi1ngDIHgDAEqFRfjhSjlrvAEQvAEApZJNFeUZ74ClJgAI3gCA0mARfriSXU0AELwBACXDgyjv420EbwAEbwBAaTBFd8ZbcpaaACB4AwBKJZsqwmu8WWoCgOANACgdEZ7xZqkJAII3AKBUeKT38U7qpNYkjQyA4A0AKIErTYT38ZY0Ye2EUTQyAII3AKD4XJEO3pu3BNU0MgCCNwCgFEQ6mCbD/GiaGADBGwBQCiIdTPPuBG8ABG8AAMF7xC+k0X54FADBGwBQRiIdTMMkM94ACN4AgNIQ7RnvkBlvAARvAEDRuUmK9HZ7oZjxBkDwBgAU26T5oyRZpG8tIr5dIgCCNwCgDKS8MvLLMCwQS00AELwBAMWVGx1GfjbYxYw3AII3AKDIkmH03+poHjLjDYDgDQAortDjMOMdMOMNgOANACiuRAwePDQergRA8AYAFFuYiP4e1x6wnSAAgjcAoNgXGfcYzHjzAh0ABG8AQJGFsQilzHgDIHgDAIp+kYlDKHVmvAEQvAEAxRXG4cFDZ1cTAARvAECxLzJBDJaa8HAlAII3AKDYPAYPV4qHKwEQvAEAxWaxeJ06M94ACN4AgGJHUikOs8HMeAMgeAMAiisWb3U0Y8YbAMEbAFBcHsRhVxOWmgAgeAMAisycpSYAQPAGAIw4j8XDlaqSWrmeAiB4AwCKJx67msgOOGD/UbQ2AII3AKBoPB5LTZS1AdZ5AyB4AwCKGLwtFjPeyo3iJToACN4AgCKymDx4mGRnEwAEbwBAMcXk4UqFHhK8ARC8AQDFE5OHKxWEAUtNABC8AQBFFYtA6kmWmgAgeAMAiisW2+yZ83AlAII3AKBYpmaqJCXicKjOw5UACN4AgGIZk8vHJowGIngDIHgDAIqkP5+MzfKLkKUmAAjeAIBiqaiKzyxwEIgZbwAEbwBAceRCi9GMd8iMNwCCNwCgOBIxeuAwUMCMNwCCNwCgOEKPz/IL5+FKAARvAEDRLjAxeuDQnDXeAAjeAIAiCRPxmQV2Y1cTAARvAECxLjBxmvFmqQkAgjcAoFjitO7Z5cx4AyB4AwCKI07rnk3GjDcAgjcAoDg8iM9SE+fhSgAEbwBAscRp3bPxcCUAgjcAoFicfbwBgOANAChEGI1T8GapCQCCNwCgSMwVo+0ExVITAARvAEBxxGwWmBlvAARvAEBxmMVqFni05EarAyB4AwAKLmYz3oGmtlfS6gAI3gCAgrOYLb+o70+yzhsAwRsAUBSxCqIDnmedNwCCNwCgCCxeM97JyoAZbwAEbwBAEXi8ZrzzHjLjDYDgDQAoilgF0YTz9koABG8AAMF7xIVuLDUBQPAGABRFrIJo4LxEBwDBGwBQaNMXV0hKxumQwwSvjQdA8AYAFNi4jX2xm/1lxhsAwRsAUHB9+fjt8OHi4UoABG8AQIElw0Tsll0YD1cCIHgDAAotH8Ot9TxgqQkAgjcAoMASyfjN/hpLTQAQvAEAhRbGccabpSYACN4AgCJcXGIXvJnxBkDwBgAUXBzf4uhsJwiA4A0AKDQL4jf7awFLTQAQvAEABeYxXGrizlITAARvAECBmcfv9elxvNkAQPAGABBCC3+zIbHUBADBGwBQ4OAdz631mPEGQPAGABRWHB+ulHi4EgDBGwBQYPHcWo+HKwEQvAEABWbxXHZB8AZA8AYAFJbH80FDlpoAIHgDAArLnBlvACB4AwAKkLxjOfub1PTFFTQ+AII3AKCQYjn7O25jH7PeAAjeAACC90jryyVY5w2A4A0AKKhYBtCkh8x4AyB4AwAKKJ4PVypfwUt0ABC8AQCFFM+HK5UIeYkOAII3AKCwYhlAQyd4AyB4AwAI3iPOnKUmAAjeAICCaQ0kVcXxyJ2X6AAgeAMACmXixJrYhk8LWGoCgOANACiQ3lRVbJdbOEtNABC8AQCFUhHjnT1MzHgDIHgDAAokFwbMeAMAwRsAMNLyMd5Sj4crARC8AQAFk0g6D1cCAMEbADDSwhgvt3BnxhsAwRsAUKgLS4zDp0ms8QZA8AYAFEacHzBkjTcAgjcAoGDivKWeGbuaACB4AwAKxIMYz/o6D1cCIHgDAArEPNbrnAneAAjeAIDCiPk6Z5aaACB4AwAKw+IdvJnxBkDwBgAUhlucZ315uBIAwRsAUKgLS2i/lPRMDA89NOn79AAAg96aUwIAwHCrSS+YGCj4pqQ3xuRi+lgY+nt7Vs66k9YHQPAGABSYWyqduchl86P8RkeTbtRA7gPdq+auo80BELwBAEVTO2X+4UokbjDXURE7tI0mb+7unHU9rQxgdyQoAQBgJPVv/NXT/Y1nXzdqSy6U7HhF4fki129yicTpvR3Nv6WFAewuZrwBAAWTmrLw1bLwepmayvQQBsz8i90d6z8rtYa0KACCNwCgZI2bmqkbyNtXJL+4rL64a2ne9e5NK1v+RCsCIHgDAMpGbWP7uea+WNL4ko/csmtSfZVzVq++ZBMtB4DgDQAoOzUNi/YLFH5T5meW6FdcY6G9r3tl8620FgCCNwCgzJXmtoNsEwiA4A0AiKTayZmXKKEbTDqyyF+lW/KPZDtnfZ1WATCc2E4QAFAS+jfeura/6exri7rtoOveIMyf3r1y9u20CIDhxow3AKDkpJraXqO8faeA2w5u2yZw/89J5+dpAQAEbwBAbBRs20HTP/J5vYttAgEQvAEAsVabzrzNpMWSxg3zn2abQAAEbwAAnq+mYdF+QZC/Vq43DNOfXGPmF3Z3zPoF1QVA8AYAYDvDtu3gTeoPPpB9fOYz1BQAwRsAgEHsxbaDbBMIoKjYThAAUFZesO3gCdq9SaT7goTO6O6YxTaBAIqGGW8AQNlKNbW9RmFwveSNg/xH2CYQAMEbAIDhMLZxcX3O+7/8om0HTf8I8sG7N66c+TBVAkDwBgBgmNSm288z+dckjWWbQAAAAGAEjW5adFBtQ/tJVAIAAAAAAAAAAAAYKf8fjunINrCyFTEAAAAldEVYdGRhdGU6Y3JlYXRlADIwMjEtMTItMjZUMDE6MTM6MDErMDA6MDDcknBUAAAAJXRFWHRkYXRlOm1vZGlmeQAyMDIxLTEyLTI2VDAxOjEzOjAxKzAwOjAwrc/I6AAAAABJRU5ErkJggg==;" parent="1" vertex="1">
                    <mxGeometry x="612" y="245" width="40.74" height="30" as="geometry"/>
                </mxCell>
                <mxCell id="20" value="" style="endArrow=classic;startArrow=classic;html=1;exitX=0;exitY=0.5;exitDx=0;exitDy=0;entryX=1;entryY=0.5;entryDx=0;entryDy=0;strokeWidth=2;" parent="1" source="18" target="17" edge="1">
                    <mxGeometry width="50" height="50" relative="1" as="geometry">
                        <mxPoint x="820" y="330" as="sourcePoint"/>
                        <mxPoint x="710" y="270" as="targetPoint"/>
                    </mxGeometry>
                </mxCell>
                <mxCell id="25" value="" style="endArrow=classic;html=1;exitX=1;exitY=0.5;exitDx=0;exitDy=0;entryX=0;entryY=0.5;entryDx=0;entryDy=0;fillColor=#a20025;strokeColor=#6F0000;strokeWidth=2;" parent="1" source="6" target="17" edge="1">
                    <mxGeometry relative="1" as="geometry">
                        <mxPoint x="370" y="300" as="sourcePoint"/>
                        <mxPoint x="470" y="300" as="targetPoint"/>
                    </mxGeometry>
                </mxCell>
                <mxCell id="26" value="Service Invocation" style="edgeLabel;resizable=0;html=1;align=center;verticalAlign=bottom;labelPosition=center;verticalLabelPosition=top;" parent="25" connectable="0" vertex="1">
                    <mxGeometry relative="1" as="geometry"/>
                </mxCell>
                <mxCell id="28" value="" style="rounded=0;whiteSpace=wrap;html=1;" parent="1" vertex="1">
                    <mxGeometry x="160" y="40" width="210" height="100" as="geometry"/>
                </mxCell>
                <mxCell id="29" value="Pod" style="text;html=1;strokeColor=#A50040;fillColor=#d80073;align=center;verticalAlign=middle;whiteSpace=wrap;rounded=0;fontColor=#ffffff;" parent="1" vertex="1">
                    <mxGeometry x="160" y="190" width="60" height="30" as="geometry"/>
                </mxCell>
                <mxCell id="30" value="Components: Bindings" style="text;html=1;strokeColor=#A50040;fillColor=#d80073;align=center;verticalAlign=middle;whiteSpace=wrap;rounded=0;fontColor=#ffffff;" parent="1" vertex="1">
                    <mxGeometry x="160" y="10" width="130" height="30" as="geometry"/>
                </mxCell>
                <mxCell id="33" style="edgeStyle=none;html=1;entryX=0.5;entryY=0;entryDx=0;entryDy=0;fillColor=#a20025;strokeColor=#6F0000;strokeWidth=2;exitX=0.75;exitY=1;exitDx=0;exitDy=0;" parent="1" source="28" target="6" edge="1">
                    <mxGeometry relative="1" as="geometry">
                        <mxPoint x="320" y="150" as="sourcePoint"/>
                    </mxGeometry>
                </mxCell>
                <mxCell id="36" value="" style="rounded=0;whiteSpace=wrap;html=1;" parent="1" vertex="1">
                    <mxGeometry x="300" y="410" width="160" height="100" as="geometry"/>
                </mxCell>
                <mxCell id="37" value="Components: Pub/Sub" style="text;html=1;strokeColor=#A50040;fillColor=#d80073;align=center;verticalAlign=middle;whiteSpace=wrap;rounded=0;fontColor=#ffffff;" parent="1" vertex="1">
                    <mxGeometry x="300" y="380" width="130" height="30" as="geometry"/>
                </mxCell>
                <mxCell id="38" value="" style="shape=image;imageAspect=0;aspect=fixed;verticalLabelPosition=bottom;verticalAlign=top;image=data:image/jpeg,/9j/4AAQSkZJRgABAQEAZABkAAD/2wCEAAMCAgMCAgMDAwMEAwMEBQgFBQQEBQoHBwYIDAoMDAsKCwsNDhIQDQ4RDgsLEBYQERMUFRUVDA8XGBYUGBIUFRQBAwQEBQQFCQUFCRQNCw0UFBQUFBQUFBQUFBQUFBQUFBQUFBQUFBQUFBQUFBQUFBQUFBQUFBQUFBQUFBQUFBQUFP/CABEIAYYCWAMBEQACEQEDEQH/xAAeAAEAAgIDAQEBAAAAAAAAAAAACAkHCgMFBgIEAf/aAAgBAQAAAAC1MAAAAAAAAAAAAAAAAAAAAAAAAAAAAAAAAAAAAAAAAAAAAAAAAAAAAAAAAAAAAAAAAAAAAAAAAAAAAAAAAAAAAAAAAAAAAAAAAAAAAAAAAAAAAAAAAAAAAAAAAAAAAAAAAAAAAAAAAAAAAAAAAAAAAAAAAAAAAAAAAAAAAfzrOx+wAAAAAAAAAAAiZT5g/JFqthIAAAAAAAAAABhHXZ+ZQR68nedNkAAAAAAAAAABUhWNePOHC+uNLS+0AAAAAAAAAABTTXbsVZ+6nWDz7sKgAAAAAAAAAAIR0ZyHsfhRDC0y1xj2vzHsnJyc4AAAAAAAAAHxThXV/Esb2+8wdr+eLJsXmcgAAAAAAAAACK+v/cDZFyqI4aW+SlqMihe9MoAAAAAAAAAB4XWRvpl+azHodkZE6gi1a1IVLfdswACI1bElZmVnWBSuAAAAAHBWfW1jP10+rX+HXK8HsGyFp/rdulsDGuNy7GgAHnNZb2Vw/wC2h25axIAAAAAUz13vR+f+M/Y/6fz70vlM0bEfejXG5djRHXr5C9riqJnNMbyPkpJQVpGnpatheh25axLxeGfXZs4In4azDKKP2Q8rgAAEdNeP0F6EtcH0RYmltdvH2s/wEmbVffBrjcuxpWbUTZlbrXZTz+F7DI+F9ofVpLC5r0O3LTl1/ca3+5UoejASfjBZZb4AAAVc1O2XW9EBaUZy3hgBrjctn1KNhNzGFtczJ9yuSK5a5P37R8bdfOyu16LFDtwEI4+X5yUpzrjsRsjx1TfiCyy3wAAAqsqqtFtjIOUdTbvNADXGxp1U0Lwf0VeVNXxzFfGujhfaQwtrk2hWzQ5od9h5m+yWX81lfWbHXKiTQbZZb4AAARPoH97sD5k8bQhHib13GHq5cfybsa7gNcbyv4MrbBfY1JVibHObyhqJe0hhbXJtCtmhzQ7nbBN0tgfzq4ylvrMMa31llvgAAB8UPw6/fnHEXnMh+PyXjrpiUd/P7BrjctsVFdktwMD6R7NLdGHtdP8AHtIYW1ybQrZoc0O3IwijPsM5z15cF7FeY1R1ZFllvgAAA6KoWv7r+WYdy/Va+/g7vpU04wgvDnKNcbl2NKcK6L0Jha7eD5T5Kh30H92kMLa5NoVs0OaHblpl66fvdhmJdFnp5iY5jF+Oyy3wAAAGKtay9CbBrLen2QkUaBbVLVBTF93NdNSpyXTeYqPiJ+md/cx2vdxnTJOqwSN1UVk8x4b1sztsBhNV1h3MNmdfs2rFAAAAYd1ubw5ylAMXL1pSU3wOu7naAAAAAAAAABWZU51vJYTcl+mLtBvV/XzJPYF7AAAAAAAAAAEUKB8nT4h7Hq3qy5H6trwcl7LO/AAAAAAAAAAp2rg2DpNeS1lJH7BIAAAAAAAAAACn2tm/eWPgdaKTewAAAAAAAAAAAAjTr5exm7E7Dty9iIAAAAAAAAAABX3UJ5bsLL7ZeQAAAAAAAAAAAdPiXJHqgAAAAAAAAAAAAAAAAAAAAAAAAAAAAAAAAAAAAAAAAAAAAAAAAAAAAAAAAAAAAAAAAAAAAAAAAAAAAAAAAAAAAAAAAAAAAAAAAAAAAAAAAAAAAAAAAAAAAAAAAAAAAAAAAAAAAAA//8QAFAEBAAAAAAAAAAAAAAAAAAAAAP/aAAgBAhAAAAAAAAAAAAAAAAAAAAAAAAAAAAAAAAAAAAAAAAAAAAAAAAAAAAAAAAAAAAAAAAAAAAAAAAAAAAAAAAAAAAAAAAAAAAAAAAAAAAAAAAAAAAAAAAAAAAAAAAAAAAAAAAAAAAAAAAAAAAAAAAAAAAAAAAAAAAAAAAAAAAAAAAAAAAAAAAAAAAAAAAAAAAAAAAAAAAAAAAAAAAAAAAAAAAAAAAAAAAAAAAAAAAAAAAAAAAAAAAAAAAAAAAAAAAAAAAAAAAAAAAAAAAAAAAAAAAAAAAAAAAAAAAAAAAAAAAAAAAAAAAAAAAAAAAAAAAAAAAAAAAAAAAAAAAAAAAAAAAAAAAAAAAAAAAAAAAAAAAAAAAAAAAAAAAAAAAAAAAAAAAAAAAAAAAAAAAAAAAAAAAAAAAAAAAAAAAAAAAAAAAAAAAAAAAAAAAAAAAAAAAAAAAAAAAAAAAAAAAAAAAAAAAAAAAAAAAAAAAAAAAAAAAAAAAAAAAAAAAAAAAAAAAAAAAAAAAAAAAAAAAAAAAAAAAAAAAAAAAAAAAAAAAAAAAAAAAAAAAAAAAAAAAAAAAAAAAAAAAAAAAAAAAAAAAAAAAAAAAAAAAAAAAAAAAAAAAAf/8QAFAEBAAAAAAAAAAAAAAAAAAAAAP/aAAgBAxAAAAAAAAAAAAAAAAAAAAAAAAAAAAAAAAAAAAAAAAAAAAAAAAAAAAAAAAAAAAAAAAAAAAAAAAAAAAAAAAAAAAAAAAAAAAAAAAAAAAAAAAAAAAAAAAAAAAAAAAAAAAAAAAAAAAAAAAAAAAAAAAAAAAAAAAAAAAAAAAAAAAAAAAAAAAAAAAAAAAAAAAAAAAAAAAAAAAAAAAAAAAAAAAAAAAAAAAAAAAAAAAAAAAAAAAAAAAAAAAAAAAAAAAAAAAAAAAAAAAAAAAAAAAAAAAAAAAAAAAAAAAAAAAAAAAAAAAAAAAAAAAAAAAAAAAAAAAAAAAAAAAAAAAAAAAAAAAAAAAAAAAAAAAAAAAAAAAAAAAAAAAAAAAAAAAAAAAAAAAAAAAAAAAAAAAAAAAAAAAAAAAAAAAAAAAAAAAAAAAAAAAAAAAAAAAAAAAAAAAAAAAAAAAAAAAAAAAAAAAAAAAAAAAAAAAAAAAAAAAAAAAAAAAAAAAAAAAAAAAAAAAAAAAAAAAAAAAAAAAAAAAAAAAAAAAAAAAAAAAAAAAAAAAAAAAAAAAAAAAAAAAAAAAAAAAAAAAAAAAAAAAAAAAAAAAAAAAAAAAAAAAAAAAAAAAAAAAAf/8QAOxAAAQQCAgAEAwUFCAEFAAAABQIDBAYBBwAIEBESNxMUFRggITRgFiM2QFAiJDAxMzVVVpAXJkJFVP/aAAgBAQABDAH/AM7qicNtzDapbCXEqwrHnjOM4/Q+6uwYnU7XyTKElLBdN2XK+SFqJGpCI+c5VnOc5881bZNopchLoY5Mhc0n2oi3OUwEs6Ghpf8AQu49jN6voc4z5JXMKFJZsjJnzn1ypg4bLMTWocGM7MlxurOx5MTD/wBEQ3yy1MxTiOYBsdIGysZ8s86ubZd2DUXBZN74pn9Cd3D7jhmuBcL/AHPOq+roVTosSwPMpcNc2zrUftCnyxcppHzb7K4zzjTmPS51WPuBNyCmcZ8mv0J3XgLavoSXn/T5oexR7NqauSI6k5zwsTjBBkshMcwzFLTfqRWZLxj0865QFkN01hCMZ/QvbHXrtx14klDay7O5qDdZnUJJxcNKZoyN3RpzkL4j40szJ3T2VKbQiqEwY2Q4HnS/XznzBK4Smspa8LpfwGvhvzx4k1Bas3dyM08psBXFyG43dywpd85FdGOtUTt3UrO83FLtO1yUy83JZQ60tLrX9dUnCk5xnHmnf3WWbX50qwVOIqWHzjyz5Z/z8NLdfjO0ZzMuS24NrgQLCrgmIMHR0xYPNv7RhanqLpSRjD8y3XEvejb5Y1MXMmePXvf0zXZaOHLyFP1hC0uoStCsLR/Xtt6WptkAGS0kKy0T51j05UDevxtkJB2yJRttLKEoQnCEeHa27OWnaUoelzOYOMerPlj8c6a6nCowmMWubKpxAr1+18WhqjLq8KPjfWi5GoSjL0Z5c0Dzqndnbbq1mNJcy5L/AK9e/wCB7D4dUPZIP9zYbq379ZHHM+penIUYjtSqx5eMZj+HaWHHl6SOqkeXq50ccX6be35/u/ubG7W26pXs6GhwxS4utu1dtt99BBZkMWiL/jbn7FB9Ur+nMs/Vj53tlsIu4r5efGEtdVNoWq83orGOmpBKPvK+ENba8mHBjbDsv7Z93/8AwhudddpltsVYkRLtRWX/AOhPPNxmVuurS01tbuEwNfeG0thuc7aNl2m5vKWYOzZmOAbebqz6XRBaaNXrPuMTHOsw7jHwSiAbAOtApgkKltToNiswupDHCJieyPh7MKjDt/PkQ6lqGj574ufGmxl5ak6f3SG2qEYU2+1GNuuoYaU46tLbfaneUC3NtVQBIxLg86Z1dwTr4gXdR6c/c3h7vW7mi/eCpf41jMN12vkijv4tnDMuxGJpSc7l6XrvXhbZtkaDCEJ+No7rsvUByUVdN4JO9tPZUl4dJvb45/Q+0G9n7KVk1MHJy2G8G62XeY+M2LmrZWjLaspVjKVc1Zuqwamdl/S1okRLlezt/KZnnSLs56v1krayGIIcfIJSnmXI7q2nUKbdaeXHcS40tTbk+2Gysf5eaYnzGOao1eS2raWRkJCkRAYWJXA8IXAawzD+5vD3et3NF+8FS8SHYbXYudIhyLPHTI+0rrX/ALQzwWTjmR0edEUpcXl02lVtfN+Z0wxDdI906jGeyiIKLTECu6FPmP4RMHFR6alegN7g/Ngikci1a9zU2jlsjDZtuBOR2S1u4tKU2dnKviJ+H6/P+ztTf9DO63sg4bY2n53OqOwazr4lYpFhIoHZp226lfyDsEAYbIyu2nsqS8Ok3t8c8LZcgtGF/UTpBodD+0rrX/tDPKruem3YskYDMpITuPPNx2luurS23bO0dBqzq2UkXDEjPduter8ABX01DtLQ7XIbjrnOhpJEvDFCZBOU+luB9pXWv/aGeU3adW2DJkMV8sgi7/K7+va9fawKT46/RPznzz55/HNfATrQahiRrGZE7UvXKua5hMSJkZkwexjCcYxjHljYmmqvsuC42THttTNna3J6ttLwYljC8c696XhbeMTsTyeYkSoUcHQxaYAIczAj7d62gNnOOEWFfRjtl6r7Ar76sMDGzDDGhNhSXMITUyKc0XpofJvNvWeayGiUujBdfhWxYOEmJG+7vD3et3NF+8FS8OznYP6Q3Jp9bk/37nWjrv8AV1RrdZ439x52K7Iqprr1ZrDqcmZs6SSluypb7kqT4VS2laSaYKhpjkOZuTYTWz7TGOoZ+Xegfno3P/rvudKPcUzztp7KkvDpN7fHOWm0jaWBlmC8lMWDuDbZLbVlVOk+qOOqdUKXY9FDh4ypU7T2ohmpK7iHG8pJKzWUdUAUwuVkYjQdw77ObVnOs/EWOAeOvd3EqxVTlWIuuTQfOkH8TWb+W7wFVog1Ubj/AE+dJ6szMPnj7qMKc8e5FWZKa3jmvRj5rnTsm5C23mMnOfh/4e8Pd63c0X7wVLnZLf6aFDcroF/CrE44p5xS1qytfW3ryq3vsWexx8pBpThtOEpxhKdyX7GttelDKc4+bkyXZsl2Q+4p5/WmtS20rI2JFIxjlK6u0aqREYlDsHps/RtBJR1MvVMYlO8Oq2aiOkHqo49MG8gfno3I+POM3zdFUCQ9UWp5gMPZe50tDwC8+14nQY03A8ALEuqcgjYkNztp7KkvDp6WhgtV2UgQkNxIW992S9tHvQxlcavAAE+0mIosXGXLnaS0uP1GB9P9iUc53G2O4Us0eoxXfKFzRnVpV0Hxz9ocehiR+jaCMjpZZqYxSbl1eolqirxGG4BTNn6wL6qsahZROHEc6QfxNZv5bvCNXnFTn4T+750hPMtTbMGWrGH/AB7gnmRmplD1Kx8fnUCE5K3C26nH9n/D3h7vW7lbsEuqnIZeBlKZs+fIKTX5kt5cmV1s0W3ssis0XynNfYYbistsstpaZ53fNLbH1cSnOfRzqvSWarquFO+HjE7wUnDicpVjCk7xpjVD2ebFRk+iHA/PRuR/y7XN4+0Fu8Ojn+427w7aeypLwRbCbdUXXG5GWxMWM5Mksx2sYU7oXRkTU4b5mXhEmyeF+MrsN3PEnFetWmqci+bLBB30+uK22lltKEJwhHh2fpTFt1SRkZbxmbzpB/E1m/luzdJXdNUz/l2/iTeUW5z9f2mAdGqx8zrXawDaIdEsTKTiTy1W8PSRDpI1PagRN3bck7ctfzvoVGF86ubOrWtz5PJ/4sdweRil4TUuFJalxdl7lrWrIuMl5eVzbL3VsMx5SQYeENYj9v8AYLTmFLdHPJovdEfPfRGtQrIzggxCPjmJ46U1Nhfd3h7vW7mu60zcbuGCSHFss3OoEKJZZwQm38OXo3bcnU1uRKVlTgccQjFoEebDeRJic7wxlJMVSR/8OaQIMk9R1J5nOMo8e2BJojuYilpWFcgfno3I/wCXa5vH2gt3h0c/3G3eHbT2VJeAfV0qwapJW6B63nOdWd1/tiITVjD/AJmuZ/HGeGWFRS85lePJfVMiyP3SKw9nGPubmKNB9U2uQ95ejnSD+JrN/LKThWM4zjzx2N0q9rSyOEh7Oc1vkEhKFykSYcl6JIZ39sNiP8FNrn+g5Yytml/NFiMolI5S9fnthTpEQAPXPeJC5gac7DnxXYcug7Ys+tJKnAZFTLJkzNsJSSRIyXJk3x0Vuydqg+ht5xb9dhy2SERmVGcS9H+5vD3et3NF+8FS52X0zjY9a+qjGfOwqTlOc4zjyz1R3b9Emt0w1I8h/O4dScO62YKsI9bnOpW5ooP1001ITHY8NpbMF6tq75Se4lT5sxKsJiaTmufFlwPz0bkf8u1zePtBbvDo5/uNu8O2nsqS8OljSH9cn23EJcb7E6dXq215fhN5/Z4Iam1wvEJjn1Rpundow9r09goz6Wp3OwtSXT9tHY/o9EcKXlAC8MlCcy1L1Zs4XtOsMFIDiUyPDttuWKZ9FMDSEyGOdIP4ms38ubCQLGLkDicVubB2t1FMAX3p9R9RgbPHyhcpcaZGdiSONtrecShtOVr1n1etd5eZkEWF14RQtfBdbgkCgkX4LOwdU1vZkH4Bsehx7YNcjVC7GQsOUqbHZaW+6hptOVuaY6zAqcHjTrFBYL2ApQ64bhqiTgQ+TH7H6Fb1fKYMBfWuv86hXByxayUNfXlb33N4e71u5ov3gqXh2u0v+zhNdwEMeQxKspzjOM+WetO6sbHr30go9jNiKDYxkbKgTGsPxNv6un6ptr42QlTkHlM7LXqlxERGiSSUMl3Ku8xjLcaMLgLs1sMXImogbIvkZcmE/Dwzl9lbWIH56NyP+Xa5vH2gt3h0c/3G3eHbT2VJeHSb2+Oc2DRh+xqpNBkU/urnUSFFss4ITb+HL09tGbqi3sk2PU7BBm4VjDxCg59MmF2a085smroIi2vWecbU0tSFpyhdatRenEkEApB8dLF9ybxCYw3JjiyCrl2YvdziORHCKBkSNEfnO5bYaW85zpB/E1m/mdmAxpalHFzh8WYrnU4KOTqQWQxAjYn+OwfXm+WP4nn69MpjL2vU8S/L4Hh2iTGVpE/8x5efOjmVf+8Mfj6PubQ64X2zbEsJWAKadhar643ysbFrxUgKaahcMh4dgFShpBhMmFaOpF1gn5rIaI0RFVPr5tml2GEZFjWmJoaVLmioj8+H9Pm3eiBdhhHBRuGmVH2B1CtFefcerykWAeSoNmDu5bm18nFWI1zaTz2Gh9dJylap6fT5UtkhdVJiQ+wGgLXcr6mbXBLChMTqvsdqUytQZnyZTlDKE5/z2kCmWbXVhFD28Ozfsp7I/wCGZ51b1LZtZzLC5YISIiedgqaVvmspocMwmTP+ynsj/hmedYtdHdbVApBPxUxJPOxmkP8A1TCNThTaMWT7KeyP+GZ51uqOw9bOvhD4tP7Pc3J1jEbIkPFhbqQp609fb7U3V4kV+TNZzVTWHPh5ET8OVPr/AHu4PIxHASITFV62RaDr2xsRcpL2v7KeyP8AhmedXtQWjWhw5IPwURGv5jadoDgKYabJE4sF3nU6ziFasGCME4v1Xx7M1FyqbcLq9GcRY77kV9t5leW3dNdjgN9ERohecwKsROzhwsNUueUhw43ZffMbZDzAICpSgXOn1RcAa1eKPoyh7+u797RLAzJNcp7iMzSJKWYmOS50l2ZK424ppaVoVlC9JdpiVblRxFukOEg8aS1MjtPsOJeY5v7TyNs1TCI3obOFBcsKQkQZ8ZyJM5lWc/558/DSOmp+2LI2jLbjAKBAji4MeHEaSxF/rnZPZTmuddvZhO/CLZz6s+efxzr/AFud2YZ+nA4vxlxuj0hULzkWxpEvaejrJqdxDhFpEsZzpxst0sLm1Cc7lxzw2fpCs7VY9RKPmMSsnTK2jnl5DzoBeOx1L2M65hKhsVnFD6WIZebk20th9IMCOrItgcKhtQYP9d7tFVvXEAO9Wfh866UyNTtUhsNtYTL5a61CuNcIBiDWHYpCGodPkxV/ivrSVWK3TXcpVnCf0J3bDrZtdfKenPwudZ75FuWrxsZLuPqPL1cYNCqpA2QcShmbKXPmPyXP9TrGGWY3QB9KfNH6E7A60Vs7XsmJFRhRV1pbDq23EKbcqFzM0Qw2UBznIMuN3XtDcTCHggt6RsXbNk2jMbeOTfWzzqDq92t16TaSDOW5n6F331kbvUh4/WfhRDliqxepT1QjI6QOk8gDpRWU3GhRnZcnSXU+U7LjmrszhiOhCW0JQhOEp/QxMPBNR/gEIUecwvR1Add+IqpCvUEqoatN+gSKhjU/+Sn/xABMEAABAgMDBggGEAQHAQAAAAABAgMABBESITEFEEFRYXETFCIygZGhsRUgQlJisyMkM0BDUFNgcnSCkqKywdIwY8LRJTREc5Dh8FT/2gAIAQEADT8B/wCd04JLgrGsfMhxNpEmFUS0NCnDo3YnZjBN0pKKLLKfsjHprB0mE/BhwqbO9BuPVDhsMzbdzEwrUfMV2HZh8xvcJRpWC3lc3oF5OwRMrLrrzhqpSjiYdNlthhBWtR2AQRXg3JppK+q1AvsPopaGsHAjaM2SbKFOKPKeZPMWdopQ9Gv5itMLm1J1qUbI7EnrzZXb4UvKF7TJ5iE6qi879mZKCuSmacpl2lxB1HAjVDailQ1ERlBt2UcFceSVD8SR8xXsncGN6XFV/MMzMqmVdSnyHGxZIPVXpzSrSnnXFG5KUiph95btNVTWG31PKI0BLaj+nzFyKszFlIvUyR7IOigV9k5pggzOT3VUSv0knyVbYp7iltChX6VqCarat2nZimFs6vRHbmsmTkifKPwihuoB15zzEKvccOpKReY0Pz71iv2E174rzW3HEHrJPdC7gt88IxX6Yw6QIWLSVoNQoawfj43EGHCXHpBkVclTpsjSju3eIhVXZ1aaF0ea1rO3AdkSrYaaaRgkDM4eCk5WtOFc/sMTDpxVzUDzUjQNniTC7JCzXiZPlp9HWOneoVCkmoI+P2JR19M1K+xLKkoJFqzcrDTmdddBVNErbFlwgURzdEJFAlIoAM+Rk8UbTot3Fw9d32cz6Q4nJpUUtsA4BdL1K7BtgigclU8EsbbSYnCRLvrHLbV8mvbqOnozZIdMkScS3QFvsNPs/H/g6Y9WrNw0x61XiKylMVJ/3FQvKDVoKwPKqB152FMOtE6F8KkdxI6c3tVVNvsniyM2thtTrKyopB08uJ6aQy4pplYUAdXL/jqTa4ohVlDIOBcVo3C/dBwblJZN3Su0YbyeXUtO0spVwiBW4aiYadaQlMwkqRRSgDgRH+w5++Jed4ugSqClNmwlV9SdfxGhJUtazQJAxJMJqlWVJgVaB/lp8rebthg/BF0paG5A5I6sw/8AmfUgdIGMXJ8ISyQl9G1ScFdFDvh8VbeaNQf7HZDeLryqdA1nYIm5tb7JcRYNFGpu31iXcS80seSpJqDCEATWTlKosK0qSPKTt64QKqWs0AEMOh2cnGzVDqxzUJOkDEnXTVmyrNex7W2xZB+8V+L4Rd748IN9/wDGkpZyYUNdlJP6RNuqedWo4qJrBSXHHnTRtlAxUoxMSpllMol7CU8pKq1tHzY4xL+sGbwofVN/Ecqrg5x5pX+acGKfoJ7T0Z/lEy6ynrpAuIOjNMoNqTmaloL0OADSO2PJCjRDY1JSLkjdBFeCl0FRA1nVCCUqQsUKSMQRCTVK0GhBj5J+ZWtPUTmSQucnKclhvXvOgaYlGkstIGhIHi+EXe+PCDffnYWW3Ahp1YChjelJB6I+rvfsiYQHG1qQpBKTgaKAOYiqZett5W5AvgfCWEIB61Vg/CFtDiR1Kr2QOcGlcpH0km9PTAQHCyplxXJOBqlJEKNB7Xe/ZFK1iakXWWWgw6LaiKUvRTNMNMoYUtta7VCoqHJB9GGm+GW2lpxNEVArykjSRHGJf1gzeFD6pvNbDYccqaqOgAXnoj6u9+yFJK+Cbl3RyRiSSmg6cyBVS1mgA3wjFGTW+ETX6ZonqMa6t1/NC7koykiwkn6YJT1mJdovuP8AOAQBUquxuj6u9+yJdAW6lLS0WQbvKSPez4EpKnSHF3WuhNo9GabcDTTY0n+0UBcnJhFpLatTaTgNuMDRBHseUJdIQ+2fpadxuinCS8ykcl9vQofqNBzZPsLdlmR7K8FVwJuAux2x5Vgctw61KxUd8HGbZRVDx/mJ07xfvivJekHQqv2VUV2QdLjdgdZivKl5dQdfUNVeanffuhN6jitxXnKVpPjeEXe+PCDffmUC3lCdaPuI0tJPnazowxwgEOSEi4PdjocWPN1DTuxilJqdxEr6KfT7t+DqrTjzyypazrJOdk3KQblDzVDSDqhciy1MNaEupras7NUcInvjgv08TwWr1rccYl/WDN4UPqm4lk2lrOJ1JA0k6BDNUSclW5pGs61HSYmFUSkYJGlSjoA1w/RU5PFPKdVqGpI0CJVFtxZ7gNJOAEJV7Dk5tXOHnOHyldg8SfkH5dlCjVUq4pBCSn0a4jp3xxNr8597OOPzCt6QlI/Mc0k0iWYJ8kuVKj1Jp0+JkuaTy9PBuckj71jNOSDrahusrB/D2/xPCLvfHhBvviYRR15J/wAkgjH6Z0asdUKNVKUakmGlWpWVcH+cUNJ/lj8W6AKADRATwMok6XlXJ6ud9mHVlbjizUqUbyTFLb8yv3NhvzlfoNMU5czlDlAnY3zR274OllnglfeTQwyLcxIO8p1lOlST5SRqxG3Nwie+LIhGT3SlxuVQFJNMQaZkNyxTxhlLlm9zCsKFkrl2EoJGq4RxiX9YM0tlBTjrzholKQ03Eoo8UljcVn5RfpHsHTEyuw20gY/9bYmU+3J2mPoI1JHbjujJwS9NBJ576hUA/RSfxHM8LcvJtcl19PnE+Sk6NJ2QNLzPCq+8qpinImMn8kDejmn/ANfCxbl5tsexvo1jbrGjNxNr8597J4wwpW02CO45nkNTTY1hNpKvzJ8TKU202hOmiDwhP4R15paRfcWdhonvV/E8Iu98Si+FaUtNQFaDSH1lx11w1UtRxJiQdsKlwrlTDlK2DqTeK68NzaQhDaBRKQMABmdcemVj6ISlP51Zsse23l0vs4NjdZv+0c5FCDpjhOHl0jyW1i0E9FadEcInviyI8HO92bgpbvczcYl/WDM5NcccZTdwjlkJFrWBZuEOrCEAkC8mgvMTSPbMwLw0Pk0bNZ09WeZnXnK7LRp2Uh17hJga20C2odIFOmEiiUpFABnySOOsOUvAHPG4pr1DNxNr8597ZNUJ5oAXkJ54+6VdWaVXWwrmuJNykHYRdATV+RcV7MwdRGkbRdmbHOcN6jqSMVHYIlQWpKWUb0p0qV6Sv7DRmn0IZanQm020ASSFDG80v2Q6LTbzCwtChsIhabTUhLcp5fRoG0xXkqmSX3D3CPMXKUHYYUacdkiXGxvRzh0Vh9Npt9lVpKh43hF3vifmAwXEYprpiVXZJ8ladCk7CL4mqNT8uL6o0LHpJ/uNMTCA4062apWk4EZlsPo6QpB/qzJyc0yaaFIFhXak+JLMMsKp51mp/NHCJ74siPBzvdm4KW73M3GJf1gzZMnixNS4HwNhB4QbiTXZfozSDftd1ZvmWR/UntF+vO2+tChtCjEw08wgnzigkd1OnxDk55oV0qWmwO1QzcTa/OfexuIMZQcKmFJF0us3lo/ps3ZkXpeYWULTuIilOUUqV94isfKTTpcI3VwzMNF5yhCQlO83VOgaYaNlxl9BQtJ2gwvnyrvLZXtKDp2iJhZW686alR8SaWBNyuNj+Yj0h29UPIDjbiDUKSRUEeL4Rd748IN98ZNQVNhOMw1iW9+kdWmBiDEyv/D3nDcy4fg9ytG3fmyRMh1dPkl8lXbZzPu8Jk+YcNEpWec0ToriNtdYzkFMrKV5b7mgDZrOiJx5T7q9alGpjhE98WRHg53uzcFLd7mbjEv6wZl5SUlSFCoI4FFxjKCiuUVoaV5TR3aNm4xKuB1p1OIIhv2KdlQfcnf2nEf9Zpp3jrB0FDnK7FWh0RKOpeaWNCkmogAJm5SvLYc0g7NR052XA7lB9s1SVjmtA6aYnbTUc3E2vzn3vMJsOMuioUP/AGmL1cSUfbLWweeO3YYRcpp9BQodBzKNAlIqSYJBU/Noo6seg3j0mggcpx1V7jyvOWdJhIo1ONcl9rcr9DdEjMKYS+tNkqpjdvu6IWQlKU4knRDqQtYmE22pb0EpNxI87qgilhcsm7dddE45wfBLNpUq5jZrpSb6bs2R3zLpJx4JXKR/UOjxfCLvfHhBvvzTrnt1pAuYePl/RV374F4IjJyAFlWMy1gHN+hXXpiZbUy62rBSSKEQ4S5JTZFzzX7hgR/cZkXIZyijhbI1BXO7YPwrbClEfeURCruEeVgNQGAGwQ82HW7YpaQcFDZdHCJ74siPBzvdm4KW73M3GJf1gzeFD6puH01bdA5TLg5qxtESq7JPkrToUnYRfDlGp2VB91a/cMR/3E02HWnU6QYyWCppAxfa8pvfpHSNMJNClQoQYTdwjCqVGojAjYYHwjrCkq/CoCHLltZORwRUNRVzu2LKl2UCpoBUnoAJzcTa/OffLUg+ttT7KVlCg2aEVwOZx18LmgynhVUdUBVWPieEZitrH3RUeEWedhW1ye2mcFgtV8/hkUp25vau6vsvizc648yszTabSSbriYlJxDryxNNqspGNwOaabLTrS8FJMBw8WmFTLaFKRoqCcRhEou2g8caodaTyrwRcYW2C9K2wvg16RaFx3wq9CsFtK85CtBjFKAoNzCRtSbj0HogXeyyjg/SDdVEquyN5pQQmivBjDlp1zYtQuSN1+6GpJmWaAfbbCbAIshJNwEJWCfbjWv6UBIETcmtplBUE1URdeY+uNfuibbYDNh5DlbJXXmnaMzjzK0tqWEXJWCbzH1xr90PzxeQlLqXKp4NA8k6wc0jc0VKCQ+3W9sntHTrj641+6H6utupmm1mWc3A81Xf05l3rXZqzMHWsDA+kOkGE/wCoyenjCDt5N46RFaWeLLr3Qr/U5RSZdA28q89AMZRyc9LCaVyEpKkEWG680E4k4x9ca/dE1LobaKX0OVIVXyT75fkX0NNvuhKnCUEAAYm/M06+VyXCjhRVxRHJxw8TKR48wqlxt87qXahtQWhacUkYGG0hDzUwoNofPntk3X+biISLRdefSkd8SjnCOTBBTxlzAEDzRfjjXNleYLyaj4JPJT22j0/HzVW5rKlyg0rShvWoaToh01W8+srUreTmSahSTQiFEIRPOcp+W3ny09vdDqQtDiDVKknAg5pG05JOquCvObJ1KoOkCGFlDrDqbKkHaPEllBU7OUoKfJpPnnsxiXbS000jBCQKAD49ykriksoYoqOWsbh2kZki068s2WmU61q0d8U5jUkVN9ZWD2Q4qy3lCVqWydStKTvzSCeMSRUb+CJ5SPskin0tmdIo3lGW5Lo2HzhsPZHk2lFhzqN34oPlrnW6DqJMC/iOTqgHe4b+odMMiiGWU0A/9r+PpeRL1nRVayP6Bmyg0J2ZcpetS7x1JoM040WlA6NShtBv6IYdU0d4NImFrl1gaQptX60+YsxJql7XpIXX+vNkpsScyzXlCzzFbimnTXNKtkpSTe4vyUDaTDzinFbyaxKFyac2BKDT8RT8xZNXGpP0lgXo+0KjfSEGypChQpOowm4qTelafNUDcRsMAe6jhEg7bNYaNWZRlNhlrcnXtNTmyqkIlULxTLg1tfaN+4DX8xlcqYlV8luaPnV8lfYdmMJ8iYRZruOkbszhohlhBWtW4CGzbbyOb1OHRwuoej10hIoEjAfMf5OYaC09RjZLgDqwilDxVhLder/kq//EACwQAQABAwQBBAICAgIDAAAAAAERACExEEFRYXEggaHwYJFAUDCxkMHR4fH/2gAIAQEAAT8Q/wCdxYrHSB78EzQdzwkj+EZlTmYs9w5D7BpNFUaHAp7mu6ds6VJVqUYBjmbSS6aAvspMWCW44JUsKRfgraQBWxNxuALlqYvWoko+f1ius/MAhK0XzqfHK7Hpo9LQd/8AYkJ3SAjCXE2qPA5YlDkSG6Tf8FNGAW2kd8Q/LS5HhFq4cAIsoGQaMLMwR+USBgKdwRSrC5RCfsaUmIEAM2b/AO3+Cmk3TFpQfr92kf3XhAMMNg5A76CRpAJEV6Gig0Z3cPmm0AITLK9WHv8AgtzMTEUI3R4XJoshgTAgCMBaxEsjBEYOk9TCG3cHig7BvwUwQApOCQVgRSwxKcyPWg3lO2qGRwxKJuz+CDdCgVJQ/NmBR7aV4AQjxAz3+lK4wBrwSG/c3KUI+Y1wkBZEuJ/fBmIgSI5EpgBn2rob52C+MQkRgQMI7aixpAGbk5se8lJCWgaxW7Vuq3VVu6ONgmZySdwrnBBdKzEAEbHDPYf7V9BJ+MkrPkk8cSCRofaBhAkRLIm/9/IThJs0hcEpXvS+G5Gt12C6N70FexgIgALAG2o+kS8pD8zn0acAUYALrR2YiuTIkFFJEtEJqXlA74iCCvmTqgPfWgksFmFwAA2FGiL0HkCT4/BarJ1xqc5at1NmkCJyICN51GYZRo/Hb4ZaXS3cHDP69MTxNRIUAXwFLg60VCpQPkf865BIggmEbrISi7BFb3Nl8NrUnYnigXE4QiIEMD3pSx0hJQiYbX0ooHEmgnByy9+P6Mx8lTUoWABVcUmiVwBhbL1Y4BelH+t+O0EPGho5yKC8wiByIjSdKoFLEGD3YZOlWj7brcdwbKBGyDQWOtZXYMtsCuxUrbsz2KEoTeIkG1ZmYxCG8INDXUGGXJlWUExMQafawiddVbAG9QRqpLTcuoLNibmnzT7SJ79A+3p+n5/5yhGFAYBE+9lTsviKS8BMBsAGKfnUQiAQWJQAFVApiNwGMS0dkQZ/pjGJSl4BOyGUIjALcNVs1jbjmEKS+8HCuE20HAxtcwwEiJhIWdkWR1vzO3dAE7y02u0WglgsO2CkMrddQhcRERorqmJ2ES40XHSO38g0vyNhn3ThiTMuhTa5PcQS7rEruq7+n6fn6CmZD0IgEUIkpNK5f0lqTBCS9wtoSgwqBsjY9oHdPQSLHch8oKWOXzAPiKmsdyId2hN4FJfNFku4CHegigCOVYKP/oVRM0+ZwcnCgJlJU86MD+6AattzMbUgs6JJMwNlAzf0mMUvaAUmQepAsBgFbDpXB6ngQyDgWui6GUNERsInZVWDtqU+BYptInlKExU7I4cx/pNIk0BsbQD2KHLnpX7QohNhnbSu8/y0qDIG9rT/ABo1NKxKodkPZpGRRlXLVp1gMm67AlVsArimYMsRlxILEyeZJgMACAEAU8cps5GBaPP0m9CYUhDVJWGRNgS9loE+XjoEZExYLZBuHkQSmAROnsJ6tUWryBAWxyxeOVgUWxohZsqEx2O2mLlED3VD5oexDuTIJmtlGjoOiYKFV25cYAAPV9Pz1KtRXwLkBbxQsbLnRNRtmplTbEt3cKBBBYorXjwmmNsxRVknhodHRgnKSr2uo/2qHOwMZUjTqI8WOBTlqKbww3K+64U5ehQFN1o9AYxZoBwXGSVAF1aZxEObnYtCHwBYKwoUGToDXVgqF2BoCea6PIt1pEn70uxkIQF1QoqX1MAwLNmHgDK6rVsQyhcNBhJhCJ/IMGUQQGzInt82gClwmUR3HLh8+gcESRyr/iS9u9OMYFy/YJHu/wAn0/PQq6wg7DeEyNl3JJ/miTKq3Vd6KtiOyMbuHutgyd8wcALAGxUX7w5G4Ny5HCp5csFik3VVV7oL6QduoUM8BdW5SHU15ukTBxIu1FgNE4+IT2afoJ2DJHJzFEF5ExX3XCgCkiSPgo/zmMWgmPZoM55mDJZYmCYzBxV0J1HRkkpIMdamLyUL5JX4DKwF2odIl5ASNhsb0F1J3FTpTlXACVVgFbFDYnEfMTXV4US2NDYbGp3KAo74tChIXksPOVAguIhRwGAdY5lPdpQaQtftKwcwD0pkkHF3F7Awt1yIv8dheaEBwf8AXy6KMx6C+DzHz+hQSU90V9CL46MOSIWAP4f8n0/OgM7EHjIrMLMNrUnOE7CUOVWiYRsnggMmImGUN2gUMBloAsAAAYjQjIfNlmnP/Ro0ELmrWTwADnk1e+YOQNkTco3JnFBE6mPVPuuFfZcHrhLmFYBNykWwDgFXMQLIWKkBQC6XUCihNFz954wtuMnAClioqIiZvi+0HtWfKpicU7SaAn2KBEABYA21VYU0t585I5Tb+QwlWmnhUDyyN0aBQSqMEwO6VxMlwoVgRhueWYmXMyFOmA+x1udgWshyuJZhWkBYsBI3NJxG5vCrRHAQzDNHO/yQSkSkyOGD7NwTEShmJbUQm2NHLCc8Qxy0LLZAl+TfmnUgeT5yDtPqgj4N9Mn6TIkN/V9PzoIqPjHQI2YYY3iKmrmAZV3OXAe4yNIZ/easeRU5HkVCjDoOUcImjSGLsWlHwNAJAmIYexPRLePqbCXtZ7V91wr7Lg9cJcwscrsiNhvivIslocMKWt4BXJwO8FyLQwuSKlrPBEAPyUYx25e9D6I+YAtwD5/kBgDY0BIm4lZiKAi4MLr3sytGFPKw5UJ7NG3iAxg7HypRhgDHEjDog0LBcmTAuBLSSsYYZZvgggCUyOFNOiMADobZi1SxzKr/AKNgLAAAHokuZLJaLbIhYkN5EMlXjS24iJ6fp+ehUKJxba75F+2aUbOQEI7iVciDOsq1wzPBx1pSAwEoA3gTehdtJYCE8rK0sLyGdQV5WxdlmDDgHcC55St1gNiWxsQV91wr7Lg9cJcwfYpSwoNkRRKUHFouUrmUyyzLQ4V1btbyOEbIo2aCGFkCReDO68MZWiSafORR5PK62V7+QnZJc3KQk9Zw7LKmXAOxDQksZeGhaXrgch/JYK/jL0+RMghEERKklbDQZ3YC2iNsl1U1y0+wE0MLxYhgAutJhEJlWWEpjyjij8MFbbf/AMUAsAWpMxIB4mTHmW5Rrf5ysSCkkpGboJihZrNKkAN1UKFAh9yCSmAUKo2GcVOWR2JLsRKWBolQKG7gEm5IVstJrOGYX6hR6J6fp+epWNbL+eAYXPD6gjZ0hCOyNS5lFAoDybdicAKCZruR5Fq6e4BG0uMGyScIjFFs0kIrEkBFgUEWCi4QnlMEh5GjUNkupR0gOqn9KbKJIylQ7xX3XCvsuD/BCXMYsZ7AQHzzbcUbLUucwDKu5y4D3e4lYRlAGbxtuvNsKmUHrY3wlxG4iNyoTO5J1w5EeeinCDgBhEcI0JFofaEgTqgIEAxdpMeAog7MmDksNkAM3GpiSCAe6NkDsC/y2CqDRIKwoIIkJGgvuwAAQyAACbB6En+1jeoy2pjJHdruN9DMieSEeF0ihum3Q94n0uLMPS6QpbZKVo7eRcJXwGgCc2kCE6dxLiCXKd+osm4OQmVoUUslAvjYzgOTIbi0xBLLetqiMwMkYxSkii4SDMPnCWRFKlvNlFsMPLM8KQ/EgV8LFOykkT8iEB2pSG5EibMv2RquTnQ0kxPAAQQFooEh22wLQBYUHYUS12xEBQDyujZ3NlKUTkiN7nQtYiZQZQsDvo2I7F4WTKBstGGcnC5N2EVVsMLCSmzJ6RSeWGrBcC0HfRbh/wD3qy73HcU6ELKD0CXgpOEXN/xF0087LhPwBVB5DyDRvEJUwvBbRs9esw6iESzl/kolmz3jZFBYbukvyAM3M2QoZBs+iPNNoHCbWDHEc0v3wYSkHZEGjVFEKXSFZLIRQEhXVBgRCbLdbYpQsYsYoIQ2EBSYINBJrMSnP4YXQ/vk+pBYYFkRIsiEBSSe/TpcoV0DvBwgwiXGnOGU7Qc47zJLixQM8XykgWRERNJqXukocNYHZGJpOnkhcifd9AwQGJZjSbAUQFGyhGwbFWAQSoRBYbgAP72aka8Gjwm2Oy6dEUZVbrVn+JcWIjBhgBUWGnmOwA8TA7/SpSQs2aSCYsCG8LDFXo5XWS9sp0Rga4hz2MxKQfCxsyo8KW7JNpNnRP8A13PMfqBqCH6kPcKQ2gV4VGE14+7yrlUq3Vf76y1nLKj5jSYUHoFwrwxHS7uhhq0laeBADshprxCm618lbepvOA/v9vwUdTCjaRH9HRJ9UCERDmFdiB20j+peWQXeEB2uBaW8XM3cvlaapMHC1+h7/gt84TspEnaG11xTpiqhWEG4iIjQsXtMgKErgsOByDUfzLMHIP8AQ0MJqTJIUFmFpILTFtBDNRGMG0YO2fgy6XqRxzBN17VSkO9dsHOLuSd6TVMBDgStCOKqDXSGJ7wlcQSIIGGwBYAMB+Dt2DPnaFKI5qwwnkXfqmbLAQHCgX3/AOSr/8QAFBEBAAAAAAAAAAAAAAAAAAAAsP/aAAgBAgEBPwBlv//EABQRAQAAAAAAAAAAAAAAAAAAALD/2gAIAQMBAT8AZb//2Q==;strokeWidth=2;" parent="1" vertex="1">
                    <mxGeometry x="80" y="435" width="76.92" height="50" as="geometry"/>
                </mxCell>
                <mxCell id="39" style="edgeStyle=none;html=1;exitX=0.5;exitY=1;exitDx=0;exitDy=0;entryX=0.5;entryY=0;entryDx=0;entryDy=0;fillColor=#a20025;strokeColor=#6F0000;strokeWidth=2;" parent="1" source="6" target="37" edge="1">
                    <mxGeometry relative="1" as="geometry">
                        <mxPoint x="328.46000000000004" y="125" as="sourcePoint"/>
                        <mxPoint x="330" y="250" as="targetPoint"/>
                    </mxGeometry>
                </mxCell>
                <mxCell id="40" value="" style="rounded=0;whiteSpace=wrap;html=1;" parent="1" vertex="1">
                    <mxGeometry x="590" y="410" width="210" height="100" as="geometry"/>
                </mxCell>
                <mxCell id="41" value="&lt;br&gt;&lt;br&gt;svc-z" style="rounded=1;whiteSpace=wrap;html=1;fillColor=#f5f5f5;fontColor=#333333;strokeColor=#666666;" parent="1" vertex="1">
                    <mxGeometry x="604" y="430" width="80" height="60" as="geometry"/>
                </mxCell>
                <mxCell id="42" value="Service Z" style="rounded=1;whiteSpace=wrap;html=1;fillColor=#f5f5f5;fontColor=#333333;strokeColor=#666666;" parent="1" vertex="1">
                    <mxGeometry x="710" y="430" width="80" height="60" as="geometry"/>
                </mxCell>
                <mxCell id="43" value="" style="shape=image;imageAspect=0;aspect=fixed;verticalLabelPosition=bottom;verticalAlign=top;image=data:image/png,iVBORw0KGgoAAAANSUhEUgAAAt4AAAIcCAYAAADBtKngAAAABGdBTUEAALGPC/xhBQAAACBjSFJNAAB6JgAAgIQAAPoAAACA6AAAdTAAAOpgAAA6mAAAF3CculE8AAAABmJLR0QA/wD/AP+gvaeTAABFSklEQVR42u3deXxdVbn/8e+zz0nSJjlJB0oZSpuTlMmKChVEkUlAEAdAhOt1/CECSpt0cMDxEueLYtuctGBFQQWHWxBHRAVkUAFBcKxDaZMUSikUOuQkbZOcs5/fH61AoemQJmfY+/N+vbivey+ac/az1tr7u9dZe20JAAAAAAAAAAAAAAAAAAAAAFAqjBIAKCZ3T0iqfOIJ2Wn/df3xmzdtmZbPqZrK7Fh/Phf29OTyVCJm40TaoGTwu57lM5dSDYDgDQBDDd5VX776jw3f/M7fru7vz59MRXaurz+vnt5+ChHb/O3XZjvXXyy1hpQDKD8BJQBQbNdd/7crCd3ALplkF6bSY+dSCoDgDQB77IiTrz1iS1/+TVQC2O38/XGples3QPAGgD3T0+NTqQKwR8bVpMdMoAwAwRsA9kgYepIqAHs4bgZCxg1A8AYAAABA8AYAAAAI3gAAAADBGwAAAADBGwAAACB4AwAAAARvSgAAAAAQvAEAAACCNwAAAACCNwAAAEDwBgAAAAjeAAAAAAjeAAAAAMEbAAAAAMEbAAAAIHgDAAAABG8AAAAABG8AAACA4A0AAAAQvAEAAAAQvAEAAACCNwAAAACCNwAAAEDwBgAAAAjeAAAAAAjeAAAAAMEbAAAAAMEbAAAAIHgDAAAABG8AAAAABG8AAACA4A0AAAAQvAEAAAAQvAEAAACCNwAAAACCNwAAAEDwBgAAAAjeAAAAAAjeAAAAAMEbAAAAAMEbAAAAIHgDAAAABG8AAAAABG8AAACA4A0AAAAQvAEAAAAQvAEAAACCNwAAAACCNwAAAEDwBgAAAAjeAAAAAAjeAAAAAMEbAAAAAMEbAAAAIHgDAAAABG8AAAAABG8AAACA4A0AAAAQvAEAAAAQvAEAAACCNwAAAACCNwAAAEDwBgAAAAjeAAAAAAjeAAAAAMEbAAAAAMEbAAAAIHgDAAAABG8AAAAABG8AAACA4A0AAAAQvAEAAAAQvAEAAACCNwAAAACCNwAAAEDwBgAAAAjeAAAAAAjeAAAAAMEbAAAAAMEbAAAAIHgDAAAABG8AAAAABG8AAACA4A0AAAAQvAEAAAAQvAEAAACCNwAAAACCNwAAAEDwBgAAAAjeAAAAAAjeAAAAAMEbAAAAIHhTAgAAAIDgDQAAABC8AQAAABC8AQAAAII3AAAAQPAGAAAAQPAGAAAACN4AAAAACN4AAAAAwRsAAAAgeAMAAAAgeAMAAAAEbwAAAIDgDQAAAIDgDQAAABC8AQAAABC8AQAAAII3AAAAQPAGAAAAQPAGAAAACN4AAAAACN4AAAAAwRsAAAAgeAMAAAAgeAMAAAAEbwAAAIDgDQAAAIDgDQAAABC8AQAAABC8AQAAAII3AAAAQPAGAAAAQPAGAAAACN4AAAAACN4AAAAAwRsAAAAgeAMAAADYc0lKABSPu5ukxAv//3Pn31dx60//PbF/gyZ4Mm+RrkHoTaV4gKG7wtBL73uV4HdC4VUk7GWVTW37RfHY+pV8avOotU9qaWs/LY2oMUoQP+OmZur6Qh0TteMKQluV7Wr+V5kF76SkMf/5v987+5eHPfDgmtl9/bnXe6gUvbV4+vrz6unlug8USY9Jt+ZCfWnTypY/UQ5EBTPeMZR3Pzhwuy1yd5HmiyTNLNfvf/RpN8x8ev2WT8lfPAMOADFT69J5iUDn1jW2fa67o+UzkvFzD8oea7yBEvDKU29oeXrdlssJ3QCwfU5xt8vr0u2fpRQgeAPYa++49NZpz6zf8kkqAQA75tInU1MWvppKgOANYK/86S9PzGUsAsBOmYLwfygDCN4Ahuw9H/l11Za+8FQqAQC7dMq4qZk6ygCCN4Ah+cPvVx8kVzWVAIBdqsi7H0wZQPAGMCR9mwfGUQUA2E2hjacIIHgDGBJXnr30AWB3z5lunDNB8AYAAABA8AYAAAAI3gAAAADBGwAAAADBGwAAACB4AwAAACB4AwAAAARvAAAAgOANAAAAgOANAAAAELwBAAAAgjcAAAAAgjcAAABA8AYAAABA8AYAAAAI3gAAAADBGwAAAADBGwAAACB4A9jFAKwY1UsVAGD3eBByzgTBG8DQHLRPzeOSQioBALuWC6yLKoDgDWBI7vnFeeuTFYk/UQkA2AXX0s3LW1ZRCBC8AQzZAftWX0MVAGAXzDMUAQRvAHtlyTVv/FFlZXAnlQCAQf02O2X9tZQBBG8Ae2XixNrwQx94+UUVFcEfqAYAvMgfPaFzdVdrjlKA4A1gr1383ukbr7v6tLeOGzvqixZ4NxUBAPWY9PnsQO6EnuUtaykHoiBJCYDScNyRB/U/dPu75v/mvmeuumLencdv2NDXtCWXnyAzozqFt6m3P9+zqb+fSgCF5k/Jg+WpvsrbV6++ZBP1AMEbwIh53avH973uxrfdLul2qlFUfWaWpQxAcTD4EEUsNQEAAAAI3gAAAADBGwAAAADBGwAAACB4AwAAAARvAAAAAMOL7QSB4golbaYMJYm35AEACN5AVJhZKKmXSgAAEH0sNQEAAAAI3gAAAADBGwAAAADBGwAAACB4AwAAAARvAAAAAARvAAAAgOANAAAAgOANAAAAELwBAAAAgjcAAAAAgjcAAABA8AYAAAAI3gAAAAAI3gAAAADBGwAAAADBGwAAACB4AwAAAARvAAAAAARvAAAAgOANAAAAgOANAAAAELwBAAAAgjcAAAAAgjcAAABA8AYAAAAI3gAAAAAI3gAAAADBGwAAAADBGwAAACB4AwAAAARvAAAAAARvAAAAgOANAAAAgOANAAAAELwBAAAAgjcAAAAAgjcAAABA8AYAAAAI3gAAAAAI3gAAAADBGwAAAADBGwAAACB4AwAAAARvAAAAAMMiSQmGoOG6UfXh5tGJylx+3fKWbgoCvNg+h16RGticSm4Mt2zRqrmbqQhQKpYk6ic/XSdJFvT5hq45G6gJQPAunGmtlbV9+xysMDzUXE0uTTL5gZIdIKlGslrJayVVSaqXsgoTUpiXUunMf/5Kr0vPmPSUTGvlWuuy5YFphcL8Cgsrl2189NL1FBvlamzj4vq89x0q+aGhW9oCHSD3AyXbT7KarePDx0qqlFTT1y8pkVMqkZSeGycbJD0l19MyPW3mq921QqFWhIlgeW/gy7S8pY9qA0MJ049P8SB5sMwPDqWDA2k/lybKNEGuCVuvX6qU1ih89r+XeP51bKOk9SbbECpca2aPm/Souz/m8mVKBP/sWd6ylloDQ2exO+KpmapUXsfI/GgPNd3MjpJ0sKREAT69U/KHJXvYA7u/p2/gvmLMBNY3tU0PQ/tjBDvzou7OlpkM671XN2neOK9IHmfm0901XbKjJB1QgI8ekPQPuT9sZg/nPf+73q6Nf5VaQ1oFeP6NcNvkgVCvMekYmR0j6ShJowvw0c/I9RcF/kd3ezCf0P2bl7esokUAgvc2bvWNC6fnQz/TAp0k17EFOjntjj5J97vbnYlAt2zsmPmQZE7wJngX3KR5o+sqEyeHbqebdJKkl6p0ngF5Rq673fw3Faafre+Y9SgNhliO0WTixDDQGeZ2hqRDS+jbLZd0p7vdkVTuVyxdQXlrDWrSYyZY6OMSyaBaknKuMZKZJFmogUTCeyQpzAe9+by6x+QrN6xefcmmGAfvJYn69JpTQuk8SW+UtH9Z3CJIj0r6sVw393St++1IzfIRvCFJ46Zm6gZyfo7M3urSqSZVl8cw0UOSfiQLbsp2zFxGSyK6liTqGp481c3fKelsSaky+NIDJt0j109zebtp02PNq2lHlJrqKfP3rwgqXpo3P1gKDzHZIQo1WaYJkvbR0Cae+rR1OeX6QJq1sbPl15EP3jUN819hlrjApP+SNLHMD6fTXd+qCPxbwz3DR/CO94U8lV5zpqT3SHqTpFFlfkC/l+naqorNNz7978uyw/mHxzTMH+OhxkWtB9Tkqtfs7szMsJ53Jl81VuobSz13bXTTooOS+dylMrugzK9leZf/JpDdMHpT3w+ffPIjvZyDd9H2k+YdWBlYVdSOa+OjczqK9+mtQV3jmOnuwQkmvSqUXmXS5JH8RHf/756uWT/Y0b8r/4crJ80bnaqoeIfkF0s6JkL9NG2mz+TcLk81tP8yDHx+b0fL7ZyWMNSTeUVl4iL3NRdKmhShQztOruP6+ke31TVkrvcgWDBcs+A5S8y0hD4Xtb6QTfS9RdLPCv25nhyY5Z64PGr17LH+MyXdOhx/K9XU9hoLbbaH+XNkFoXNDxImO82l0zZVV2Vq0+3fUZi7umflnH9yVt6xZEXyplA6NoKHVtCJ3rGNi+vz6jvTXW+QdIZvfbhYruLPOJftwE4dcuU+3l81w8xnSD4hwuMwkPmZgevMVDrzF5PmdU9Z9z3d1ZrjFIVdqWlsPyJwfUjy/3ZXZYQPtdZNH5SHl6TSmZ/J/Mpsx6zf0QNQDurSmWNC+ecV2mke3cOsN3mzgsTM2nTm13L7356u5rtofQybk1qTdY+Ofb0UvDvnfWepdJ7nK+/gXdt09b4WDlzmA/qAmVfHrFu93KVvp1aO/5jSmcuynS0/Y6RhR6qnZI5MBPqM3N+keO1eFEg6S25npdJtP/cw/CizayjZ69mU+YdbkPhfl95i8RmmZtLpMj89lc7cb6bPd3e03EJvwFClDrlyHx+o+qCt9Etd2m/rvHbpKpvgPaZh/pi8kh9VONAsqdZi3c38cEk/TaUzdwWBf3jjilkPMfQgSamG9sNk4eclvVVx3C50++v7myxInFHX2PaNvHtrb+fsJ+khKAlTM1V1oX/c3T4uRfqXqF051l0/T6Uzv3eFn+jpnH0PnQO7q37y/EZPBh8JB+w9pvKZiC2DV8YvSdQ2ZC7JW2KZzD8uqZbu9qyTwtAeqE1n2jVp3mjKEecT0FVja9OZNpn/VbJzCd3PTS642wcCBctSje0XUA4UW216wQmpvP7sbpfHPHQ/33Gm4O5UOvPTuqZFUykHdjqGpmYm1KbbM2Ei8U93+0CZ7MhVHsG7rnHB0an0mofM9DVJE+huO25Dk2amKpIP1ze2v5JyxE+qsf2CMJF7xKQWSRVUZMenE7lfm2psv7l2aoZzCQrvpNZkqqFtnim4S9JhFGSH3uxh/u+pdOYLEyd+pYZyYDvTWitTjW0ft7yWm7y5XG9cSzN4T19ckWrIXOYe/F7Sy+ltu+Ww0P2+VGPmfzV9MeErBqqnzN8/lc78RO7XShpPRXaD+zmW199T6fa3UAwU7K5v0rxxdSvH3SqzOeLXqF2pkvSJTdVVf69PZ15POSBt3S66dvO4++T2RUl15XwsJRe86xoWvCq1vu/PMv2vmL3bU0m5Lqtb13fr1j1zEdH0aKl0+4WJIPFPSQTIPbev5D+uS7d/XnJCEEY2MDS2H+EVFQ+6dCrV2CMNofTLVEPbtWMa5o+hHHG1JFHXmPlMYIk/muuoKBxR6QTvhutGpRrbrnALfi/XS+hsexHLpFPCRO7+VOPCQ6hGtIxtbJtcm26/VfJvSKqnIkNmLv9kKp258YADFldTDoyEusa2MwP3eyVvpBpDG6cyuyBnib/UNmROpBzxUtt09b516TW/dNf/SEpE5bhKInjXNS2amrLsA3L7aJSKW2SHyMP7axrbTqEU0ZBKt78l5/ZXk06nGsN2XT83W9V3z+hJ8w6kFhju0O1uN4sNAYYhfWuyme5INbR/kaWUcQndbS9VOBDJX4qKHrzrGtvO9DD/gKQj6GrDbmzgdmsq3fZ+SlHOWoO6xrZWyX8sZrlHwvRkRfKBmob5r6AUGJbr2pT2N2wL3VVUY9gkZP7x1Lq+21KHXLkP5YiumsbMqRba70b6te4xDN5utenMp9ztZ5JYjzxyKiT7el1DpoVSlOGdU+Pi+lR67E+2bT3GeuSRc0Bgid/UpTPHUArsdegO/EeE7hFzogYqH6xJZ9h4IYJSU9rOCVy3KMKTTEUJ3uOmZupSje03m/Q5lcVe4mXP3NSWamj/KKUoH7VTF07Led8Dkr2JahTmPsel21JN7cdRCgwpNKQzx3vgzHSPvIZA+n1tuv08ShGha15j+7kK7P8U8f3tCx566yfPbxzI2/1ynU03K3j8vqI23f5pClEWF/A3Wz68TxIPyBZWnUL/ZW1D+0mUAntiTMP8Bkk/lDSKahREjcn/b+vuRK1M4JX7Na+h/Wxz/4FisJtdQTtrTcP8V4SJxO+3vfIcxcje8s+Gof0PlSjl0N32fkk3S0pRjaKolfktkp9AKbA7JkxbVJu3xE/Ei94KfknbujvRuJt5e3MZn3DTC06Q+fclJeNwvAUL3rVN7a8LLHG3pP3oZkXH3s8lewLKfEqyr8flBFS6N6iqNtlpVAK7lAhty+b89ZJeRjGK5qxURfJXYxsX8/B5malJL3iZKfiJYvRLUUGCd2pK2zkW+i9U5m8bAkaOW20607btuQceogTKZeS6fYqlkyXh+AHvu7O26ep9KUV5qG26el9T8DNJY+J03CMevFMNbWdtWyzPwybAoKG7fYFJ7DwDlJ9XU4LSYNKRFg78tvqg9gOoRombvrjCwv4bo7plYNGCdyqdebPMlohXvwOD3/U3ts8jdAPAsDgkkfQ7atILJlKK0lW3rm++ZLF8jmbEgnddQ9sZkm5SxLeFAfby5vTL5ppNJQBg2BwWKLgtdeDC8ZSi9NSm289zaUZcj39Egnd9Y/sr3exGQjews5vTzGxJH6ESADDsjvCq8Nf7HHoFu0OVkPop7WmTXxPnGgx78K6fmmkK3W+RVEsXAwa74287301fpRIAMDLMddSW/tE36qRWdokqBSe1JsPAf6AIv5Wy4ME7dciV+4R53SqJp4qBQUP3ghNM9h3x1lYAGNnwLZ2eWjnuaipRAte+lWMvk3RM3OswjBf+JQkbqPyBpIPpXsCOjW5adJApuEns8gMAhfL+VGPbxylD8dQ0th9hMt6cPZzBO9X4xBddOoWSAoOYmqlKhvmbxNvtAKCw3D6/bdMHFCNsul8nJpyGL3inGtrPlhsPiQE7Gyd5LRQ/swFAcbKf2ffqp7SnKUVRTKcEwxS866e0p2X+bfG2PWBQden2d0l6P5UAgKIZGwa+RFMzzLyiXIN3axAGfp14FTwwqNFTM5NcnqESAFB0r0zl/EuUAWUZvGvT4z8p6UTKCAx+c5rM63pJY6kFAJQAs1m1Te2voxAoq+Bd39Q23eQ8oQrsRKph/IclnUQlAKB0so+Ffu3YxsX1lAJlEryXJMLQFkuqoITAIDenk+c3yryVSgBAyZmSC/vmUQaURfCua3hypnhCFdipMBG0SRpNJQCgBJkuqG1oP4lCoKSDd03Dov3c/DOUDhhcbbr9PMneRCUAoHSjt8kXavpifr1H6QbvwHJfkcS6KGAwk+aNDuRfpRAAUOrRW9NS6/paKARKMnjXpBe8TLJ3UDZgcKlkssWlg6gEAJSFy2ubrt6XMqDkgrcp+IqG8TXzQNTUT75qrEwfpRIAUDZSFg5cRhlQUsG7tqn9dSa9npIBgwsT+U9IGkclAKCsXDq2sW0yZUDJBG8L/X8oFzC41CFX7uPyS6kEAJSdUbnQLqcMKIngXZfOHCPeUAns/OZ0oKLFpGoqAQDleBLXu5n1RkkEb5c+QamAwU2c+JUal32QSgBA2arIhZpNGVDU4F07Zf7hkt5MqYDBbR5ddZGkfagEAJQxs4vqJ181lkJgpCR3Hc2TH5ScnUz2TF6uLgVa5vJlcq0NLNjkHva6tMFco102yqQxko8xs6bQ1GSuqZLqKF+5cXNrZ7Z7CPcrkpaZtMylLrmeMVOvmza5W9YU1ptslLtq3HSASU2SpkpKS6qkfIiZbjctD1wr3NShUOtdttEC9bmrx+RjzK3ag7BaoSbIrFHSYYyXPVYbJgc+IOlLlAIFD94HHLC4Oqu+d1OmXeqXdJ9Ltweu27tr1j2spa39QwlwtU2ZafLghEA63t3PkDSG8pb4Wbpp4ckKdQiV2KV1kt/pZneYgjuyHTMekcz3+K80XDcqZdmjXX6CpBNNdvJuTSIA5eUZyW91t98pGfyuZ/mMfwxpvJzUmqxZOeYlCUuc4u6naOvzWrWUd6eX4ouk1iuk1pBioKDBO1vZdz7Bb6cekPybVZVbvv/0vy/L7v2fM+9Zob9L+rukqzQ1U5XK2RvM/B0uvUVSFSUvPUHolzhlGMyAXD8zt290r5z4a+n8/HP/aubQ/mLXBVuy0m+19Z8vpA65ch/PVZ1v7u+QdBwlRxnrlXSzmf+ge+yo2/TQJQN7PV7uas31Sn/V1n/ma1prZe2mcW8x6UJt3SKYX7RfLF2f3ueUjZ26jVKgoMFbposp0YuE7v4DN7+it3P2XyUpO1KftLylLyv9WNKPqw9qPyCR1BzJL5GUohlKQ23T1ft6OHA2lXjxfbuZz8u7X93bNfvJEf2gZR9+WtJVkq6qa1xwtIfBx2Q6m0CBMvK0uy20yr5F2/rzyFna2t8j3STpptFNiw5KhmGL5DMkjaYZnuMKL5II3mWqT9K/JD0i9+VuWiVprTx4KpEIs3mpLzEQbnr2P10RjA1ziUoFPkEK9zXTpDDUwWZ2sKTDNcy/EA0avOuntKdD+bG03/NHov0iNP9Eb9esvxT6ozc91rxa0kfqJ1/1xa0vafFZkipolGL3iYFzxfrJ7U54brpagb6YXT5rbaE/vLtj9oOSzk01tB+mwOfJ9QaaBKUb7rRJ0pdqNvXNf/LJj/QW+vM3r5jxmKSPjJ40b0GyouJ/JH+fWLb1n7Y5K3XgwvHZx2c+QzVKXlamO8x1h6QHuqvX/Xloy313ZEmitumJw82DoxWGx5vZqS4dNCLBOzSdJ8loT0nSE2a6qLuz+ZZif5GNj166XtJHaidnrrOkFsp1Ms1TPOY6nyo8e6W61xKJ92ZXzFhe9LNwV/O/JJ2Zamg/W+YLJE2hgVBaJw/9OOnB7A2dM1f2FPmrbF4193FJl9Q0ti8092+bdCQNpEpV+tmSvkkpSlKvpJsDBddvrH767uEL2i90fv55S4Cvk6RU48JD5OFZkp0r+TF7mpWDnSQKAsXWat6o/uCI7o6WW0rpe/U82vKPbEfzKeY2W1sf7kSB1TQs2k/S8VRC/TL/RLZrvxO6SyB0vyCA/7iqcvMRLn2XZkKpnL5N/p5sR8s5GzpnriypJNPR/Lee6nXHmuwLknI0lb+NGpScLpO3jKpO7JftbHnPxs6Zt41c6B7kutIxc1m2s+Ur2c7mY3NBYopLn5asY6+Cd/3k+Y2Spse8cXNuurS7s+X80v2pyby7q7ktMDtuTxodw1T9IHyrpETMy7DGpOOzHbO+tP2Dk6Xj6X9flu3pbHmX5Bdp6xaGQLH8VW5Hd3fOur5kv+HS1v7uzuZPucJTJMV9mcUpdZPmjaPbloQnZLowO2Xdwd2ds9rXLp3RUwpfavOKGY/1dLZ8Pts5c2poOk1uv5Dkexy8PZE4M+YNnLXQ3tLT0XJ1OXzZjR3Nf7SBgaPlupexWcDgHeqNsS6Aa2nC86/u7mx5oCwGdeesb5iFJ0paS+9F4ceL/aJ6U99rti2DKnk9nbPvkQWvkbQ8xq1W4cnkW+i8RZWX+ZdHVScOyXa0XKu7Wkv0lxjz3o6W27NdzW/0MD/NFPx5z4L31i2G4urJ0PMndK9svrWcvnT3qrnrUv1Vp0n+c8ZpAUzNVMn8xBhX4O6E8q/d0DWnq6zGScfsB2XBayV10YlRQN/Jjq88uxgPUO7VzWrHzGWq6H+1pAfi2nAW2Ol036J5RGFwfLZj1mWlMsO9WzetK+f8c2c32C8O3tNaK6XYPrC3IZRO7+2a8+dy/PKrV1+yKTtl/Tnu+j7jdWTVuh0nqSamh/9AVeXmN2/omrOhHL98tmPmsnzOjpO0jJ6MEQ9u0qJsZ/P/235P7jIaL8s+/HSQT54h6S9xbD93P1VqZWvSwlf+5xUJvTK7cuZ9UTuyF3Wm2t7xr1E832rVq8Df2NvZUt4nl7tacz3jq967bZ0RRupi6mFcZ0H+rv7gzOF5YVTxbHqseXVCwetl9ji9GSMWHaTvdneuaxnSGydLyMZHL10fKjw9pjer+9Q3jj+K3lzAcWNakO3c/+x1y1u6o3h8O7iL8xNi2M55c39bdsWsaKyRfuiSgVR/5Xms+R7RM0PsxolJj+VzdnpU9rXd0DlzpW/9GZl9ejES54hf9IyruiAqrx3v7Zz9ZNL8NElr4taUoXQqHbpgF5orejpa5pTqw/ojErwtUPxemuP6ZHfXrF9G6ZBWr75kkyd1tqRVjORhNjVTpfjtc9sn6W3bXuQUGT3LZy4Nzf9LUp6OjWH0SFXVpreX6/KSwazvmPWozM+TNBCr1nR/DV26EPeq3pbtaPlY1I8zeOFhy/WqmDX1D7NdzV+O4pH1LG9Zq8DeHruT5Airy4WvkFQVs8NuLpfdS/ZUb8esO9ztc/RsDJMtoXReuS/HGky2Y9bvTJobszZ9Fd16xN3S07H/h+JwoNsF71S67RBJcdqzcnXCw/eX+/q7nZ4kVzT/Xm6fYkwPp0S8fhVy3ZztbLkmyofY0/XM50y6nb6NvR4uprll/6zQLnR3tiyM2XNE+257vwlGxiNVlZv/O8rLSwYN3mbBK+PV1vbBct2ZYY/Cd9fEr0p6iLE9XBfWME7jZF2oxIzoH2ZraKFdLF6wg727Sb23p6P5a3E41Fwi+ICk7tg0bTJ5LB18RAyY9K6o/kK0y+DtrpfEJnJLS7KdzT+Nx9GenzcLPygpZIwPx7XVpsXn3tQ+3Ns1IxYPU21c2dzp8i/QwzHULBqaLo3yL6jPt3nFjMdM+mR8zvvhy+niI3GJ8S9GdRnjbgVvSXEJFP0W2sfi1NDdHbMflOwbDPO91RqYdFhMDvYv2Y5nvh2n1u1J2JWK95v6MNQAIf961JeYvOi6Mq5qcWzGS4wmJguos7s/f0XcDvqFwfsl8Rg/+trGlc2dcWvspIVfEA9a7pW6pgmNkkbHIkiE9vGobIW225a39Mn0JXo69tBAwhS7AKGHLhlw90/HI3jb4XTzYRb6h7RqbuyW9z0XvLdukRaHhwf6XOEX49jH13fMelTuNzDa9+LcG+bjcvK9v3tl861xbOPs6HU3uPQovR17cJv6vfUds2LZZ3q61i+R9Ej0m1hpTZo3mr4+XPcxeji7suXHcTz2Z4N3XeiTJSVi0Nw39nbOfjK+3T34siRn2A/x3OtKx+I4zdpj28hLW/sD13x6O3b7qhKEV8b36FtDM7s6DhfPmsqKqfT2YbrG5P3zcXkeYtDgnZcmxyM4+cI4d/ZsV/O/JN3PsB/qXbodFIPDXNM9+pmb4tzOYVLfFcuysDvnBOlPPStm/T3WISqX+JZLm6J+nAn5ZHr8sHgkrrPd2wXvQEEcOtS/u7tm/yH2d5rS9xj3Q61dLE6839PS1v44t3PP8pa1cruNHo/dOCfE/ny68dFL15s88kvTwjAWEy+FcE1cZ7u3C94eehw61A/p71IYVCwRr8geEpeiP07Mf0RLSxYQqLDrU0IuYT+gDJJJP4n8MZoTvPdevyf0rTgX4LkZ78D3j/zBBn4zfV7qWfHBpyT9mUoMyQERP74nsx3r76WZpbyHt4vnIbBzj2xe3rKKMkgayN+i6E/oELz39k5VfnfP8pa1BG9Jchsf8WPdsHHF+j/R7f/T3PotVRiSSI8TM7szdlsIDmLbQ9jLqAR24h5KsFX3qrnrJC2N+GFOoKX3NnTaT6nBNqF8TMSP9X4CxfMCVt65YOypk1qTkmoifYyh/4GG3m6k3E0NMGjvEBMYL6hIxB/ct7G08V6GTs//nOD97Akk2h3K3djJ43kSFjL7v4dqV40bu/VaG/UbVDx73jD/M1XAYPKe/ytV2E7EX/3tBO+989cNXXO6CN7P9idFvUP9iz7/nA1dBz4mqZ9K7D4Lg7HRPyHkGSfPv0H1gNfHY1BVyUQHVXheLFU+6i/SIXjvVf/QXVTh+cHbov0TemDeSXM/3/l5SdRkD+TzYU3ED3Hdhq45G2jp5zf6wAqKgEE8tW55SzdleE6FWVfED7GeVh46M/2FKjw/eEuVUT7QMKjoorlfdPe5kirsvmSgikj3BxNj5AU2Nm58VOxsgh17lBJsb33H/o9LykX4ECslN1p6iIHTnOAdp+Ddc9CT62juF9x9SszW7NmNSlWkTwYuxsgL3dWaUwzeyIchnUCzFOGFzs9LEa/LtM9U0M5DktuYr1tKGeITvPu2XUCx/ZWjlxrsQfAOLNoz3hL9YceoC3Y0YLghi+F4mfh0DcF7aP6prgu2UIbtg3cywsfJCXJHsVveQxX2YLDkI77UhCAxWMBiZhM7OH9yQxbH6+2WqppKmnhIA4bnZXYQvMNINzl2lCioy550IrNI7wMfBEZ/2PHZI6AIePH9GP1iN3JF5IT5kHYfymk01BNU4cUDJMpLMapp6h1dOKyWKuy+vPtApPuDO+Nkxxgn2NENWQ1FiN94GTXG+mjiIdywmFZThRcH7yjv6Vyp6YtZl/XiqMWFY0+uswlFOnibCBI7vkGlLtjhnSr9YsciXZe1Wsv7L4ZyfSF4xy54q/qp/gk094sCRR1V2IMTh+f7I94fGCMvNH1xhUmjKQR2cEZgT+cXarhulKI94+1aevkADT2E0SJfQxViFrwTlUrT3C8cCNZAFXZf3hX1nxgZIy9QtyE3RTwjAsbLbkmppyHi42VAMvb1H0reyCcI3i8K3qYNkW50d0LmdpYkJE2hDruv0mxDxA8xlTpw4Xha+vl3W2ETRcBg92W1UzP8SrTddTbyNyPscDREYZBjF6AXBW/X+igfqIf+Upr7OfWTH5+iiL80abglKrasj/oxekXIONnuYiGCN3YSNP1gqvC880cQTov2AUZ7gnJEr5/uPJT6ouCtiL+1zuzVNPdz8onEUVRhzzz978uyUsQfsAwYJ9sHq5BxgsH7R6jpVGG7E8hron18vN13qAZUyctzdhC8oz3jLR2tk1qTNPmzjqcEQ7Ih0kfnTvDe/kp7AjXATvoH59Htzx/HRjxHELyHKBmyDeMOgrc9Fe0bVVXXrhzzGpr8Pw1PoBjimfepiB/hCZrWyhIkSdVT5u8viaUE2FkQO4EXkW1V29T2Ukn7R/q6abaelh6amlyC4P3C4G2uVZE/WrO30uRSTcOi/Vx+BJUY0h3cYxE/wjF1vWNfR0NLySBxGlXALkysn7LoSMogKQzOifyNlvvjNPTQrF49luD9wuAdBv5Y5I/W7RxmJ6SE8udLStD9h2RV9IcJN6hb66C3UwXsOm+G76AKUiBF/rxhbo/R0kN1fp4avCB4Bwoj36FMmlyfbo/9LJabcaEYau1ccTjxvn3c1EysX65UOzUzQa5T6fHYDf+9bXvW2KqfsvAol78i8ud/aSXdHcMWvPOuR+NwwKG8Oc4NnmpoP0zyY+j6Q755i8M4SfWH9q5Ynxhz9g5JFfR47IYD6hqfOD3OBQgDb4nFeSGIwZJcFC5493bOflKKwx6VdmZd06KpMT5FflS8iW/oPPh3LG4wXDOl1iCWbTx9cUVoPpfOjt0+Lbh9LK7HXpNeMFHy/4pFO/cPdNDbMWzBe2uv0j/icMxhPveZODb26KmZSTJ7J91+6CoqwqWSYvDKYD+8Lj02ln0l9UzfO02aTG/HHjg+lc7EcmvBhIJPSxoVg0N9onvVXLYTxDAHb9PSOBy0mb29pmH+K2IXGkP/pHhb5V5Zt7ylW1Isnmx32Wc1NVMVqwae1lop08fp6RiCz8bt4f36yfMbXbooFrlBsZiYRKGDt3lsOlYQBIl5cTpJ1je1TXe3i+jywxFIYzNOGlI5zY5T26Y2j58r6RB6OYbgpLrG9lg9uB4mgi8rJpM5oYzgjeEP3qH0pxilp5NT6UxMgmhrEIbBIrGF4LAwi9E4MbWm0gsOjcOhjm1smyz3T9HDMeTLiuurYxrmj4nDsdY2tp8r2bkxatyl9HAMe/AeXZN4SFKM9lq0r4xuWnRQ1I+yrmFci+SvorsPk7z/IUZHO0oKvhn9By1bg5zsa5Jq6ODYCxPzFrRH/SBTBy4cb+6L4tSwoesBujeGPXivXTqjR9LfY3T8dckwvyTKr8iua1xwtJuuoKsPY+5WeH/MDvm4uvTY1kgHicaxl8n1Bno39p69K9q/prYGqvDvSJoYo0bt3ZRe9zf6NoY9eG89ZyhuoeLY2k3jr4zigdVPvmqse7BEPFA5rDatnPOEx2M/72e57JOpxoVviuKx1aYXnCC3z9KzMYzaovoAf23DuE/J/MyYteeDuqs1R7fGiARvc/993Ipg8uZUY+Z9kTqohutGhYncjyQ10M1HJInGbZwE8vD62smZl0TpoFLpBYeagpskJenUGEajgyD58zHphVMiNV4a2s4y0+XxO9/bfXRpjFjwznvyNsVin+IXBamv16bbz4vGwSxJpKz7Bkkn0sVH6GYtsNtieNhjLKHb6qe0pyORjCbNO1AKfilpAj0aw39N8QPzCm/f+oKZ8lc7pe1kmf1gR7kh8kHJ/C46NEYsePd2zVgjKY5rmRIm/05tU/vryj50N675RqyeNi+CXP/Ar2N66AeEgf+q3MNETXrBxGQy+SvxixBG1lSz4BepQ67cp5wPoq5xwdEW2E8UjxflvNDmjQO539KVMWLBeyuLa6gYZaH/uD698LSy/PaT5o1ONa65Sa7/R9ce4TPxqrmPyxXX7aUODhTcPnpqZlJZhoimRVMDJe6VaRo9GSPNXEdpoPJ35brsJDVl4avdg1slpeLYfi7do1VzN9OTMaLBO7TwlzGuSSpUeEuqIVNW4bVu0rxxqYrkbXKdTbcu1BVVcR4nL02Gdn9NOvPyshonjQuO9jD/e8kb6cAooEPzCu+tSS94WTl96drGzFsVhHdIGh/b07z5r+m+GPHg3Tt5/d2Sno5xXSpkurYu3fbZcti/uK4hc6xXJB+WdBxduoAnZNdNsS6A+4GBdE/dlPay2IavtjHzQffgHkn70ntRBAeYgvtSje0XlMHgtlQ68yFz3ShpdLybLfFzui5GPHhv2zbnR+Qq+3QqPfbO0n2YbOvJ0U33SJpCdy6s7q7mP5j0WMzLUOeB31Kbbs9o0rySvECPbVxcX5fOLDHXVYrnGlWUykVFqpb7tal05jsTpi2qLcXvWH1Q+wGpdPsvJF2pGD5I+QJ/yXbMXEbPxcgH763/4ibKI0l2Qhj4X1Lp9gslt1L5VvVTFh6VSrffu+3kWEE7FefezN0ZJ5KZvDlVkXy4rmFBCb0h1a2uMfPOnPf906XzaCaUkHdv2ZT/Z6ntpFXXmPnvRNL/JukMmkiStIQSoGDBe+OUdb+R9BQlkiSlJP9Gbbr9obqGtqKekKoPaj+grrHt6jAIH5B0LE1T5MQp/z+q8KzD3IL76tKZ/0s1LjykqAEinTkmlc7c5a4bJO1P06AETTL5krp05rbqKZkji/lFatMLTkilM/e663uSxtE0287vQYLgjcIF723LTb5NiZ4fsnSkm92aSmfurGvMvFFakihY8m9ceEgqnbkmkfQOd/uApAQtUnzdXbP/IOnvVOK5YeLS+fJwaSqd+XqhHyarT2den2rI3OHSHyQ7geZAqXPp1ESgh1PpzK21DZkCvnvBraax7ZRUOvNzU3C3pFfTGtudyv7QvWLGcuqA4Zbcxe3eN+Thh7dmTjzPSe46KZVes8rUdp1b4oaRWAeWOuTKfby/6m1m/nZ5eLxYb1eiN2T+dZdlqMSLzi0XBQouSqUzD0r+DfUnfph9fOYzw/1BtVPmHx4kEm9319tD6RDOVihTZ5jpjFRDZqmbfz+RD7+/8dE5HcP9IWMa5jfkLHinaeH75MbuPoO7hhKg4ME72zFzWSqduVvSSZRqhya57NPy8NOpdKZL8jvcdXsQ6KHuyes7t/1qsPtB+8CF460qPNZDf63MjteAXmXmvMq61IN3vuIGT+SuUOyf/h/U0ZIdrcrw6lQ68yeZ32Fh8JuB3MDfN6+a+/ie/Sm3+ikLGzzQcW7+WrlOlHSYO0VGZO7kp5ns82Ei8blUOvM3l90t6bf5gYF793y8LEnUT358Sj6ZPDJQeKq7nZKXDt56b8qg2Ynu6k1bfpClDih08N46NP1qkxG8d61BsgvNdKG7lFo5bkDpTIfkj8jsaXP1uqlHsg3mYbXLRklWb/IxLjVJapLCMe6SjCm7crLx0UvXpxoz/8eLi3YpkDRdbtPd/KPJiqRS6UyPm5ZZqC6ZnnFTb+DW6+5Zyeo98NHmVi2FB0hBk9SeDv+zMwm5AVGP4NLLTP4ySc3bxkuvpOVyrZDZ05JnTdrsrh7Jx7gFNeZeI9M+Mk2Vr2kKlagydzk/Be1+4V3fffLJj/RSCRQlePd07v/DVPrJDl44sccqJB0q2aHybRlh2/947gToZIeI8CC40vLhe8WyrD1Va66jZDpq2wVv66iwrePDnh04RtIGpBpJL5fp5f8ZD/6fiC6TPTt2GC57czoPE34VZcBI2Y01w+fnXeE8SgXs5AZ1+cylkt9CJQCgrP2sZ8UsHphHMYO3VNc36jpJaykXMDiXf4UqAEA5pyK/giKg6MF79epLNsmMWW9gJ3o6Z98j+T1UAgDK0t3ZFbPupQwoevCWpGz/QJukVZQMGJzJPiJWVwJA2fHQP0MVUDLBW6vmbnbX5ykZMLjuzpYHZPoJlQCAsordP+9ZOetO6oDSCd6SehrWfVPSMsoG7OT0ndMnJeWpBACUhXxowScoA0oueOuu1pyFNpuyATu5QX205R8uYzsqACgHput7O5r/RiFQesFbUvfK5ltl9iNKBwyuMuGfkrSaSgBASduYz+eZ7UbpBm9JylkwS1IP5QN2bN3ylm6TXUYlAKB0ueuyTSvnPEElUNLBe/OKGY9JaqV8wOC6O2d+16TbqQQAlKT7errWXUMZUPLBW5Kynevms2cxsDPmA0HifZI2UAsAKCl9HvjFUmtIKVAWwVtqDRMevldSN2UEdmzzihmPmayZSgBACTH/BK+GR5kFb2lD15wuyeZSRmBw3Z3NN5h0I5UAgBLg+k22Y/0CCoGyC96SlO1s/qbkN1BKYCcDzfMXS1pOJQCgqNbnEon/xxITlG3wlqTsQP5il/5EOYEd29A1Z0No9laXNlENACiK0Ezv3rZBBFC+wVur5m4OgsT5kjZSUmDHejua/xaYXUQlAKDwXLq8u6PlFiqB8g/ekrpXzFhupneKV2UDg4+TjubvuWkBlQCAgvpJT2fzFygDIhO8t4aKllvcxA4OwE70dKz7EG9/BYCC+UtFQu+RzCkFIhW8t4aKlqslu5LSAoNpDbP9A++UdB+1AIARZPZ4Lki8ed3yFrY+RjSDtyRlO5+5zN2/R3mBQayau9mDirMl/ZtiAMCIWO+Bnc7DlIh88JZaw56G9e+V62ZKDOxYz4oPPpVL6FTJOqgGAAyrXkln9SyfuZRSIAbBW9Jdrbns+Kq3S/oZZQZ2bPPyllW5IDhJUhfVAIC959ImD+wt2c6W31INxCd4S9JDlwxkPXW+3H5BqYFBwveKGY9ZkDjNpUepBgDsXehWYG/uWdH8G6qB+AVvSeq6YEt2fOXZZvYDyl0yp6YfUoPS0r1ixvJ8kHitpH9RjZKwRRL7/QLlpYfQDYK3JD10yUB3x8x3sH9xCTB9Kwj0JQpRejavmPGYDeSOk3Q/1SjunamZ3u+0A1BO1ikMXk/oBsH7ucTnPR0tc8z0WUnspVmc0H1ndvS6SyhE6epeNXddRUKnu/RrqlE0n+ruaPkuZcBuukZSP2Uoqi5Z8Orsypls0QqC94uCRUfL5SZ7j6Q+yl/Q1P3PIJc8V0tbuUCUuHXLW7p7Ovc7U9JXqUaBuV+X7Wz5IoXAbp9ZQ/uRLDiXa1rRPJjP2XHZjpnLKAUI3oOF787mGxTYKZKeogkKYk2Qz71p46OXrqcU5eL8fLaz5cMme7e2rjfGSAco6fbs+FH8IoQ9lu2Y+XNzO0vSZqpRyBtlXZv11AmbHmteTTFA8N7ViWpF8+9zA7mjxNv7RtqTnghO3fjoHPaKLkPdnc035EO9RtJKqjGiV/B7qqoT5+ihSwaoBYY0Vruaf+UKz5CUpRojLifXx7JdLReq6wImJkDw3l2bV819PFu97iSTX0VTjIjVUngiLxAob5tWtvwp9MSxct1LNUYgcstvyw7kz1i7dEYP1cDe6OmcfY/C4HTxa+7IXtcCPzHb1XIFpQDBeyiWtvZ3d86a4bLzJbEUYjhPThacnO2czSvJI6C3a8aabM26k2X+ZUkhFRmu0K1f9wzkz9KquSwRwLDIrpx5X8Lzr5L0N6ox7CP2nnyYf2V2xSwmIUDw3vuZguYbc0Hi5TLdSbPsLesw85N42CRilrb2ZztmXeahnyppFQXZaz/t8RShG8NuQ9ecrqrKzcdJ/nOqMSw2m9ncbOf6kzetnPME5QDBe7hG1ooZj2U71p1qrlmS+Nl3SBMC+o367ZjujlmPUIxo6lk5684gn3yZXNeKrTmHNkrcvpTtXHcO60MxUp7+92XZbOf+Z2vr7kSM06H7nZm/vLujeb7Uyq99IHgPv9awu6slk/D8EexlvKdpQguzDetOzz4+8xmqEW0bH710fbar5cLQ9HpJnVRk9+/vzfTObFfzJ7iIY+Rt253I9GZJT1KPPbqebTK32dnOdScykQSCdwFs6JrT1dPZcrrLznfpUZpq52FC0sU9nS3Nuqs1Rznio7ej5fbsQG6amX9GbGW2K11B4Md3d7R8n1KgkLo7Wm7xhI6Q6cdUY3dCt98WBImXd3c1t3GDDIJ3gfV0Nt9Y11d1uJk+69ImmuxF7rIg8bJsZ8s1lCKmVs3d3N0xqzXh+ZdIukn8rP1CoUuZUdWJIzaumPUQ5UBRrmXLW9ZmO1rOkelCSRuoyA79W9Jbejpnvb57xYzllAME7yJZvfqSTd0dLZeHYX7qtq0HefuitNFdH8h2Nr+OExSkrb8SZTtbzjMLX2XS7VREkuyfCvz4ns6WWWwXiFKQ7Wi5Vv3BVJcyktg3XpLMHnfTpdlxVUdkO1t+RkFA8C4Rm1bOeaK7c9aMIJ8/XNI1iucregck+3puIDetp6tlsWTMbmI73R2zH+zubDnNQ3+dSXfEtAxrJf9INuFHsvUYSi58Pz7zmZ7OlllmPk2um2NciifMbG62f+Dgno6Wq3mBFeIgWY5fettbGC+uPqi9NZH02ZIullQf8bbKS3ZDkM99lrdQYnf0rJx1p6Q76xoXHO1ul0l2tqRExA97vcu/Oro62cYMN0r/JnnWI5LOrZ+y8Ki85T9kZudJqoj8gZv+Iemr2UDf1fLmPnoCCN5lYtNjzaslfXTixK98ZlN11TtMdqnLXxGxNtoo6ZtBPr+IwI2hXdxnPyjpbaObFh1UEeYvdun9kvaL2GE+Yq6FyaS+tW75rG4SN8rqJL9y5sOS3jl6auayZOjNcrtA0oSIHeaApJ+EpsW9Hc138Gst4sqidkD1TW3T827vMtfbyzlcuPQnyb85ujr5bWbuMKymL65Ires7w6R3ufRmSaPL90LuvzKzr3V3rLuV3Q9KW11jW6u7XR65i2hoZ3avbL51WP/otNbK2s3j3mSu90k6Q+X9S9VDkv8g9OQNvV0z1jASQPCOrCWJmsY1J5vrLNsaLqaUQdpeYabvh2H+ez0r5/yT7omRNm5qpi4X2pvkfpZvvcDXlfhXDiXd52bfs2TfkuyyDz9NK5aHVLr9Ccmj9kuLzDWnu6tlwUj9/Zr0gomB7CyXvdWkkyVVlsEY/YPMfyYlfsgblIHYBO8XnrwyL0+Yvc7dT5Z0gkpjTfgWl+4JzH4Z5nO/JGyjqKa1VtZuGf/aIPSTfesF/hiVxnrTp93914EFt4ZB8tc9Kz74FI1VhsG7oT0n88g9Y2ChPt29suXzhfisMQ3zx+QseVpg4evc7WRJh5ZEEVwrJN1t5neFQeWvGKMAwfsFliRqm5443Dw42jx8pbu9QqbDJI0bwQ8dkGy5FD5k0gNye7BbqT/zymqUqgMOWFydHd1/pOX1ytD8aJNeuu1CP2oEP7ZH0j9MelDSA2GYf7Bn5cZ/s4yk/M+5qfSaSL7cy0L7XPfK5v8pxmePnjTvwERF8tUmHSnpqG3/7DuSEdulx0z6h8kectcfc7mBBzevmvs4fRwgeO+x2qar97Vw4FCTTXH3A93swEC+XygfY7Kxco2VmUleq+dmArsly8t8i9yyUrhWrrWSnjQFaxSEj8iSy7oPWtvFWyVR/lqD+sn1DUokpoamSR7aQWbhQbJgnNzHShorWWrbNXrsfy7Wkm3Y9r9mJWVlttZCX6NAa921yt0eCfNatu2BaUTMhGmLardsymejeGyB2Zc3djRfVirfp37yVWOVzDflQzWZeZNLE+W+j0wTZDbe3MZsG4s12rpsZYtkm12+0aQtJvW6WdbdN5m02lyrwkCrPMx31PdXL1u9+hJeZAcQvAEAJTupMTUzwfKK5PIDN2vr6WieTSsD2K2bdUoAABhJyXxQHdmLaBhW0cIACN4AgJKQdx8d1WNzJSppYQAEbwAAwXukg7cx4w2A4A0AKBGJpEV3qYmMGW8ABG8AQGkII73URMx4AyB4AwBK5ELj0Z3xNjnBGwDBGwBQGtwV2Rnv0JnxBkDwBgCUCFN0l5pYINZ4AyB4AwBKgwfRXWoi1ngDIHgDAEqFRfjhSjlrvAEQvAEApZJNFeUZ74ClJgAI3gCA0mARfriSXU0AELwBACXDgyjv420EbwAEbwBAaTBFd8ZbcpaaACB4AwBKJZsqwmu8WWoCgOANACgdEZ7xZqkJAII3AKBUeKT38U7qpNYkjQyA4A0AKIErTYT38ZY0Ye2EUTQyAII3AKD4XJEO3pu3BNU0MgCCNwCgFEQ6mCbD/GiaGADBGwBQCiIdTPPuBG8ABG8AAMF7xC+k0X54FADBGwBQRiIdTMMkM94ACN4AgNIQ7RnvkBlvAARvAEDRuUmK9HZ7oZjxBkDwBgAU26T5oyRZpG8tIr5dIgCCNwCgDKS8MvLLMCwQS00AELwBAMWVGx1GfjbYxYw3AII3AKDIkmH03+poHjLjDYDgDQAortDjMOMdMOMNgOANACiuRAwePDQergRA8AYAFFuYiP4e1x6wnSAAgjcAoNgXGfcYzHjzAh0ABG8AQJGFsQilzHgDIHgDAIp+kYlDKHVmvAEQvAEAxRXG4cFDZ1cTAARvAECxLzJBDJaa8HAlAII3AKDYPAYPV4qHKwEQvAEAxWaxeJ06M94ACN4AgGJHUikOs8HMeAMgeAMAiisWb3U0Y8YbAMEbAFBcHsRhVxOWmgAgeAMAisycpSYAQPAGAIw4j8XDlaqSWrmeAiB4AwCKJx67msgOOGD/UbQ2AII3AKBoPB5LTZS1AdZ5AyB4AwCKGLwtFjPeyo3iJToACN4AgCKymDx4mGRnEwAEbwBAMcXk4UqFHhK8ARC8AQDFE5OHKxWEAUtNABC8AQBFFYtA6kmWmgAgeAMAiisW2+yZ83AlAII3AKBYpmaqJCXicKjOw5UACN4AgGIZk8vHJowGIngDIHgDAIqkP5+MzfKLkKUmAAjeAIBiqaiKzyxwEIgZbwAEbwBAceRCi9GMd8iMNwCCNwCgOBIxeuAwUMCMNwCCNwCgOEKPz/IL5+FKAARvAEDRLjAxeuDQnDXeAAjeAIAiCRPxmQV2Y1cTAARvAECxLjBxmvFmqQkAgjcAoFjitO7Z5cx4AyB4AwCKI07rnk3GjDcAgjcAoDg8iM9SE+fhSgAEbwBAscRp3bPxcCUAgjcAoFicfbwBgOANAChEGI1T8GapCQCCNwCgSMwVo+0ExVITAARvAEBxxGwWmBlvAARvAEBxmMVqFni05EarAyB4AwAKLmYz3oGmtlfS6gAI3gCAgrOYLb+o70+yzhsAwRsAUBSxCqIDnmedNwCCNwCgCCxeM97JyoAZbwAEbwBAEXi8ZrzzHjLjDYDgDQAoilgF0YTz9koABG8AAMF7xIVuLDUBQPAGABRFrIJo4LxEBwDBGwBQaNMXV0hKxumQwwSvjQdA8AYAFNi4jX2xm/1lxhsAwRsAUHB9+fjt8OHi4UoABG8AQIElw0Tsll0YD1cCIHgDAAotH8Ot9TxgqQkAgjcAoMASyfjN/hpLTQAQvAEAhRbGccabpSYACN4AgCJcXGIXvJnxBkDwBgAUXBzf4uhsJwiA4A0AKDQL4jf7awFLTQAQvAEABeYxXGrizlITAARvAECBmcfv9elxvNkAQPAGABBCC3+zIbHUBADBGwBQ4OAdz631mPEGQPAGABRWHB+ulHi4EgDBGwBQYPHcWo+HKwEQvAEABWbxXHZB8AZA8AYAFJbH80FDlpoAIHgDAArLnBlvACB4AwAKkLxjOfub1PTFFTQ+AII3AKCQYjn7O25jH7PeAAjeAACC90jryyVY5w2A4A0AKKhYBtCkh8x4AyB4AwAKKJ4PVypfwUt0ABC8AQCFFM+HK5UIeYkOAII3AKCwYhlAQyd4AyB4AwAI3iPOnKUmAAjeAICCaQ0kVcXxyJ2X6AAgeAMACmXixJrYhk8LWGoCgOANACiQ3lRVbJdbOEtNABC8AQCFUhHjnT1MzHgDIHgDAAokFwbMeAMAwRsAMNLyMd5Sj4crARC8AQAFk0g6D1cCAMEbADDSwhgvt3BnxhsAwRsAUKgLS4zDp0ms8QZA8AYAFEacHzBkjTcAgjcAoGDivKWeGbuaACB4AwAKxIMYz/o6D1cCIHgDAArEPNbrnAneAAjeAIDCiPk6Z5aaACB4AwAKw+IdvJnxBkDwBgAUhlucZ315uBIAwRsAUKgLS2i/lPRMDA89NOn79AAAg96aUwIAwHCrSS+YGCj4pqQ3xuRi+lgY+nt7Vs66k9YHQPAGABSYWyqduchl86P8RkeTbtRA7gPdq+auo80BELwBAEVTO2X+4UokbjDXURE7tI0mb+7unHU9rQxgdyQoAQBgJPVv/NXT/Y1nXzdqSy6U7HhF4fki129yicTpvR3Nv6WFAewuZrwBAAWTmrLw1bLwepmayvQQBsz8i90d6z8rtYa0KACCNwCgZI2bmqkbyNtXJL+4rL64a2ne9e5NK1v+RCsCIHgDAMpGbWP7uea+WNL4ko/csmtSfZVzVq++ZBMtB4DgDQAoOzUNi/YLFH5T5meW6FdcY6G9r3tl8620FgCCNwCgzJXmtoNsEwiA4A0AiKTayZmXKKEbTDqyyF+lW/KPZDtnfZ1WATCc2E4QAFAS+jfeura/6exri7rtoOveIMyf3r1y9u20CIDhxow3AKDkpJraXqO8faeA2w5u2yZw/89J5+dpAQAEbwBAbBRs20HTP/J5vYttAgEQvAEAsVabzrzNpMWSxg3zn2abQAAEbwAAnq+mYdF+QZC/Vq43DNOfXGPmF3Z3zPoF1QVA8AYAYDvDtu3gTeoPPpB9fOYz1BQAwRsAgEHsxbaDbBMIoKjYThAAUFZesO3gCdq9SaT7goTO6O6YxTaBAIqGGW8AQNlKNbW9RmFwveSNg/xH2CYQAMEbAIDhMLZxcX3O+7/8om0HTf8I8sG7N66c+TBVAkDwBgBgmNSm288z+dckjWWbQAAAAGAEjW5adFBtQ/tJVAIAAAAAAAAAAAAYKf8fjunINrCyFTEAAAAldEVYdGRhdGU6Y3JlYXRlADIwMjEtMTItMjZUMDE6MTM6MDErMDA6MDDcknBUAAAAJXRFWHRkYXRlOm1vZGlmeQAyMDIxLTEyLTI2VDAxOjEzOjAxKzAwOjAwrc/I6AAAAABJRU5ErkJggg==;" parent="1" vertex="1">
                    <mxGeometry x="612" y="435" width="40.74" height="30" as="geometry"/>
                </mxCell>
                <mxCell id="44" value="" style="endArrow=classic;startArrow=classic;html=1;exitX=0;exitY=0.5;exitDx=0;exitDy=0;entryX=1;entryY=0.5;entryDx=0;entryDy=0;strokeWidth=2;" parent="1" source="42" target="41" edge="1">
                    <mxGeometry width="50" height="50" relative="1" as="geometry">
                        <mxPoint x="820" y="520" as="sourcePoint"/>
                        <mxPoint x="710" y="460" as="targetPoint"/>
                    </mxGeometry>
                </mxCell>
                <mxCell id="45" value="" style="endArrow=classic;html=1;exitX=1;exitY=0.5;exitDx=0;exitDy=0;entryX=0;entryY=0.5;entryDx=0;entryDy=0;fillColor=#a20025;strokeColor=#6F0000;strokeWidth=2;" parent="1" source="36" target="40" edge="1">
                    <mxGeometry relative="1" as="geometry">
                        <mxPoint x="370" y="280" as="sourcePoint"/>
                        <mxPoint x="614" y="280" as="targetPoint"/>
                    </mxGeometry>
                </mxCell>
                <mxCell id="46" value="Subscription" style="edgeLabel;resizable=0;html=1;align=center;verticalAlign=bottom;labelPosition=center;verticalLabelPosition=top;" parent="45" connectable="0" vertex="1">
                    <mxGeometry relative="1" as="geometry"/>
                </mxCell>
                <mxCell id="47" value="Observability" style="swimlane;" parent="1" vertex="1">
                    <mxGeometry x="156.92" y="565" width="643.08" height="120" as="geometry"/>
                </mxCell>
                <mxCell id="48" value="Traces" style="rounded=0;whiteSpace=wrap;html=1;" parent="47" vertex="1">
                    <mxGeometry x="13.08" y="30" width="160" height="70" as="geometry"/>
                </mxCell>
                <mxCell id="52" value="Metrics" style="rounded=0;whiteSpace=wrap;html=1;" parent="47" vertex="1">
                    <mxGeometry x="193.08" y="30" width="160" height="70" as="geometry"/>
                </mxCell>
                <mxCell id="53" value="Logs / Events" style="rounded=0;whiteSpace=wrap;html=1;" parent="47" vertex="1">
                    <mxGeometry x="373.08000000000004" y="30" width="160" height="70" as="geometry"/>
                </mxCell>
                <mxCell id="49" value="" style="endArrow=none;html=1;strokeWidth=3;strokeColor=#001DBC;fillColor=#0050ef;" parent="1" edge="1">
                    <mxGeometry width="50" height="50" relative="1" as="geometry">
                        <mxPoint x="160" y="526" as="sourcePoint"/>
                        <mxPoint x="800" y="526" as="targetPoint"/>
                    </mxGeometry>
                </mxCell>
                <mxCell id="51" value="" style="endArrow=classic;html=1;strokeWidth=2;entryX=0.5;entryY=0;entryDx=0;entryDy=0;fillColor=#a20025;strokeColor=#6F0000;" parent="1" target="47" edge="1">
                    <mxGeometry width="50" height="50" relative="1" as="geometry">
                        <mxPoint x="478" y="530" as="sourcePoint"/>
                        <mxPoint x="440" y="470" as="targetPoint"/>
                    </mxGeometry>
                </mxCell>
                <mxCell id="56" value="" style="endArrow=classic;startArrow=classic;html=1;strokeWidth=2;exitX=1;exitY=0.5;exitDx=0;exitDy=0;entryX=0;entryY=0.5;entryDx=0;entryDy=0;fillColor=#a20025;strokeColor=#6F0000;" edge="1" parent="1" source="38" target="36">
                    <mxGeometry width="50" height="50" relative="1" as="geometry">
                        <mxPoint x="390" y="340" as="sourcePoint"/>
                        <mxPoint x="440" y="290" as="targetPoint"/>
                    </mxGeometry>
                </mxCell>
                <mxCell id="57" value="&lt;font color=&quot;#3399ff&quot;&gt;CloudEvents&lt;/font&gt;" style="text;html=1;strokeColor=none;fillColor=none;align=center;verticalAlign=middle;whiteSpace=wrap;rounded=0;" vertex="1" parent="1">
                    <mxGeometry x="195" y="430" width="60" height="30" as="geometry"/>
                </mxCell>
                <mxCell id="58" value="&lt;font color=&quot;#3399ff&quot;&gt;Raw Message&lt;/font&gt;" style="text;html=1;strokeColor=none;fillColor=none;align=center;verticalAlign=middle;whiteSpace=wrap;rounded=0;" vertex="1" parent="1">
                    <mxGeometry x="195" y="465" width="60" height="30" as="geometry"/>
                </mxCell>
            </root>
        </mxGraphModel>
    </diagram>
</mxfile>